SplineFontDB: 3.0
FontName: Keypunch029
FullName: Keypunch029 Regular
FamilyName: Keypunch029
Weight: Regular
Copyright: Copyright (c) 2017, Stewart C. Russell, Toronto, Canada, scruss@scruss.com
UComments: "2017-3-21: Created with FontForge (http://fontforge.org)+AAoACgAA-Generated from a bitmap of the code plate (character generator) of an IBM 029 keypunch+AAoA"
FontLog: "2017-03-21: scruss+AAoA - initial release"
Version: 001.000
ItalicAngle: 0
UnderlinePosition: -100
UnderlineWidth: 50
Ascent: 800
Descent: 200
InvalidEm: 0
LayerCount: 2
Layer: 0 0 "Back" 1
Layer: 1 0 "Fore" 0
XUID: [1021 962 227161935 6059757]
StyleMap: 0x0040
FSType: 0
OS2Version: 0
OS2_WeightWidthSlopeOnly: 0
OS2_UseTypoMetrics: 1
CreationTime: 1490117753
ModificationTime: 1490119019
PfmFamily: 49
TTFWeight: 400
TTFWidth: 5
LineGap: 90
VLineGap: 0
OS2TypoAscent: 0
OS2TypoAOffset: 1
OS2TypoDescent: 0
OS2TypoDOffset: 1
OS2TypoLinegap: 90
OS2WinAscent: 0
OS2WinAOffset: 1
OS2WinDescent: 0
OS2WinDOffset: 1
HheadAscent: 0
HheadAOffset: 1
HheadDescent: 0
HheadDOffset: 1
OS2Vendor: 'PfEd'
MarkAttachClasses: 1
DEI: 91125

StartChar: sterling
Encoding: 163 163 0
Width: 522
VWidth: 0
UnlinkRmOvrlpSave: 1
Flags: W
HStem: 200 86<52.6424 126.448 137.784 173 177 212.216 223.784 298.216 309.784 384.216 395.552 469.358> 286 85<137.853 173 177 212.147> 371 86<137.853 173 177 212.147> 457 86<52.6424 126.448 137.521 173 177 212.479 223.784 298.358> 629 85<137.642 173 177 212.358> 714 86<223.642 298.216 309.784 384.216 395.552 469.358>
VStem: 47 85<205.642 241 245 280.358 462.642 498 502 537.358> 132 86<205.853 241 245 280.479 291.784 365.448 376.784 451.216 462.521 498 502 537.479 548.784 623.216 634.552 708.358> 218 86<205.853 241 245 280.147 462.853 498 502 537.147 719.853 755 759 794.147> 390 85<205.642 241 245 280.358 719.642 755 759 794.358>
LayerCount: 2
Back
Fore
SplineSet
475 243 m 0x80c0
 475 219 456 200 432 200 c 0
 409 200 391 218 390 241 c 1
 389 218 370 200 347 200 c 1
 324 200 305 218 304 241 c 1x80c0
 303 218 284 200 261 200 c 1
 238 200 219 218 218 241 c 1x8140
 217 218 198 200 175 200 c 0
 152 200 133 218 132 241 c 1
 131 218 113 200 90 200 c 1
 66 200 47 219 47 243 c 0
 47 267 66 286 90 286 c 0
 113 286 131 268 132 245 c 1
 133 267 151 285 173 286 c 1x8240
 150 287 132 306 132 329 c 0
 132 352 150 370 173 371 c 1x4140
 150 372 132 391 132 414 c 0
 132 437 150 456 173 457 c 1x2140
 151 458 133 476 132 498 c 1
 131 475 113 457 90 457 c 1
 66 457 47 476 47 500 c 0
 47 524 66 543 90 543 c 0
 113 543 131 525 132 502 c 1x1240
 133 524 151 542 173 543 c 1
 150 544 132 563 132 586 c 0
 132 609 150 628 173 629 c 1x1940
 150 630 132 648 132 671 c 0
 132 695 151 714 175 714 c 0x0540
 199 714 218 695 218 671 c 0
 218 648 200 630 177 629 c 1
 200 628 218 609 218 586 c 0
 218 563 200 544 177 543 c 1
 199 542 217 524 218 502 c 1x1940
 219 525 238 543 261 543 c 0
 285 543 304 524 304 500 c 0
 304 476 285 457 261 457 c 0x18c0
 238 457 219 475 218 498 c 1
 217 476 199 458 177 457 c 1x2140
 200 456 218 437 218 414 c 1
 218 391 200 372 177 371 c 1x4140
 200 370 218 352 218 329 c 0
 218 306 200 287 177 286 c 1
 199 285 217 267 218 245 c 1x8140
 219 268 238 286 261 286 c 0
 284 286 303 268 304 245 c 1
 305 268 324 286 347 286 c 0
 370 286 389 268 390 245 c 1
 391 268 409 286 432 286 c 0
 456 286 475 267 475 243 c 0x80c0
475 757 m 0
 475 733 456 714 432 714 c 0
 409 714 391 732 390 755 c 1
 389 732 370 714 347 714 c 0
 324 714 305 732 304 755 c 1
 303 732 284 714 261 714 c 0
 237 714 218 733 218 757 c 0
 218 781 237 800 261 800 c 0
 284 800 303 782 304 759 c 1
 305 782 324 800 347 800 c 0
 370 800 389 782 390 759 c 1
 391 782 409 800 432 800 c 0x04c0
 456 800 475 781 475 757 c 0
EndSplineSet
EndChar

StartChar: Euro
Encoding: 8364 8364 1
Width: 522
VWidth: 0
UnlinkRmOvrlpSave: 1
Flags: W
HStem: 200 86<223.642 298.216 309.784 384.216 395.552 469.358> 286 85<137.642 173 177 212.358> 371 86<52.6424 126.448 137.521 173 177 212.479 223.784 298.358> 543 86<52.6424 126.448 137.521 173 177 212.479 223.784 298.358> 629 85<137.642 173 177 212.358> 714 86<223.642 298.216 309.784 384.216 395.552 469.358>
VStem: 47 85<376.642 412 416 451.358 548.642 584 588 623.358> 132 86<291.642 365.448 376.521 412 416 451.479 462.784 537.216 548.521 584 588 623.479 634.552 708.358> 218 86<205.853 241 245 280.147 376.853 412 416 451.147 548.853 584 588 623.147 719.853 755 759 794.147> 390 85<205.642 241 245 280.358 719.642 755 759 794.358>
LayerCount: 2
Back
Fore
SplineSet
475 243 m 0x80c0
 475 219 456 200 432 200 c 0
 409 200 391 218 390 241 c 1
 389 218 370 200 347 200 c 1
 324 200 305 218 304 241 c 1
 303 218 284 200 261 200 c 1
 237 200 218 219 218 243 c 0
 218 267 237 286 261 286 c 0
 284 286 303 268 304 245 c 1
 305 268 324 286 347 286 c 0
 370 286 389 268 390 245 c 1
 391 268 409 286 432 286 c 0
 456 286 475 267 475 243 c 0x80c0
218 329 m 0x4140
 218 305 199 286 175 286 c 0
 151 286 132 305 132 329 c 0
 132 352 150 370 173 371 c 1x4140
 151 372 133 390 132 412 c 1
 131 389 113 371 90 371 c 1
 66 371 47 390 47 414 c 0
 47 438 66 457 90 457 c 0
 113 457 131 439 132 416 c 1x2240
 133 438 151 456 173 457 c 1
 150 458 132 477 132 500 c 1x2140
 132 523 150 542 173 543 c 1
 151 544 133 562 132 584 c 1
 131 561 113 543 90 543 c 0
 66 543 47 562 47 586 c 0
 47 610 66 629 90 629 c 0
 113 629 131 611 132 588 c 1x3240
 133 610 151 628 173 629 c 1
 150 630 132 648 132 671 c 0
 132 695 151 714 175 714 c 0
 199 714 218 695 218 671 c 0
 218 648 200 630 177 629 c 1
 199 628 217 610 218 588 c 1x3540
 219 611 238 629 261 629 c 0
 285 629 304 610 304 586 c 0x34c0
 304 562 285 543 261 543 c 0
 238 543 219 561 218 584 c 1
 217 562 199 544 177 543 c 1
 200 542 218 523 218 500 c 0
 218 477 200 458 177 457 c 1
 199 456 217 438 218 416 c 1x3540
 219 439 238 457 261 457 c 0
 285 457 304 438 304 414 c 0
 304 390 285 371 261 371 c 0x34c0
 238 371 219 389 218 412 c 1
 217 390 199 372 177 371 c 1
 200 370 218 352 218 329 c 0x4140
475 757 m 0
 475 733 456 714 432 714 c 0
 409 714 391 732 390 755 c 1
 389 732 370 714 347 714 c 0
 324 714 305 732 304 755 c 1
 303 732 284 714 261 714 c 0
 237 714 218 733 218 757 c 0
 218 781 237 800 261 800 c 0
 284 800 303 782 304 759 c 1
 305 782 324 800 347 800 c 0
 370 800 389 782 390 759 c 1
 391 782 409 800 432 800 c 0x04c0
 456 800 475 781 475 757 c 0
EndSplineSet
EndChar

StartChar: logicalnot
Encoding: 172 172 2
Width: 522
VWidth: 0
UnlinkRmOvrlpSave: 1
Flags: W
HStem: 200 86<395.58 430 435 469.358> 286 85<395.58 430 435 469.42> 371 86<52.6424 126.448 137.784 212.216 223.784 298.216 309.784 384.216 395.552 430 435 469.358>
VStem: 47 85<376.642 412 416 451.358> 132 86<376.853 412 416 451.147> 218 86<376.853 412 416 451.147> 390 85<205.642 280.716 291.284 365.928 376.521 412 416 451.358>
LayerCount: 2
Back
Fore
SplineSet
475 243 m 0x86
 475 219 456 200 432 200 c 0
 408 200 390 219 390 243 c 0
 390 266 407 285 430 286 c 1x86
 407 287 390 306 390 329 c 0
 390 352 407 370 430 371 c 1x46
 408 372 391 390 390 412 c 1
 389 389 370 371 347 371 c 0
 324 371 305 389 304 412 c 1x26
 303 389 284 371 261 371 c 0
 238 371 219 389 218 412 c 1x2a
 217 389 198 371 175 371 c 0
 152 371 133 389 132 412 c 1
 131 389 113 371 90 371 c 1
 66 371 47 390 47 414 c 0
 47 438 66 457 90 457 c 0
 113 457 131 439 132 416 c 1x32
 133 439 152 457 175 457 c 1
 198 457 217 439 218 416 c 1x2a
 219 439 238 457 261 457 c 0
 284 457 303 439 304 416 c 1
 305 439 324 457 347 457 c 0
 370 457 389 439 390 416 c 1
 391 439 409 457 432 457 c 0x26
 456 457 475 438 475 414 c 0
 475 391 458 372 435 371 c 1x46
 458 370 475 352 475 329 c 0
 475 306 458 287 435 286 c 1
 458 285 475 266 475 243 c 0x86
EndSplineSet
EndChar

StartChar: sqlozenge
Encoding: 8977 8977 3
Width: 522
VWidth: 0
UnlinkRmOvrlpSave: 1
Flags: W
HStem: 200 86<52.6424 126.61 395.39 469.358> 286 85<137.642 173 177 212.479 223.284 298.716 309.521 345 349 384.358> 457 86<137.853 173 177 212.147 309.853 345 349 384.147> 629 85<137.642 173 177 212.479 223.284 298.716 309.521 345 349 384.358> 714 86<52.6424 126.61 395.39 469.358>
VStem: 47 85<205.642 280.358 719.642 794.358> 132 86<291.642 326 331 365.448 376.784 451.216 462.784 537.216 548.784 623.216 634.552 669 674 708.358> 218 86<291.58 326 331 365.42 634.58 669 674 708.42> 304 86<291.642 326 331 365.448 376.784 451.216 462.784 537.216 548.784 623.216 634.552 669 674 708.358> 390 85<205.642 280.358 719.642 794.358>
LayerCount: 2
Back
Fore
SplineSet
475 243 m 0xa040
 475 219 456 200 432 200 c 0
 408 200 390 219 390 243 c 0
 390 267 408 286 432 286 c 0
 456 286 475 267 475 243 c 0xa040
132 243 m 0xa4
 132 219 114 200 90 200 c 0
 66 200 47 219 47 243 c 0
 47 267 66 286 90 286 c 0
 114 286 132 267 132 243 c 0xa4
390 329 m 0x7040
 390 305 371 286 347 286 c 0
 324 286 305 303 304 326 c 1x7140
 303 303 284 286 261 286 c 0
 238 286 219 303 218 326 c 1
 217 303 198 286 175 286 c 0
 151 286 132 305 132 329 c 0
 132 352 150 370 173 371 c 1
 150 372 132 391 132 414 c 0
 132 437 150 456 173 457 c 1
 150 458 132 477 132 500 c 1
 132 523 150 542 173 543 c 1
 150 544 132 563 132 586 c 0
 132 609 150 628 173 629 c 1x72
 150 630 132 648 132 671 c 0
 132 695 151 714 175 714 c 0x2a
 198 714 217 697 218 674 c 1
 219 697 238 714 261 714 c 0x32
 284 714 303 697 304 674 c 1
 305 697 324 714 347 714 c 0
 371 714 390 695 390 671 c 0x2940
 390 648 372 630 349 629 c 1
 372 628 390 609 390 586 c 1
 390 563 372 544 349 543 c 1
 372 542 390 523 390 500 c 0
 390 477 372 458 349 457 c 1
 372 456 390 437 390 414 c 0x3080
 390 391 372 372 349 371 c 1
 372 370 390 352 390 329 c 0x7040
475 757 m 0
 475 733 456 714 432 714 c 0
 408 714 390 733 390 757 c 0
 390 781 408 800 432 800 c 0x2840
 456 800 475 781 475 757 c 0
132 757 m 0x2c
 132 733 114 714 90 714 c 0
 66 714 47 733 47 757 c 0
 47 781 66 800 90 800 c 0
 114 800 132 781 132 757 c 0x2c
304 331 m 1x71
 305 353 323 370 345 371 c 1
 322 372 304 391 304 414 c 0
 304 437 322 456 345 457 c 1
 322 458 304 477 304 500 c 0
 304 523 322 542 345 543 c 1
 322 544 304 563 304 586 c 0x7080
 304 609 322 628 345 629 c 1
 323 630 305 647 304 669 c 1x71
 303 646 284 629 261 629 c 0
 238 629 219 646 218 669 c 1
 217 647 199 630 177 629 c 1
 200 628 218 609 218 586 c 0
 218 563 200 544 177 543 c 1
 200 542 218 523 218 500 c 0
 218 477 200 458 177 457 c 1
 200 456 218 437 218 414 c 1
 218 391 200 372 177 371 c 1
 199 370 217 353 218 331 c 1x72
 219 354 238 371 261 371 c 0
 284 371 303 354 304 331 c 1x71
EndSplineSet
EndChar

StartChar: exclam
Encoding: 33 33 4
Width: 522
VWidth: 0
UnlinkRmOvrlpSave: 1
Flags: W
HStem: 200 86<52.6424 127.358> 371 86<52.8528 88 92 127.147> 457 86<52.8528 88 92 127.147> 543 86<52.8528 88 92 127.147> 629 85<52.8528 88 92 127.147> 714 86<52.8528 88 92 127.147>
VStem: 47 86<205.642 280.358 376.642 451.216 462.784 537.216 548.784 623.216 634.552 708.216 719.784 794.358>
LayerCount: 2
Back
Fore
SplineSet
133 243 m 0x82
 133 219 114 200 90 200 c 0
 66 200 47 219 47 243 c 0
 47 267 66 286 90 286 c 0
 114 286 133 267 133 243 c 0x82
133 414 m 0
 133 390 114 371 90 371 c 0
 66 371 47 390 47 414 c 0
 47 437 65 456 88 457 c 1xc2
 65 458 47 477 47 500 c 0
 47 523 65 542 88 543 c 1xa2
 65 544 47 563 47 586 c 0
 47 609 65 628 88 629 c 1x92
 65 630 47 648 47 671 c 1
 47 694 65 713 88 714 c 1x8a
 65 715 47 734 47 757 c 0
 47 781 66 800 90 800 c 0x86
 114 800 133 781 133 757 c 0
 133 734 115 715 92 714 c 1x8a
 115 713 133 694 133 671 c 0
 133 648 115 630 92 629 c 1x92
 115 628 133 609 133 586 c 1
 133 563 115 544 92 543 c 1xa2
 115 542 133 523 133 500 c 0
 133 477 115 458 92 457 c 1xc2
 115 456 133 437 133 414 c 0
EndSplineSet
EndChar

StartChar: numbersign
Encoding: 35 35 6
Width: 522
VWidth: 0
UnlinkRmOvrlpSave: 1
Flags: W
HStem: 286 85<137.853 173 177 212.147 309.853 345 349 384.147> 371 86<52.6424 126.448 137.784 173 177 212.147 309.853 345 349 384.216 395.552 469.358> 543 86<52.6424 126.448 137.784 173 177 212.147 309.853 345 349 384.216 395.552 469.358> 629 85<137.853 173 177 212.147 309.853 345 349 384.147>
VStem: 47 85<376.642 412 416 451.358 548.642 584 588 623.358> 132 86<205.642 280.216 291.784 365.448 376.784 412 416 451.147 548.853 584 588 623.216 634.552 708.216 719.784 794.358> 304 86<205.642 280.216 291.784 365.448 376.784 412 416 451.147 548.853 584 588 623.216 634.552 708.216 719.784 794.358> 390 85<376.642 412 416 451.358 548.642 584 588 623.358>
LayerCount: 2
Back
Fore
SplineSet
390 243 m 0x82
 390 219 371 200 347 200 c 0
 323 200 304 219 304 243 c 0
 304 266 322 285 345 286 c 1
 322 287 304 306 304 329 c 0
 304 352 322 370 345 371 c 1x82
 322 372 304 391 304 414 c 0
 304 438 323 457 347 457 c 0
 370 457 389 439 390 416 c 1x42
 391 439 409 457 432 457 c 0
 456 457 475 438 475 414 c 0
 475 390 456 371 432 371 c 0x41
 409 371 391 389 390 412 c 1
 389 390 371 372 349 371 c 1
 372 370 390 352 390 329 c 0
 390 306 372 287 349 286 c 1
 372 285 390 266 390 243 c 0x82
218 243 m 0x84
 218 219 199 200 175 200 c 0
 151 200 132 219 132 243 c 0
 132 266 150 285 173 286 c 1
 150 287 132 306 132 329 c 0
 132 352 150 370 173 371 c 1x84
 151 372 133 390 132 412 c 1
 131 389 113 371 90 371 c 1
 66 371 47 390 47 414 c 0
 47 438 66 457 90 457 c 0
 113 457 131 439 132 416 c 1
 133 439 152 457 175 457 c 1x48
 199 457 218 438 218 414 c 0
 218 391 200 372 177 371 c 1
 200 370 218 352 218 329 c 0
 218 306 200 287 177 286 c 1
 200 285 218 266 218 243 c 0x84
475 586 m 0x21
 475 562 456 543 432 543 c 0
 409 543 391 561 390 584 c 1
 389 561 370 543 347 543 c 0
 323 543 304 562 304 586 c 0
 304 609 322 628 345 629 c 1x22
 322 630 304 648 304 671 c 1
 304 694 322 713 345 714 c 1
 322 715 304 734 304 757 c 0
 304 781 323 800 347 800 c 0
 371 800 390 781 390 757 c 0
 390 734 372 715 349 714 c 1x12
 372 713 390 694 390 671 c 0
 390 648 372 630 349 629 c 1
 371 628 389 610 390 588 c 1x22
 391 611 409 629 432 629 c 0
 456 629 475 610 475 586 c 0x21
218 586 m 0x24
 218 562 199 543 175 543 c 0
 152 543 133 561 132 584 c 1
 131 561 113 543 90 543 c 0
 66 543 47 562 47 586 c 0
 47 610 66 629 90 629 c 0
 113 629 131 611 132 588 c 1
 133 610 151 628 173 629 c 1x28
 150 630 132 648 132 671 c 0
 132 694 150 713 173 714 c 1
 150 715 132 734 132 757 c 0
 132 781 151 800 175 800 c 0
 199 800 218 781 218 757 c 0
 218 734 200 715 177 714 c 1x14
 200 713 218 694 218 671 c 0
 218 648 200 630 177 629 c 1
 200 628 218 609 218 586 c 0x24
EndSplineSet
EndChar

StartChar: quotedbl
Encoding: 34 34 7
Width: 522
VWidth: 0
UnlinkRmOvrlpSave: 1
Flags: W
HStem: 629 85<52.8528 88 92 127.147 224.853 260 264 299.147>
VStem: 47 86<548.642 623.216 634.552 708.216 719.784 794.358> 219 86<548.642 623.216 634.552 708.216 719.784 794.358>
LayerCount: 2
Back
Fore
SplineSet
305 586 m 1
 305 562 286 543 262 543 c 0
 238 543 219 562 219 586 c 0
 219 609 237 628 260 629 c 1
 237 630 219 648 219 671 c 1
 219 694 237 713 260 714 c 1
 237 715 219 734 219 757 c 0
 219 781 238 800 262 800 c 0
 286 800 305 781 305 757 c 0
 305 734 287 715 264 714 c 1
 287 713 305 694 305 671 c 0
 305 648 287 630 264 629 c 1
 287 628 305 609 305 586 c 1
133 586 m 0
 133 562 114 543 90 543 c 0
 66 543 47 562 47 586 c 0
 47 609 65 628 88 629 c 1
 65 630 47 648 47 671 c 0
 47 694 65 713 88 714 c 1
 65 715 47 734 47 757 c 0
 47 781 66 800 90 800 c 0
 114 800 133 781 133 757 c 0
 133 734 115 715 92 714 c 1
 115 713 133 694 133 671 c 0
 133 648 115 630 92 629 c 1
 115 628 133 609 133 586 c 0
EndSplineSet
EndChar

StartChar: percent
Encoding: 37 37 8
Width: 522
VWidth: 0
UnlinkRmOvrlpSave: 1
Flags: W
HStem: 286 85<52.6424 87 92 126.42 309.853 345 349 384.479 395.289 430 435 469.358> 371 86<137.642 212.358> 457 86<223.642 298.358> 543 86<309.642 384.358> 629 85<52.6424 87 92 126.711 137.521 173 177 212.147 395.58 430 435 469.358>
VStem: 47 85<205.642 280.716 291.284 365.61 634.58 669 674 708.711 719.521 755 759 794.358> 132 86<376.642 451.358 634.58 669 674 708.216 719.784 755 759 794.147> 218 86<462.642 537.358> 304 86<205.853 241 245 280.216 291.784 326 331 365.42 548.642 623.358> 390 85<205.642 241 245 280.479 291.289 326 331 365.42 634.39 708.716 719.284 794.358>
LayerCount: 2
Back
Fore
SplineSet
475 243 m 0x8040
 475 219 456 200 432 200 c 0
 409 200 391 218 390 241 c 1
 389 218 370 200 347 200 c 1
 323 200 304 219 304 243 c 0
 304 266 322 285 345 286 c 1x8080
 322 287 304 306 304 329 c 0
 304 353 323 371 347 371 c 0
 370 371 389 354 390 331 c 1
 391 354 409 371 432 371 c 0x4080
 456 371 475 353 475 329 c 0
 475 306 458 287 435 286 c 1
 458 285 475 266 475 243 c 0x8040
132 243 m 0x84
 132 219 114 200 90 200 c 0
 66 200 47 219 47 243 c 0
 47 266 64 285 87 286 c 1x84
 64 287 47 306 47 329 c 0
 47 353 66 371 90 371 c 0x44
 114 371 132 353 132 329 c 0
 132 306 115 287 92 286 c 1
 115 285 132 266 132 243 c 0x84
218 414 m 0x42
 218 390 199 371 175 371 c 0
 151 371 132 390 132 414 c 0
 132 438 151 457 175 457 c 0
 199 457 218 438 218 414 c 0x42
304 500 m 0x21
 304 476 285 457 261 457 c 0
 237 457 218 476 218 500 c 0
 218 524 237 543 261 543 c 0
 285 543 304 524 304 500 c 0x21
390 586 m 0x1080
 390 562 371 543 347 543 c 0
 323 543 304 562 304 586 c 0
 304 610 323 629 347 629 c 0
 371 629 390 610 390 586 c 0x1080
475 671 m 0x0840
 475 647 456 629 432 629 c 0
 408 629 390 647 390 671 c 0
 390 694 407 713 430 714 c 1
 407 715 390 734 390 757 c 0
 390 781 408 800 432 800 c 0
 456 800 475 781 475 757 c 0
 475 734 458 715 435 714 c 1
 458 713 475 694 475 671 c 0x0840
218 671 m 0x0d
 218 647 199 629 175 629 c 0
 152 629 133 646 132 669 c 1
 131 646 113 629 90 629 c 0
 66 629 47 647 47 671 c 0
 47 694 64 713 87 714 c 1
 64 715 47 734 47 757 c 0
 47 781 66 800 90 800 c 0
 113 800 131 782 132 759 c 1
 133 782 152 800 175 800 c 0
 199 800 218 781 218 757 c 0
 218 734 200 715 177 714 c 1
 200 713 218 694 218 671 c 0x0d
390 245 m 1x8080
 391 267 408 285 430 286 c 1
 408 287 391 304 390 326 c 1
 389 304 371 287 349 286 c 1
 371 285 389 267 390 245 c 1x8080
132 674 m 1x0c
 133 696 151 713 173 714 c 1
 151 715 133 733 132 755 c 1
 131 733 114 715 92 714 c 1
 114 713 131 696 132 674 c 1x0c
EndSplineSet
EndChar

StartChar: dollar
Encoding: 36 36 9
Width: 522
VWidth: 0
UnlinkRmOvrlpSave: 1
Flags: W
HStem: 286 85<52.6424 126.928 137.284 212.716 223.521 259 263 298.479 309.284 384.358> 371 86<395.39 469.358> 457 86<137.642 212.216 223.784 298.216 309.784 384.358> 543 86<52.6424 126.61> 629 85<137.642 212.716 223.521 259 263 298.479 309.284 384.716 395.072 469.358>
VStem: 47 85<291.642 326 331 365.42 548.642 623.358> 218 86<205.642 280.216 291.289 326 331 365.42 462.853 498 502 537.147 634.58 669 674 708.711 719.784 794.358> 304 86<291.642 326 331 365.42 462.853 498 502 537.147 634.58 669 674 708.42> 390 85<376.642 451.358 634.58 669 674 708.358>
LayerCount: 2
Back
Fore
SplineSet
304 243 m 0x8680
 304 219 285 200 261 200 c 0
 237 200 218 219 218 243 c 0
 218 266 236 285 259 286 c 1
 237 287 219 304 218 326 c 1
 217 303 198 286 175 286 c 0
 152 286 133 303 132 326 c 1
 131 303 113 286 90 286 c 1
 66 286 47 305 47 329 c 0
 47 353 66 371 90 371 c 0
 113 371 131 354 132 331 c 1
 133 354 152 371 175 371 c 1x8680
 198 371 217 354 218 331 c 1
 219 354 238 371 261 371 c 0x4680
 284 371 303 354 304 331 c 1
 305 354 324 371 347 371 c 0
 371 371 390 353 390 329 c 0
 390 305 371 286 347 286 c 0
 324 286 305 303 304 326 c 1
 303 304 285 287 263 286 c 1
 286 285 304 266 304 243 c 0x8680
475 414 m 0
 475 390 456 371 432 371 c 0
 408 371 390 390 390 414 c 0
 390 438 408 457 432 457 c 0x4480
 456 457 475 438 475 414 c 0
390 500 m 0
 390 476 371 457 347 457 c 0
 324 457 305 475 304 498 c 1
 303 475 284 457 261 457 c 0
 238 457 219 475 218 498 c 1
 217 475 198 457 175 457 c 0
 151 457 132 476 132 500 c 0
 132 524 151 543 175 543 c 0
 198 543 217 525 218 502 c 1
 219 525 238 543 261 543 c 0
 284 543 303 525 304 502 c 1
 305 525 324 543 347 543 c 0x2680
 371 543 390 524 390 500 c 0
132 586 m 0
 132 562 114 543 90 543 c 0
 66 543 47 562 47 586 c 0
 47 610 66 629 90 629 c 0x14
 114 629 132 610 132 586 c 0
475 671 m 0x0c80
 475 647 456 629 432 629 c 0
 409 629 391 646 390 669 c 1x0d
 389 646 370 629 347 629 c 0
 324 629 305 646 304 669 c 1
 303 646 284 629 261 629 c 0
 238 629 219 646 218 669 c 1
 217 646 198 629 175 629 c 0
 151 629 132 647 132 671 c 0
 132 695 151 714 175 714 c 0
 198 714 217 697 218 674 c 1
 219 696 237 713 259 714 c 1
 236 715 218 734 218 757 c 0
 218 781 237 800 261 800 c 0
 285 800 304 781 304 757 c 0
 304 734 286 715 263 714 c 1
 285 713 303 696 304 674 c 1x0e
 305 697 324 714 347 714 c 0
 370 714 389 697 390 674 c 1x0d
 391 697 409 714 432 714 c 0
 456 714 475 695 475 671 c 0x0c80
EndSplineSet
EndChar

StartChar: quotesingle
Encoding: 39 39 10
Width: 522
VWidth: 0
UnlinkRmOvrlpSave: 1
Flags: W
HStem: 629 85<52.8528 88 92 127.479 138.521 174 178 213.147>
VStem: 47 86<548.853 584 588 623.216 634.552 669 674 708.216 719.784 755 759 794.147> 133 86<548.853 584 588 623.216 634.552 669 674 708.216 719.784 755 759 794.147>
LayerCount: 2
Back
Fore
SplineSet
219 586 m 1xa0
 219 562 200 543 176 543 c 0
 153 543 134 561 133 584 c 1
 132 561 113 543 90 543 c 0
 66 543 47 562 47 586 c 0
 47 609 65 628 88 629 c 1
 65 630 47 648 47 671 c 0
 47 694 65 713 88 714 c 1
 65 715 47 734 47 757 c 0
 47 781 66 800 90 800 c 0
 113 800 132 782 133 759 c 1xc0
 134 782 153 800 176 800 c 0
 200 800 219 781 219 757 c 0
 219 734 201 715 178 714 c 1
 201 713 219 694 219 671 c 0
 219 648 201 630 178 629 c 1
 201 628 219 609 219 586 c 1xa0
133 588 m 1
 134 610 152 628 174 629 c 1
 152 630 134 647 133 669 c 1
 132 647 114 630 92 629 c 1
 114 628 132 610 133 588 c 1
133 674 m 1
 134 696 152 713 174 714 c 1
 152 715 134 733 133 755 c 1
 132 733 114 715 92 714 c 1
 114 713 132 696 133 674 c 1
EndSplineSet
EndChar

StartChar: ampersand
Encoding: 38 38 11
Width: 522
VWidth: 0
UnlinkRmOvrlpSave: 1
Flags: W
HStem: 200 86<137.642 212.216 223.784 298.358 395.39 469.358> 286 85<52.6424 87 92 126.42 309.642 384.358> 371 86<52.6424 87 92 126.42 223.642 298.358 395.39 469.358> 457 86<137.642 212.358> 629 85<52.6424 87 92 126.42 223.642 259 263 298.358> 714 86<137.642 212.358>
VStem: 47 85<291.642 365.928 376.284 451.358 548.642 623.716 634.072 708.358> 132 86<205.853 241 245 280.147 462.642 537.358 719.642 794.358> 218 86<205.853 241 245 280.147 376.642 451.358 548.642 623.216 634.552 708.358> 304 86<291.642 365.61> 390 85<205.642 280.358 376.642 451.358>
LayerCount: 2
Back
Fore
SplineSet
475 243 m 0x8020
 475 219 456 200 432 200 c 0
 408 200 390 219 390 243 c 0
 390 267 408 286 432 286 c 0
 456 286 475 267 475 243 c 0x8020
304 243 m 0x8140
 304 219 285 200 261 200 c 0
 238 200 219 218 218 241 c 1
 217 218 198 200 175 200 c 0
 151 200 132 219 132 243 c 0
 132 267 151 286 175 286 c 0
 198 286 217 268 218 245 c 1
 219 268 238 286 261 286 c 0
 285 286 304 267 304 243 c 0x8140
390 329 m 0
 390 305 371 286 347 286 c 0
 323 286 304 305 304 329 c 0
 304 353 323 371 347 371 c 0x4040
 371 371 390 353 390 329 c 0
132 329 m 0x52
 132 305 114 286 90 286 c 0
 66 286 47 305 47 329 c 0
 47 352 64 370 87 371 c 1
 64 372 47 391 47 414 c 0
 47 438 66 457 90 457 c 0
 114 457 132 438 132 414 c 0
 132 391 115 372 92 371 c 1
 115 370 132 352 132 329 c 0x52
475 414 m 0x2020
 475 390 456 371 432 371 c 0
 408 371 390 390 390 414 c 0
 390 438 408 457 432 457 c 0
 456 457 475 438 475 414 c 0x2020
304 414 m 0x2080
 304 390 285 371 261 371 c 0
 237 371 218 390 218 414 c 0
 218 438 237 457 261 457 c 0
 285 457 304 438 304 414 c 0x2080
218 500 m 0x11
 218 476 199 457 175 457 c 0
 151 457 132 476 132 500 c 0
 132 524 151 543 175 543 c 0
 199 543 218 524 218 500 c 0x11
304 586 m 1x0880
 304 562 285 543 261 543 c 0
 237 543 218 562 218 586 c 0
 218 609 236 628 259 629 c 1x1880
 236 630 218 648 218 671 c 0
 218 695 237 714 261 714 c 0x0480
 285 714 304 695 304 671 c 0
 304 648 286 630 263 629 c 1
 286 628 304 609 304 586 c 1x0880
132 586 m 0x0a
 132 562 114 543 90 543 c 0
 66 543 47 562 47 586 c 0
 47 609 64 628 87 629 c 1x1a
 64 630 47 648 47 671 c 0
 47 695 66 714 90 714 c 0x06
 114 714 132 695 132 671 c 0
 132 648 115 630 92 629 c 1
 115 628 132 609 132 586 c 0x0a
218 757 m 0x05
 218 733 199 714 175 714 c 0
 151 714 132 733 132 757 c 0
 132 781 151 800 175 800 c 0
 199 800 218 781 218 757 c 0x05
EndSplineSet
EndChar

StartChar: parenright
Encoding: 41 41 12
Width: 522
VWidth: 0
UnlinkRmOvrlpSave: 1
Flags: W
HStem: 200 86<52.6424 127.358> 286 85<138.642 213.358> 371 86<224.853 260 264 299.147> 457 86<224.853 260 264 299.147> 543 86<224.853 260 264 299.147> 629 85<138.642 213.358> 714 86<52.6424 127.358>
VStem: 47 86<205.642 280.358 719.642 794.358> 133 86<291.642 365.61 634.39 708.358> 219 86<376.642 451.216 462.784 537.216 548.784 623.358>
LayerCount: 2
Back
Fore
SplineSet
133 243 m 0x81
 133 219 114 200 90 200 c 0
 66 200 47 219 47 243 c 0
 47 267 66 286 90 286 c 0
 114 286 133 267 133 243 c 0x81
219 329 m 0x4080
 219 305 200 286 176 286 c 0
 152 286 133 305 133 329 c 0
 133 353 152 371 176 371 c 0
 200 371 219 353 219 329 c 0x4080
305 414 m 0x2040
 305 390 286 371 262 371 c 0
 238 371 219 390 219 414 c 0
 219 437 237 456 260 457 c 1x2040
 237 458 219 477 219 500 c 0
 219 523 237 542 260 543 c 1
 237 544 219 563 219 586 c 0
 219 610 238 629 262 629 c 0
 286 629 305 610 305 586 c 0
 305 563 287 544 264 543 c 1x1440
 287 542 305 523 305 500 c 0
 305 477 287 458 264 457 c 1
 287 456 305 437 305 414 c 0x2040
219 671 m 0x0480
 219 647 200 629 176 629 c 0
 152 629 133 647 133 671 c 0
 133 695 152 714 176 714 c 0
 200 714 219 695 219 671 c 0x0480
133 757 m 0x03
 133 733 114 714 90 714 c 0
 66 714 47 733 47 757 c 0
 47 781 66 800 90 800 c 0
 114 800 133 781 133 757 c 0x03
EndSplineSet
EndChar

StartChar: parenleft
Encoding: 40 40 13
Width: 522
VWidth: 0
UnlinkRmOvrlpSave: 1
Flags: W
HStem: 200 86<224.642 299.358> 286 85<138.642 213.358> 371 86<52.8528 88 92 127.147> 457 86<52.8528 88 92 127.147> 543 86<52.8528 88 92 127.147> 629 85<138.642 213.358> 714 86<224.642 299.358>
VStem: 47 86<376.642 451.216 462.784 537.216 548.784 623.358> 133 86<291.642 365.61 634.39 708.358> 219 86<205.642 280.358 719.642 794.358>
LayerCount: 2
Back
Fore
SplineSet
305 243 m 0x8040
 305 219 286 200 262 200 c 0
 238 200 219 219 219 243 c 0
 219 267 238 286 262 286 c 0
 286 286 305 267 305 243 c 0x8040
219 329 m 0x4080
 219 305 200 286 176 286 c 0
 152 286 133 305 133 329 c 0
 133 353 152 371 176 371 c 0
 200 371 219 353 219 329 c 0x4080
133 414 m 1x21
 133 390 114 371 90 371 c 0
 66 371 47 390 47 414 c 0
 47 437 65 456 88 457 c 1x21
 65 458 47 477 47 500 c 1
 47 523 65 542 88 543 c 1
 65 544 47 563 47 586 c 0
 47 610 66 629 90 629 c 0
 114 629 133 610 133 586 c 0
 133 563 115 544 92 543 c 1x15
 115 542 133 523 133 500 c 0
 133 477 115 458 92 457 c 1
 115 456 133 437 133 414 c 1x21
219 671 m 0x0480
 219 647 200 629 176 629 c 0
 152 629 133 647 133 671 c 0
 133 695 152 714 176 714 c 0
 200 714 219 695 219 671 c 0x0480
305 757 m 0x0240
 305 733 286 714 262 714 c 0
 238 714 219 733 219 757 c 0
 219 781 238 800 262 800 c 0
 286 800 305 781 305 757 c 0x0240
EndSplineSet
EndChar

StartChar: plus
Encoding: 43 43 14
Width: 522
VWidth: 0
UnlinkRmOvrlpSave: 1
Flags: W
HStem: 286 85<223.642 259 263 298.358> 371 86<223.853 259 263 298.147> 457 86<52.6424 126.448 137.784 212.216 223.521 259 263 298.479 309.784 384.216 395.552 469.358> 629 85<223.642 259 263 298.358>
VStem: 47 85<462.642 498 502 537.358> 218 86<291.642 365.448 376.784 451.216 462.521 498 502 537.479 548.784 623.216 634.552 708.358> 390 85<462.642 498 502 537.358>
CounterMasks: 1 0e
LayerCount: 2
Back
Fore
SplineSet
304 329 m 0x9e
 304 305 285 286 261 286 c 0
 237 286 218 305 218 329 c 0
 218 352 236 370 259 371 c 1x9e
 236 372 218 391 218 414 c 0
 218 437 236 456 259 457 c 1x5e
 237 458 219 476 218 498 c 1
 217 475 198 457 175 457 c 0
 152 457 133 475 132 498 c 1
 131 475 113 457 90 457 c 1
 66 457 47 476 47 500 c 0
 47 524 66 543 90 543 c 0
 113 543 131 525 132 502 c 1
 133 525 152 543 175 543 c 1
 198 543 217 525 218 502 c 1
 219 524 237 542 259 543 c 1
 236 544 218 563 218 586 c 0
 218 609 236 628 259 629 c 1
 236 630 218 648 218 671 c 0
 218 695 237 714 261 714 c 0
 285 714 304 695 304 671 c 0
 304 648 286 630 263 629 c 1
 286 628 304 609 304 586 c 1
 304 563 286 544 263 543 c 1
 285 542 303 524 304 502 c 1
 305 525 324 543 347 543 c 0
 370 543 389 525 390 502 c 1
 391 525 409 543 432 543 c 0
 456 543 475 524 475 500 c 0
 475 476 456 457 432 457 c 0
 409 457 391 475 390 498 c 1
 389 475 370 457 347 457 c 0x3e
 324 457 305 475 304 498 c 1
 303 476 285 458 263 457 c 1x5e
 286 456 304 437 304 414 c 1
 304 391 286 372 263 371 c 1
 286 370 304 352 304 329 c 0x9e
EndSplineSet
EndChar

StartChar: asterisk
Encoding: 42 42 15
Width: 522
VWidth: 0
UnlinkRmOvrlpSave: 1
Flags: W
HStem: 371 86<52.6424 126.61 223.853 259 263 298.147 395.39 469.358> 457 86<66 113 137.853 173 177 212.216 223.521 259 263 298.479 309.784 345 349 384.147 409 456> 543 86<52.6424 126.448 137.521 173 177 212.479 223.521 259 263 298.479 309.521 345 349 384.479 395.552 469.358> 629 85<137.642 173 177 212.479 223.521 259 263 298.479 309.521 345 349 384.358> 714 86<52.6424 126.61 223.853 259 263 298.147 395.39 469.358>
VStem: 47 85<376.642 451.358 548.642 584 588 623.358 719.642 794.358> 218 86<376.642 451.216 462.521 498 502 537.479 548.521 584 588 623.479 634.289 669 674 708.711 719.784 794.358> 304 86<390 437 462.853 498 502 537.216 548.521 584 588 623.479 634.552 669 674 708.358 734 781> 390 85<376.642 451.358 548.642 584 588 623.358 719.642 794.358>
LayerCount: 2
Back
Fore
SplineSet
475 414 m 0x8480
 475 390 456 371 432 371 c 0
 408 371 390 390 390 414 c 0x85
 390 438 408 457 432 457 c 0
 456 457 475 438 475 414 c 0x8480
304 414 m 1x8680
 304 390 285 371 261 371 c 0
 237 371 218 390 218 414 c 0
 218 437 236 456 259 457 c 1x8680
 237 458 219 476 218 498 c 1
 217 475 198 457 175 457 c 0
 151 457 132 476 132 500 c 0
 132 523 150 542 173 543 c 1
 151 544 133 562 132 584 c 1
 131 561 113 543 90 543 c 0x4680
 66 543 47 562 47 586 c 0
 47 610 66 629 90 629 c 0
 113 629 131 611 132 588 c 1
 133 610 151 628 173 629 c 1
 150 630 132 648 132 671 c 0
 132 695 151 714 175 714 c 0x2e80
 198 714 217 697 218 674 c 1
 219 696 237 713 259 714 c 1x1680
 236 715 218 734 218 757 c 0
 218 781 237 800 261 800 c 0x0e80
 285 800 304 781 304 757 c 0
 304 734 286 715 263 714 c 1x1680
 285 713 303 696 304 674 c 1
 305 697 324 714 347 714 c 0
 371 714 390 695 390 671 c 0x0e80
 390 648 372 630 349 629 c 1
 371 628 389 610 390 588 c 1x2d
 391 611 409 629 432 629 c 0
 456 629 475 610 475 586 c 0x2c80
 475 562 456 543 432 543 c 0
 409 543 391 561 390 584 c 1x45
 389 562 371 544 349 543 c 1
 372 542 390 523 390 500 c 0
 390 476 371 457 347 457 c 0x4480
 324 457 305 475 304 498 c 1
 303 476 285 458 263 457 c 1
 286 456 304 437 304 414 c 1x8680
132 414 m 0
 132 390 114 371 90 371 c 0
 66 371 47 390 47 414 c 0
 47 438 66 457 90 457 c 0
 114 457 132 438 132 414 c 0
475 757 m 0
 475 733 456 714 432 714 c 0
 408 714 390 733 390 757 c 0
 390 781 408 800 432 800 c 0x0d
 456 800 475 781 475 757 c 0
132 757 m 0
 132 733 114 714 90 714 c 0
 66 714 47 733 47 757 c 0
 47 781 66 800 90 800 c 0
 114 800 132 781 132 757 c 0
304 502 m 1x46
 305 524 323 542 345 543 c 1
 323 544 305 562 304 584 c 1
 303 562 285 544 263 543 c 1
 285 542 303 524 304 502 c 1x46
218 502 m 1
 219 524 237 542 259 543 c 1
 237 544 219 562 218 584 c 1
 217 562 199 544 177 543 c 1
 199 542 217 524 218 502 c 1
304 588 m 1
 305 610 323 628 345 629 c 1
 323 630 305 647 304 669 c 1
 303 647 285 630 263 629 c 1x26
 285 628 303 610 304 588 c 1
218 588 m 1
 219 610 237 628 259 629 c 1
 237 630 219 647 218 669 c 1
 217 647 199 630 177 629 c 1
 199 628 217 610 218 588 c 1
EndSplineSet
EndChar

StartChar: hyphen
Encoding: 45 45 16
Width: 522
VWidth: 0
UnlinkRmOvrlpSave: 1
Flags: W
HStem: 371 86<52.6424 126.448 137.784 212.216 223.784 298.216 309.784 384.216 395.552 469.358>
VStem: 47 85<376.642 412 416 451.358> 132 86<376.853 412 416 451.147> 218 86<376.853 412 416 451.147> 304 86<376.853 412 416 451.147> 390 85<376.642 412 416 451.358>
LayerCount: 2
Back
Fore
SplineSet
475 414 m 0x84
 475 390 456 371 432 371 c 0
 409 371 391 389 390 412 c 1x88
 389 389 370 371 347 371 c 0
 324 371 305 389 304 412 c 1x90
 303 389 284 371 261 371 c 0
 238 371 219 389 218 412 c 1xa0
 217 389 198 371 175 371 c 0
 152 371 133 389 132 412 c 1
 131 389 113 371 90 371 c 1
 66 371 47 390 47 414 c 0
 47 438 66 457 90 457 c 0
 113 457 131 439 132 416 c 1xc0
 133 439 152 457 175 457 c 1
 198 457 217 439 218 416 c 1xa0
 219 439 238 457 261 457 c 0
 284 457 303 439 304 416 c 1x90
 305 439 324 457 347 457 c 0
 370 457 389 439 390 416 c 1x88
 391 439 409 457 432 457 c 0
 456 457 475 438 475 414 c 0x84
EndSplineSet
EndChar

StartChar: comma
Encoding: 44 44 17
Width: 522
VWidth: 0
UnlinkRmOvrlpSave: 1
Flags: W
HStem: 200 86<52.6424 127.358> 286 85<138.642 174 178 213.358> 371 86<52.8528 88 92 127.216 138.521 174 178 213.147> 457 86<52.8528 88 92 127.216 138.784 174 178 213.147>
VStem: 47 86<205.642 280.358 376.853 412 416 451.216 462.784 498 502 537.147> 133 86<291.642 365.448 376.784 412 416 451.216 462.784 498 502 537.147>
LayerCount: 2
Back
Fore
SplineSet
133 243 m 0x88
 133 219 114 200 90 200 c 0
 66 200 47 219 47 243 c 0
 47 267 66 286 90 286 c 0
 114 286 133 267 133 243 c 0x88
219 329 m 0x44
 219 305 200 286 176 286 c 0
 152 286 133 305 133 329 c 0
 133 352 151 370 174 371 c 1x44
 152 372 134 390 133 412 c 1
 132 389 113 371 90 371 c 0
 66 371 47 390 47 414 c 0
 47 437 65 456 88 457 c 1x28
 65 458 47 477 47 500 c 1
 47 524 66 543 90 543 c 0
 113 543 132 525 133 502 c 1
 134 525 153 543 176 543 c 0x18
 200 543 219 524 219 500 c 0
 219 477 201 458 178 457 c 1x24
 201 456 219 437 219 414 c 1
 219 391 201 372 178 371 c 1
 201 370 219 352 219 329 c 0x44
133 416 m 1x28
 134 438 152 456 174 457 c 1
 152 458 134 476 133 498 c 1
 132 476 114 458 92 457 c 1
 114 456 132 438 133 416 c 1x28
EndSplineSet
EndChar

StartChar: slash
Encoding: 47 47 18
Width: 522
VWidth: 0
UnlinkRmOvrlpSave: 1
Flags: W
HStem: 286 85<52.6424 126.61> 371 86<137.642 212.358> 457 86<223.642 298.358> 543 86<309.642 384.358> 629 85<395.39 469.358>
VStem: 47 85<291.642 365.61> 132 86<376.642 451.358> 218 86<462.642 537.358> 304 86<548.642 623.358> 390 85<634.39 708.358>
LayerCount: 2
Back
Fore
SplineSet
132 329 m 0x84
 132 305 114 286 90 286 c 0
 66 286 47 305 47 329 c 0
 47 353 66 371 90 371 c 0
 114 371 132 353 132 329 c 0x84
218 414 m 0x42
 218 390 199 371 175 371 c 0
 151 371 132 390 132 414 c 0
 132 438 151 457 175 457 c 0
 199 457 218 438 218 414 c 0x42
304 500 m 0x21
 304 476 285 457 261 457 c 0
 237 457 218 476 218 500 c 0
 218 524 237 543 261 543 c 0
 285 543 304 524 304 500 c 0x21
390 586 m 0x1080
 390 562 371 543 347 543 c 0
 323 543 304 562 304 586 c 0
 304 610 323 629 347 629 c 0
 371 629 390 610 390 586 c 0x1080
475 671 m 0x0840
 475 647 456 629 432 629 c 0
 408 629 390 647 390 671 c 0
 390 695 408 714 432 714 c 0
 456 714 475 695 475 671 c 0x0840
EndSplineSet
EndChar

StartChar: period
Encoding: 46 46 19
Width: 522
VWidth: 0
UnlinkRmOvrlpSave: 1
Flags: W
HStem: 286 85<52.8528 88 92 127.479 138.521 174 178 213.147>
VStem: 47 86<205.853 241 245 280.216 291.784 326 331 365.42> 133 86<205.853 241 245 280.216 291.784 326 331 365.42>
LayerCount: 2
Back
Fore
SplineSet
219 243 m 0xa0
 219 219 200 200 176 200 c 0
 153 200 134 218 133 241 c 1
 132 218 113 200 90 200 c 0
 66 200 47 219 47 243 c 0
 47 266 65 285 88 286 c 1
 65 287 47 306 47 329 c 0
 47 353 66 371 90 371 c 0
 113 371 132 354 133 331 c 1xc0
 134 354 153 371 176 371 c 0
 200 371 219 353 219 329 c 0
 219 306 201 287 178 286 c 1
 201 285 219 266 219 243 c 0xa0
133 245 m 1
 134 267 152 285 174 286 c 1
 152 287 134 304 133 326 c 1
 132 304 114 287 92 286 c 1
 114 285 132 267 133 245 c 1
EndSplineSet
EndChar

StartChar: one
Encoding: 49 49 20
Width: 522
VWidth: 0
UnlinkRmOvrlpSave: 1
Flags: W
HStem: 200 86<52.6424 127.216 138.784 174 178 213.216 224.784 299.358> 286 85<138.853 174 178 213.147> 371 86<138.853 174 178 213.147> 457 86<138.853 174 178 213.147> 629 85<52.6424 127.716 138.521 174 178 213.147>
VStem: 47 86<205.853 241 245 280.147 634.58 669 674 708.358> 133 86<205.853 241 245 280.479 291.784 365.448 376.784 451.216 462.784 537.216 548.784 623.216 634.552 669 674 708.216 719.784 794.358> 219 86<205.853 241 245 280.147>
LayerCount: 2
Back
Fore
SplineSet
305 243 m 0x89
 305 219 286 200 262 200 c 0
 239 200 220 218 219 241 c 1x8a
 218 218 199 200 176 200 c 1
 153 200 134 218 133 241 c 1
 132 218 113 200 90 200 c 0
 66 200 47 219 47 243 c 0
 47 267 66 286 90 286 c 0
 113 286 132 268 133 245 c 1
 134 267 152 285 174 286 c 1x8c
 151 287 133 306 133 329 c 0
 133 352 151 370 174 371 c 1x4a
 151 372 133 391 133 414 c 0
 133 437 151 456 174 457 c 1x2a
 151 458 133 477 133 500 c 1
 133 523 151 542 174 543 c 1
 151 544 133 563 133 586 c 0x1a
 133 609 151 628 174 629 c 1
 152 630 134 647 133 669 c 1
 132 646 113 629 90 629 c 0
 66 629 47 647 47 671 c 0
 47 695 66 714 90 714 c 0
 113 714 132 697 133 674 c 1x1c
 134 696 152 713 174 714 c 1
 151 715 133 734 133 757 c 0
 133 781 152 800 176 800 c 0
 200 800 219 781 219 757 c 0x1a
 219 734 201 715 178 714 c 1
 201 713 219 694 219 671 c 0x19
 219 648 201 630 178 629 c 1
 201 628 219 609 219 586 c 1
 219 563 201 544 178 543 c 1x1a
 201 542 219 523 219 500 c 0
 219 477 201 458 178 457 c 1x2a
 201 456 219 437 219 414 c 1
 219 391 201 372 178 371 c 1x4a
 201 370 219 352 219 329 c 0
 219 306 201 287 178 286 c 1
 200 285 218 267 219 245 c 1x8a
 220 268 239 286 262 286 c 0
 286 286 305 267 305 243 c 0x89
EndSplineSet
EndChar

StartChar: zero
Encoding: 48 48 21
Width: 522
VWidth: 0
UnlinkRmOvrlpSave: 1
Flags: W
HStem: 200 86<138.642 213.216 224.784 299.358> 286 85<52.6424 88 92 127.358 310.58 345 350 384.358> 457 86<52.8528 88 92 127.147 310.58 345 350 384.42> 629 85<52.6424 88 92 127.358 310.58 345 350 384.358> 714 86<138.642 213.216 224.784 299.358>
VStem: 47 86<291.642 365.448 376.784 451.216 462.784 537.216 548.784 623.216 634.552 708.358> 133 86<205.853 241 245 280.147 719.853 755 759 794.147> 219 86<205.853 241 245 280.147 719.853 755 759 794.147> 305 85<291.642 365.928 376.284 451.716 462.284 537.716 548.284 623.716 634.072 708.358>
LayerCount: 2
Back
Fore
SplineSet
305 243 m 0xa280
 305 219 286 200 262 200 c 0
 239 200 220 218 219 241 c 1
 218 218 199 200 176 200 c 1
 152 200 133 219 133 243 c 0
 133 267 152 286 176 286 c 0
 199 286 218 268 219 245 c 1
 220 268 239 286 262 286 c 0
 286 286 305 267 305 243 c 0xa280
390 329 m 0
 390 305 371 286 347 286 c 0
 323 286 305 305 305 329 c 0
 305 352 322 370 345 371 c 1
 322 372 305 391 305 414 c 0
 305 437 322 456 345 457 c 1
 322 458 305 477 305 500 c 0
 305 523 322 542 345 543 c 1
 322 544 305 563 305 586 c 0
 305 609 322 628 345 629 c 1x7080
 322 630 305 648 305 671 c 1
 305 695 323 714 347 714 c 0x2880
 371 714 390 695 390 671 c 0
 390 648 373 630 350 629 c 1
 373 628 390 609 390 586 c 1
 390 563 373 544 350 543 c 1
 373 542 390 523 390 500 c 0
 390 477 373 458 350 457 c 1
 373 456 390 437 390 414 c 0
 390 391 373 372 350 371 c 1x7080
 373 370 390 352 390 329 c 0
133 329 m 0x74
 133 305 114 286 90 286 c 0
 66 286 47 305 47 329 c 0
 47 352 65 370 88 371 c 1
 65 372 47 391 47 414 c 0
 47 437 65 456 88 457 c 1
 65 458 47 477 47 500 c 1
 47 523 65 542 88 543 c 1
 65 544 47 563 47 586 c 0
 47 609 65 628 88 629 c 1x74
 65 630 47 648 47 671 c 0
 47 695 66 714 90 714 c 0x2c
 114 714 133 695 133 671 c 0
 133 648 115 630 92 629 c 1
 115 628 133 609 133 586 c 0
 133 563 115 544 92 543 c 1
 115 542 133 523 133 500 c 0
 133 477 115 458 92 457 c 1
 115 456 133 437 133 414 c 1
 133 391 115 372 92 371 c 1
 115 370 133 352 133 329 c 0x74
305 757 m 0x2a80
 305 733 286 714 262 714 c 0
 239 714 220 732 219 755 c 1
 218 732 199 714 176 714 c 0
 152 714 133 733 133 757 c 0
 133 781 152 800 176 800 c 0
 199 800 218 782 219 759 c 1
 220 782 239 800 262 800 c 0
 286 800 305 781 305 757 c 0x2a80
EndSplineSet
EndChar

StartChar: three
Encoding: 51 51 22
Width: 522
VWidth: 0
UnlinkRmOvrlpSave: 1
Flags: W
HStem: 200 86<137.642 212.216 223.784 298.216 309.784 384.358> 286 85<52.6424 126.61 395.58 430 435 469.358> 457 86<223.642 298.216 309.784 384.358> 629 85<52.6424 126.61 395.58 430 435 469.358> 714 86<137.642 212.216 223.784 298.216 309.784 384.358>
VStem: 47 85<291.642 365.61 634.39 708.358> 132 86<205.853 241 245 280.147 719.853 755 759 794.147> 218 86<205.853 241 245 280.147 462.853 498 502 537.147 719.853 755 759 794.147> 304 86<205.853 241 245 280.147 462.853 498 502 537.147 719.853 755 759 794.147> 390 85<291.642 365.928 376.284 451.358 548.642 623.716 634.072 708.358>
LayerCount: 2
Back
Fore
SplineSet
390 243 m 0xa140
 390 219 371 200 347 200 c 0
 324 200 305 218 304 241 c 1xa140
 303 218 284 200 261 200 c 1
 238 200 219 218 218 241 c 1
 217 218 198 200 175 200 c 0
 151 200 132 219 132 243 c 0
 132 267 151 286 175 286 c 0
 198 286 217 268 218 245 c 1xa2
 219 268 238 286 261 286 c 0
 284 286 303 268 304 245 c 1
 305 268 324 286 347 286 c 0
 371 286 390 267 390 243 c 0xa140
475 329 m 0
 475 305 456 286 432 286 c 0
 408 286 390 305 390 329 c 0
 390 352 407 370 430 371 c 1
 407 372 390 391 390 414 c 0
 390 438 408 457 432 457 c 0
 456 457 475 438 475 414 c 0
 475 391 458 372 435 371 c 1x6040
 458 370 475 352 475 329 c 0
132 329 m 0x64
 132 305 114 286 90 286 c 0
 66 286 47 305 47 329 c 0
 47 353 66 371 90 371 c 0
 114 371 132 353 132 329 c 0x64
390 500 m 0x2140
 390 476 371 457 347 457 c 0
 324 457 305 475 304 498 c 1
 303 475 284 457 261 457 c 0
 237 457 218 476 218 500 c 0
 218 524 237 543 261 543 c 0
 284 543 303 525 304 502 c 1
 305 525 324 543 347 543 c 0
 371 543 390 524 390 500 c 0x2140
475 586 m 1
 475 562 456 543 432 543 c 0
 408 543 390 562 390 586 c 0
 390 609 407 628 430 629 c 1x3040
 407 630 390 648 390 671 c 1
 390 695 408 714 432 714 c 0x2840
 456 714 475 695 475 671 c 0
 475 648 458 630 435 629 c 1x3040
 458 628 475 609 475 586 c 1
132 671 m 0x34
 132 647 114 629 90 629 c 0
 66 629 47 647 47 671 c 0
 47 695 66 714 90 714 c 0
 114 714 132 695 132 671 c 0x34
390 757 m 0x2940
 390 733 371 714 347 714 c 0
 324 714 305 732 304 755 c 1x2940
 303 732 284 714 261 714 c 0
 238 714 219 732 218 755 c 1
 217 732 198 714 175 714 c 0
 151 714 132 733 132 757 c 0
 132 781 151 800 175 800 c 0
 198 800 217 782 218 759 c 1x2a
 219 782 238 800 261 800 c 0
 284 800 303 782 304 759 c 1
 305 782 324 800 347 800 c 0
 371 800 390 781 390 757 c 0x2940
EndSplineSet
EndChar

StartChar: two
Encoding: 50 50 23
Width: 522
VWidth: 0
UnlinkRmOvrlpSave: 1
Flags: W
HStem: 200 86<52.6424 87 92 126.448 137.784 212.216 223.784 298.216 309.784 384.216 395.552 469.358> 286 85<52.5796 87 92 126.42> 371 86<52.6424 87 92 126.42> 457 86<137.642 212.216 223.784 298.216 309.784 384.358> 629 85<52.6424 126.61 395.58 430 435 469.358> 714 86<137.642 212.216 223.784 298.216 309.784 384.358>
VStem: 47 85<205.642 241 245 280.479 291.284 365.928 376.284 451.358 634.39 708.358> 132 86<205.853 241 245 280.147 462.853 498 502 537.147 719.853 755 759 794.147> 218 86<205.853 241 245 280.147 462.853 498 502 537.147 719.853 755 759 794.147> 304 86<205.853 241 245 280.147 462.853 498 502 537.147 719.853 755 759 794.147> 390 85<205.642 241 245 280.358 548.642 623.716 634.072 708.358>
LayerCount: 2
Back
Fore
SplineSet
475 243 m 0x8020
 475 219 456 200 432 200 c 0
 409 200 391 218 390 241 c 1x8040
 389 218 370 200 347 200 c 1
 324 200 305 218 304 241 c 1x8080
 303 218 284 200 261 200 c 1
 238 200 219 218 218 241 c 1x81
 217 218 198 200 175 200 c 0
 152 200 133 218 132 241 c 1
 131 218 113 200 90 200 c 1
 66 200 47 219 47 243 c 0
 47 266 64 285 87 286 c 1x82
 64 287 47 306 47 329 c 0
 47 352 64 370 87 371 c 1
 64 372 47 391 47 414 c 0
 47 438 66 457 90 457 c 0
 114 457 132 438 132 414 c 0
 132 391 115 372 92 371 c 1x52
 115 370 132 352 132 329 c 0
 132 306 115 287 92 286 c 1
 114 285 131 267 132 245 c 1x82
 133 268 152 286 175 286 c 1
 198 286 217 268 218 245 c 1x81
 219 268 238 286 261 286 c 0
 284 286 303 268 304 245 c 1x8080
 305 268 324 286 347 286 c 0
 370 286 389 268 390 245 c 1x8040
 391 268 409 286 432 286 c 0
 456 286 475 267 475 243 c 0x8020
390 500 m 0x10a0
 390 476 371 457 347 457 c 0
 324 457 305 475 304 498 c 1x10a0
 303 475 284 457 261 457 c 0
 238 457 219 475 218 498 c 1
 217 475 198 457 175 457 c 0
 151 457 132 476 132 500 c 0
 132 524 151 543 175 543 c 0
 198 543 217 525 218 502 c 1x11
 219 525 238 543 261 543 c 0
 284 543 303 525 304 502 c 1
 305 525 324 543 347 543 c 0
 371 543 390 524 390 500 c 0x10a0
475 586 m 1
 475 562 456 543 432 543 c 0
 408 543 390 562 390 586 c 0
 390 609 407 628 430 629 c 1x1820
 407 630 390 648 390 671 c 1
 390 695 408 714 432 714 c 0x0420
 456 714 475 695 475 671 c 0
 475 648 458 630 435 629 c 1x0820
 458 628 475 609 475 586 c 1
132 671 m 0x0a
 132 647 114 629 90 629 c 0
 66 629 47 647 47 671 c 0
 47 695 66 714 90 714 c 0
 114 714 132 695 132 671 c 0x0a
390 757 m 0x04a0
 390 733 371 714 347 714 c 0
 324 714 305 732 304 755 c 1x04a0
 303 732 284 714 261 714 c 0
 238 714 219 732 218 755 c 1
 217 732 198 714 175 714 c 0
 151 714 132 733 132 757 c 0
 132 781 151 800 175 800 c 0
 198 800 217 782 218 759 c 1x05
 219 782 238 800 261 800 c 0
 284 800 303 782 304 759 c 1
 305 782 324 800 347 800 c 0
 371 800 390 781 390 757 c 0x04a0
EndSplineSet
EndChar

StartChar: five
Encoding: 53 53 24
Width: 522
VWidth: 0
UnlinkRmOvrlpSave: 1
Flags: W
HStem: 200 86<137.642 212.216 223.784 298.216 309.784 384.358> 286 85<52.6424 126.61 395.58 430 435 469.358> 457 86<395.58 430 435 469.358> 543 86<52.6424 87 92 126.448 137.784 212.216 223.784 298.216 309.784 384.358> 629 85<52.5796 87 92 126.42 152 198 238 284 324 370> 714 86<52.6424 87 92 126.448 137.784 212.216 223.784 298.216 309.784 384.216 395.552 469.358>
VStem: 47 85<291.642 365.61 548.642 584 588 623.479 634.072 708.716 719.521 755 759 794.358> 132 86<205.853 241 245 280.147 548.853 584 588 623.147 719.853 755 759 794.147> 218 86<205.853 241 245 280.147 548.853 584 588 623.147 719.853 755 759 794.147> 304 86<205.853 241 245 280.147 548.853 584 588 623.147 719.853 755 759 794.147> 390 85<291.642 365.928 376.284 451.716 462.284 537.358 719.642 755 759 794.358>
LayerCount: 2
Back
Fore
SplineSet
390 243 m 0x80a0
 390 219 371 200 347 200 c 0
 324 200 305 218 304 241 c 1x80a0
 303 218 284 200 261 200 c 1
 238 200 219 218 218 241 c 1
 217 218 198 200 175 200 c 0
 151 200 132 219 132 243 c 0
 132 267 151 286 175 286 c 0
 198 286 217 268 218 245 c 1x81
 219 268 238 286 261 286 c 0
 284 286 303 268 304 245 c 1
 305 268 324 286 347 286 c 0
 371 286 390 267 390 243 c 0x80a0
475 329 m 0
 475 305 456 286 432 286 c 0
 408 286 390 305 390 329 c 0
 390 352 407 370 430 371 c 1
 407 372 390 391 390 414 c 0
 390 437 407 456 430 457 c 1x6020
 407 458 390 477 390 500 c 0
 390 524 408 543 432 543 c 0x1020
 456 543 475 524 475 500 c 0
 475 477 458 458 435 457 c 1
 458 456 475 437 475 414 c 0
 475 391 458 372 435 371 c 1x6020
 458 370 475 352 475 329 c 0
132 329 m 0x42
 132 305 114 286 90 286 c 0
 66 286 47 305 47 329 c 0
 47 353 66 371 90 371 c 0
 114 371 132 353 132 329 c 0x42
390 586 m 0x10a0
 390 562 371 543 347 543 c 0
 324 543 305 561 304 584 c 1x10a0
 303 561 284 543 261 543 c 0
 238 543 219 561 218 584 c 1x11
 217 561 198 543 175 543 c 0
 152 543 133 561 132 584 c 1
 131 561 113 543 90 543 c 0
 66 543 47 562 47 586 c 0
 47 609 64 628 87 629 c 1x12
 64 630 47 648 47 671 c 0
 47 694 64 713 87 714 c 1x0a
 64 715 47 734 47 757 c 0
 47 781 66 800 90 800 c 0
 113 800 131 782 132 759 c 1x06
 133 782 152 800 175 800 c 0
 198 800 217 782 218 759 c 1x05
 219 782 238 800 261 800 c 0
 284 800 303 782 304 759 c 1x0480
 305 782 324 800 347 800 c 0
 370 800 389 782 390 759 c 1x0440
 391 782 409 800 432 800 c 0
 456 800 475 781 475 757 c 0x0420
 475 733 456 714 432 714 c 0
 409 714 391 732 390 755 c 1x0440
 389 732 370 714 347 714 c 0
 324 714 305 732 304 755 c 1x0880
 303 732 284 714 261 714 c 0
 238 714 219 732 218 755 c 1x09
 217 732 198 714 175 714 c 0
 152 714 133 732 132 755 c 1
 131 733 114 715 92 714 c 1x0a
 115 713 132 694 132 671 c 0
 132 648 115 630 92 629 c 1
 114 628 131 610 132 588 c 1x12
 133 611 152 629 175 629 c 0
 198 629 217 611 218 588 c 1x11
 219 611 238 629 261 629 c 0
 284 629 303 611 304 588 c 1
 305 611 324 629 347 629 c 0
 371 629 390 610 390 586 c 0x10a0
EndSplineSet
EndChar

StartChar: four
Encoding: 52 52 25
Width: 522
VWidth: 0
UnlinkRmOvrlpSave: 1
Flags: W
HStem: 200 86<309.853 345 349 384.147> 286 85<309.853 345 349 384.147> 371 86<52.6424 87 92 126.448 137.784 212.216 223.784 298.216 309.521 345 349 384.479 395.552 469.358> 457 86<52.6424 87 92 126.42 309.853 345 349 384.147> 543 86<137.642 212.358 309.853 345 349 384.147> 629 85<223.642 298.716 309.521 345 349 384.147>
VStem: 47 85<376.642 412 416 451.479 462.284 537.358> 132 86<376.853 412 416 451.147 548.642 623.358> 304 86<205.642 280.216 291.784 365.448 376.521 412 416 451.479 462.784 537.216 548.784 623.216 634.552 669 674 708.216 719.784 794.358> 390 85<376.642 412 416 451.358>
LayerCount: 2
Back
Fore
SplineSet
390 243 m 0x8080
 390 219 371 200 347 200 c 0
 323 200 304 219 304 243 c 0
 304 266 322 285 345 286 c 1x8080
 322 287 304 306 304 329 c 0
 304 352 322 370 345 371 c 1x4080
 323 372 305 390 304 412 c 1
 303 389 284 371 261 371 c 0
 238 371 219 389 218 412 c 1x2180
 217 389 198 371 175 371 c 0
 152 371 133 389 132 412 c 1
 131 389 113 371 90 371 c 1
 66 371 47 390 47 414 c 0
 47 437 64 456 87 457 c 1
 64 458 47 477 47 500 c 1
 47 524 66 543 90 543 c 0
 114 543 132 524 132 500 c 0
 132 477 115 458 92 457 c 1
 114 456 131 438 132 416 c 1x2a
 133 439 152 457 175 457 c 1
 198 457 217 439 218 416 c 1
 219 439 238 457 261 457 c 0
 284 457 303 439 304 416 c 1
 305 438 323 456 345 457 c 1x2980
 322 458 304 477 304 500 c 0
 304 523 322 542 345 543 c 1x1180
 322 544 304 563 304 586 c 0
 304 609 322 628 345 629 c 1x0980
 323 630 305 647 304 669 c 1
 303 646 284 629 261 629 c 0
 237 629 218 647 218 671 c 0
 218 695 237 714 261 714 c 0
 284 714 303 697 304 674 c 1
 305 696 323 713 345 714 c 1
 322 715 304 734 304 757 c 0
 304 781 323 800 347 800 c 0
 371 800 390 781 390 757 c 0
 390 734 372 715 349 714 c 1x0580
 372 713 390 694 390 671 c 0
 390 648 372 630 349 629 c 1x0840
 372 628 390 609 390 586 c 1
 390 563 372 544 349 543 c 1x1080
 372 542 390 523 390 500 c 0
 390 477 372 458 349 457 c 1
 371 456 389 438 390 416 c 1x2080
 391 439 409 457 432 457 c 0
 456 457 475 438 475 414 c 0
 475 390 456 371 432 371 c 0x2040
 409 371 391 389 390 412 c 1
 389 390 371 372 349 371 c 1x4080
 372 370 390 352 390 329 c 0
 390 306 372 287 349 286 c 1
 372 285 390 266 390 243 c 0x8080
218 586 m 0x09
 218 562 199 543 175 543 c 0
 151 543 132 562 132 586 c 0
 132 610 151 629 175 629 c 0
 199 629 218 610 218 586 c 0x09
EndSplineSet
EndChar

StartChar: seven
Encoding: 55 55 26
Width: 522
VWidth: 0
UnlinkRmOvrlpSave: 1
Flags: W
HStem: 200 86<137.853 173 177 212.147> 286 85<137.853 173 177 212.147> 371 86<137.853 173 177 212.147> 457 86<223.642 298.358> 543 86<309.642 384.358> 629 85<395.58 430 435 469.358> 714 86<52.6424 126.448 137.784 212.216 223.784 298.216 309.784 384.216 395.552 430 435 469.358>
VStem: 47 85<719.642 755 759 794.358> 132 86<205.642 280.216 291.784 365.448 376.784 451.358 719.853 755 759 794.147> 218 86<462.642 537.358 719.853 755 759 794.147> 304 86<548.642 623.358 719.853 755 759 794.147> 390 85<634.39 708.716 719.521 755 759 794.358>
LayerCount: 2
Back
Fore
SplineSet
218 243 m 0x8080
 218 219 199 200 175 200 c 0
 151 200 132 219 132 243 c 0
 132 266 150 285 173 286 c 1x8080
 150 287 132 306 132 329 c 0
 132 352 150 370 173 371 c 1
 150 372 132 391 132 414 c 0
 132 438 151 457 175 457 c 0
 199 457 218 438 218 414 c 0
 218 391 200 372 177 371 c 1x5080
 200 370 218 352 218 329 c 0
 218 306 200 287 177 286 c 1
 200 285 218 266 218 243 c 0x8080
304 500 m 0x1040
 304 476 285 457 261 457 c 0
 237 457 218 476 218 500 c 0
 218 524 237 543 261 543 c 0
 285 543 304 524 304 500 c 0x1040
390 586 m 0x0820
 390 562 371 543 347 543 c 0
 323 543 304 562 304 586 c 0
 304 610 323 629 347 629 c 0
 371 629 390 610 390 586 c 0x0820
475 671 m 0x0410
 475 647 456 629 432 629 c 0
 408 629 390 647 390 671 c 0x0410
 390 694 407 713 430 714 c 1
 408 715 391 733 390 755 c 1x0420
 389 732 370 714 347 714 c 0
 324 714 305 732 304 755 c 1x0240
 303 732 284 714 261 714 c 0
 238 714 219 732 218 755 c 1x0280
 217 732 198 714 175 714 c 0
 152 714 133 732 132 755 c 1
 131 732 113 714 90 714 c 0
 66 714 47 733 47 757 c 0
 47 781 66 800 90 800 c 0
 113 800 131 782 132 759 c 1x03
 133 782 152 800 175 800 c 0
 198 800 217 782 218 759 c 1x0280
 219 782 238 800 261 800 c 0
 284 800 303 782 304 759 c 1x0240
 305 782 324 800 347 800 c 0
 370 800 389 782 390 759 c 1
 391 782 409 800 432 800 c 0x0220
 456 800 475 781 475 757 c 0
 475 734 458 715 435 714 c 1
 458 713 475 694 475 671 c 0x0410
EndSplineSet
EndChar

StartChar: six
Encoding: 54 54 27
Width: 522
VWidth: 0
UnlinkRmOvrlpSave: 1
Flags: W
HStem: 200 86<137.642 212.216 223.784 298.216 309.784 384.358> 286 85<52.6424 87 92 126.42 395.58 430 435 469.358> 457 86<52.5796 87 92 126.711 137.784 212.216 223.784 298.216 309.784 384.358> 543 86<52.6424 87 92 126.42> 629 85<137.642 212.358> 714 86<223.642 298.216 309.784 384.358>
VStem: 47 85<291.642 365.928 376.284 451.716 462.521 498 502 537.479 548.284 623.358> 132 86<205.853 241 245 280.147 462.853 498 502 537.147 634.39 708.358> 218 86<205.853 241 245 280.147 462.853 498 502 537.147 719.853 755 759 794.147> 304 86<205.853 241 245 280.147 462.853 498 502 537.147 719.853 755 759 794.147> 390 85<291.642 365.928 376.284 451.358>
LayerCount: 2
Back
Fore
SplineSet
390 243 m 0x80a0
 390 219 371 200 347 200 c 0
 324 200 305 218 304 241 c 1x80a0
 303 218 284 200 261 200 c 1
 238 200 219 218 218 241 c 1
 217 218 198 200 175 200 c 0
 151 200 132 219 132 243 c 0
 132 267 151 286 175 286 c 0
 198 286 217 268 218 245 c 1x81
 219 268 238 286 261 286 c 0
 284 286 303 268 304 245 c 1
 305 268 324 286 347 286 c 0
 371 286 390 267 390 243 c 0x80a0
475 329 m 0
 475 305 456 286 432 286 c 0
 408 286 390 305 390 329 c 0
 390 352 407 370 430 371 c 1
 407 372 390 391 390 414 c 0
 390 438 408 457 432 457 c 0
 456 457 475 438 475 414 c 0
 475 391 458 372 435 371 c 1x6020
 458 370 475 352 475 329 c 0
132 329 m 0x6a
 132 305 114 286 90 286 c 0
 66 286 47 305 47 329 c 0
 47 352 64 370 87 371 c 1
 64 372 47 391 47 414 c 0
 47 437 64 456 87 457 c 1
 64 458 47 477 47 500 c 1
 47 523 64 542 87 543 c 1
 64 544 47 563 47 586 c 0
 47 610 66 629 90 629 c 0
 114 629 132 610 132 586 c 0
 132 563 115 544 92 543 c 1
 114 542 131 524 132 502 c 1x6a
 133 525 152 543 175 543 c 1
 198 543 217 525 218 502 c 1x69
 219 525 238 543 261 543 c 0
 284 543 303 525 304 502 c 1
 305 525 324 543 347 543 c 0
 371 543 390 524 390 500 c 0
 390 476 371 457 347 457 c 0
 324 457 305 475 304 498 c 1x68a0
 303 475 284 457 261 457 c 0
 238 457 219 475 218 498 c 1x69
 217 475 198 457 175 457 c 0
 152 457 133 475 132 498 c 1
 131 476 114 458 92 457 c 1
 115 456 132 437 132 414 c 1
 132 391 115 372 92 371 c 1
 115 370 132 352 132 329 c 0x6a
218 671 m 0x09
 218 647 199 629 175 629 c 0
 151 629 132 647 132 671 c 0
 132 695 151 714 175 714 c 0
 199 714 218 695 218 671 c 0x09
390 757 m 0x04a0
 390 733 371 714 347 714 c 0
 324 714 305 732 304 755 c 1
 303 732 284 714 261 714 c 0
 237 714 218 733 218 757 c 0
 218 781 237 800 261 800 c 0
 284 800 303 782 304 759 c 1
 305 782 324 800 347 800 c 0
 371 800 390 781 390 757 c 0x04a0
EndSplineSet
EndChar

StartChar: nine
Encoding: 57 57 28
Width: 522
VWidth: 0
UnlinkRmOvrlpSave: 1
Flags: W
HStem: 200 86<137.642 212.216 223.784 298.358> 286 85<309.642 384.358> 371 86<395.58 430 435 469.358> 457 86<137.642 212.216 223.784 298.216 309.784 384.216 395.289 430 435 469.42> 629 85<52.6424 87 92 126.42 395.58 430 435 469.358> 714 86<137.642 212.216 223.784 298.216 309.784 384.358>
VStem: 47 85<548.642 623.716 634.072 708.358> 132 86<205.853 241 245 280.147 462.853 498 502 537.147 719.853 755 759 794.147> 218 86<205.853 241 245 280.147 462.853 498 502 537.147 719.853 755 759 794.147> 304 86<291.642 365.61 462.853 498 502 537.147 719.853 755 759 794.147> 390 85<376.642 451.716 462.521 498 502 537.479 548.284 623.716 634.072 708.358>
LayerCount: 2
Back
Fore
SplineSet
304 243 m 0x8140
 304 219 285 200 261 200 c 0
 238 200 219 218 218 241 c 1
 217 218 198 200 175 200 c 0
 151 200 132 219 132 243 c 0
 132 267 151 286 175 286 c 0
 198 286 217 268 218 245 c 1
 219 268 238 286 261 286 c 0
 285 286 304 267 304 243 c 0x8140
390 329 m 0
 390 305 371 286 347 286 c 0
 323 286 304 305 304 329 c 0
 304 353 323 371 347 371 c 0x4040
 371 371 390 353 390 329 c 0
475 414 m 0x2020
 475 390 456 371 432 371 c 0
 408 371 390 390 390 414 c 0x2020
 390 437 407 456 430 457 c 1
 408 458 391 476 390 498 c 1x2040
 389 475 370 457 347 457 c 0
 324 457 305 475 304 498 c 1x1080
 303 475 284 457 261 457 c 0
 238 457 219 475 218 498 c 1
 217 475 198 457 175 457 c 0
 151 457 132 476 132 500 c 0
 132 524 151 543 175 543 c 0
 198 543 217 525 218 502 c 1x11
 219 525 238 543 261 543 c 0
 284 543 303 525 304 502 c 1x1080
 305 525 324 543 347 543 c 0
 370 543 389 525 390 502 c 1x1040
 391 524 408 542 430 543 c 1
 407 544 390 563 390 586 c 0
 390 609 407 628 430 629 c 1x1820
 407 630 390 648 390 671 c 1
 390 695 408 714 432 714 c 0x0420
 456 714 475 695 475 671 c 0
 475 648 458 630 435 629 c 1
 458 628 475 609 475 586 c 1
 475 563 458 544 435 543 c 1x1820
 458 542 475 523 475 500 c 0
 475 477 458 458 435 457 c 1
 458 456 475 437 475 414 c 0x2020
132 586 m 0x0a
 132 562 114 543 90 543 c 0
 66 543 47 562 47 586 c 0
 47 609 64 628 87 629 c 1x1a
 64 630 47 648 47 671 c 0
 47 695 66 714 90 714 c 0x06
 114 714 132 695 132 671 c 0
 132 648 115 630 92 629 c 1
 115 628 132 609 132 586 c 0x0a
390 757 m 0x04a0
 390 733 371 714 347 714 c 0
 324 714 305 732 304 755 c 1x04a0
 303 732 284 714 261 714 c 0
 238 714 219 732 218 755 c 1
 217 732 198 714 175 714 c 0
 151 714 132 733 132 757 c 0
 132 781 151 800 175 800 c 0
 198 800 217 782 218 759 c 1x05
 219 782 238 800 261 800 c 0
 284 800 303 782 304 759 c 1
 305 782 324 800 347 800 c 0
 371 800 390 781 390 757 c 0x04a0
EndSplineSet
EndChar

StartChar: eight
Encoding: 56 56 29
Width: 522
VWidth: 0
UnlinkRmOvrlpSave: 1
Flags: W
HStem: 200 86<137.642 212.216 223.784 298.216 309.784 384.358> 286 85<52.6424 87 92 126.42 395.58 430 435 469.358> 457 86<137.642 212.216 223.784 298.216 309.784 384.358> 629 85<52.6424 87 92 126.42 395.58 430 435 469.358> 714 86<137.642 212.216 223.784 298.216 309.784 384.358>
VStem: 47 85<291.642 365.928 376.284 451.358 548.642 623.716 634.072 708.358> 132 86<205.853 241 245 280.147 462.853 498 502 537.147 719.853 755 759 794.147> 218 86<205.853 241 245 280.147 462.853 498 502 537.147 719.853 755 759 794.147> 304 86<205.853 241 245 280.147 462.853 498 502 537.147 719.853 755 759 794.147> 390 85<291.642 365.928 376.284 451.358 548.642 623.716 634.072 708.358>
LayerCount: 2
Back
Fore
SplineSet
390 243 m 0xa140
 390 219 371 200 347 200 c 0
 324 200 305 218 304 241 c 1xa140
 303 218 284 200 261 200 c 1
 238 200 219 218 218 241 c 1
 217 218 198 200 175 200 c 0
 151 200 132 219 132 243 c 0
 132 267 151 286 175 286 c 0
 198 286 217 268 218 245 c 1xa2
 219 268 238 286 261 286 c 0
 284 286 303 268 304 245 c 1
 305 268 324 286 347 286 c 0
 371 286 390 267 390 243 c 0xa140
475 329 m 0
 475 305 456 286 432 286 c 0
 408 286 390 305 390 329 c 0
 390 352 407 370 430 371 c 1
 407 372 390 391 390 414 c 0
 390 438 408 457 432 457 c 0
 456 457 475 438 475 414 c 0
 475 391 458 372 435 371 c 1x6040
 458 370 475 352 475 329 c 0
132 329 m 0x64
 132 305 114 286 90 286 c 0
 66 286 47 305 47 329 c 0
 47 352 64 370 87 371 c 1
 64 372 47 391 47 414 c 0
 47 438 66 457 90 457 c 0
 114 457 132 438 132 414 c 0
 132 391 115 372 92 371 c 1
 115 370 132 352 132 329 c 0x64
390 500 m 0x2140
 390 476 371 457 347 457 c 0
 324 457 305 475 304 498 c 1x2140
 303 475 284 457 261 457 c 0
 238 457 219 475 218 498 c 1
 217 475 198 457 175 457 c 0
 151 457 132 476 132 500 c 0
 132 524 151 543 175 543 c 0
 198 543 217 525 218 502 c 1x22
 219 525 238 543 261 543 c 0
 284 543 303 525 304 502 c 1
 305 525 324 543 347 543 c 0
 371 543 390 524 390 500 c 0x2140
475 586 m 1
 475 562 456 543 432 543 c 0
 408 543 390 562 390 586 c 0
 390 609 407 628 430 629 c 1x3040
 407 630 390 648 390 671 c 1
 390 695 408 714 432 714 c 0x2840
 456 714 475 695 475 671 c 0
 475 648 458 630 435 629 c 1x3040
 458 628 475 609 475 586 c 1
132 586 m 0x34
 132 562 114 543 90 543 c 0
 66 543 47 562 47 586 c 0
 47 609 64 628 87 629 c 1x34
 64 630 47 648 47 671 c 0
 47 695 66 714 90 714 c 0x2c
 114 714 132 695 132 671 c 0
 132 648 115 630 92 629 c 1
 115 628 132 609 132 586 c 0x34
390 757 m 0x2940
 390 733 371 714 347 714 c 0
 324 714 305 732 304 755 c 1x2940
 303 732 284 714 261 714 c 0
 238 714 219 732 218 755 c 1
 217 732 198 714 175 714 c 0
 151 714 132 733 132 757 c 0
 132 781 151 800 175 800 c 0
 198 800 217 782 218 759 c 1x2a
 219 782 238 800 261 800 c 0
 284 800 303 782 304 759 c 1
 305 782 324 800 347 800 c 0
 371 800 390 781 390 757 c 0x2940
EndSplineSet
EndChar

StartChar: semicolon
Encoding: 59 59 30
Width: 522
VWidth: 0
UnlinkRmOvrlpSave: 1
Flags: W
HStem: 200 86<52.6424 127.358> 286 85<138.642 174 178 213.358> 371 86<52.8528 88 92 127.216 138.521 174 178 213.147> 457 86<52.8528 88 92 127.216 138.784 174 178 213.147> 629 85<52.8528 88 92 127.479 138.521 174 178 213.147>
VStem: 47 86<205.642 280.358 376.853 412 416 451.216 462.784 498 502 537.147 634.58 669 674 708.216 719.784 755 759 794.147> 133 86<291.642 365.448 376.784 412 416 451.216 462.784 498 502 537.147 634.58 669 674 708.216 719.784 755 759 794.147>
LayerCount: 2
Back
Fore
SplineSet
133 243 m 0x8c
 133 219 114 200 90 200 c 0
 66 200 47 219 47 243 c 0
 47 267 66 286 90 286 c 0
 114 286 133 267 133 243 c 0x8c
219 329 m 0x4a
 219 305 200 286 176 286 c 0
 152 286 133 305 133 329 c 0
 133 352 151 370 174 371 c 1x4a
 152 372 134 390 133 412 c 1
 132 389 113 371 90 371 c 0
 66 371 47 390 47 414 c 0
 47 437 65 456 88 457 c 1x2c
 65 458 47 477 47 500 c 1
 47 524 66 543 90 543 c 0
 113 543 132 525 133 502 c 1
 134 525 153 543 176 543 c 0x1c
 200 543 219 524 219 500 c 0
 219 477 201 458 178 457 c 1x2a
 201 456 219 437 219 414 c 1
 219 391 201 372 178 371 c 1
 201 370 219 352 219 329 c 0x4a
219 671 m 0
 219 647 200 629 176 629 c 0
 153 629 134 646 133 669 c 1
 132 646 113 629 90 629 c 0
 66 629 47 647 47 671 c 0
 47 694 65 713 88 714 c 1
 65 715 47 734 47 757 c 0
 47 781 66 800 90 800 c 0
 113 800 132 782 133 759 c 1x0c
 134 782 153 800 176 800 c 0
 200 800 219 781 219 757 c 0
 219 734 201 715 178 714 c 1
 201 713 219 694 219 671 c 0
133 416 m 1
 134 438 152 456 174 457 c 1
 152 458 134 476 133 498 c 1
 132 476 114 458 92 457 c 1x2c
 114 456 132 438 133 416 c 1
133 674 m 1
 134 696 152 713 174 714 c 1
 152 715 134 733 133 755 c 1
 132 733 114 715 92 714 c 1
 114 713 132 696 133 674 c 1
EndSplineSet
EndChar

StartChar: colon
Encoding: 58 58 31
Width: 522
VWidth: 0
UnlinkRmOvrlpSave: 1
Flags: W
HStem: 286 85<52.6424 88 92 127.479 138.521 174 178 213.358> 629 85<52.6424 88 92 127.479 138.521 174 178 213.358>
VStem: 47 86<291.642 326 331 365.448 376.784 412 416 451.147 548.853 584 588 623.216 634.552 669 674 708.358> 133 86<291.642 326 331 365.448 376.784 412 416 451.147 548.853 584 588 623.216 634.552 669 674 708.358>
LayerCount: 2
Back
Fore
SplineSet
219 329 m 0xd0
 219 305 200 286 176 286 c 0
 153 286 134 303 133 326 c 1
 132 303 113 286 90 286 c 0
 66 286 47 305 47 329 c 0
 47 352 65 370 88 371 c 1
 65 372 47 391 47 414 c 0
 47 438 66 457 90 457 c 0
 113 457 132 439 133 416 c 1xe0
 134 439 153 457 176 457 c 0
 200 457 219 438 219 414 c 0
 219 391 201 372 178 371 c 1
 201 370 219 352 219 329 c 0xd0
219 586 m 1xd0
 219 562 200 543 176 543 c 0
 153 543 134 561 133 584 c 1
 132 561 113 543 90 543 c 0
 66 543 47 562 47 586 c 0
 47 609 65 628 88 629 c 1
 65 630 47 648 47 671 c 0
 47 695 66 714 90 714 c 0
 113 714 132 697 133 674 c 1xe0
 134 697 153 714 176 714 c 0
 200 714 219 695 219 671 c 0
 219 648 201 630 178 629 c 1
 201 628 219 609 219 586 c 1xd0
133 331 m 1
 134 353 152 370 174 371 c 1
 152 372 134 390 133 412 c 1
 132 390 114 372 92 371 c 1
 114 370 132 353 133 331 c 1
133 588 m 1
 134 610 152 628 174 629 c 1
 152 630 134 647 133 669 c 1
 132 647 114 630 92 629 c 1
 114 628 132 610 133 588 c 1
EndSplineSet
EndChar

StartChar: equal
Encoding: 61 61 32
Width: 522
VWidth: 0
UnlinkRmOvrlpSave: 1
Flags: W
HStem: 371 86<52.6424 126.448 137.784 212.216 223.784 298.216 309.784 384.216 395.552 469.358> 543 86<52.6424 126.448 137.784 212.216 223.784 298.216 309.784 384.216 395.552 469.358>
VStem: 47 85<376.642 412 416 451.358 548.642 584 588 623.358> 218 86<376.853 412 416 451.147 548.853 584 588 623.147> 390 85<376.642 412 416 451.358 548.642 584 588 623.358>
CounterMasks: 1 38
LayerCount: 2
Back
Fore
SplineSet
475 414 m 0
 475 390 456 371 432 371 c 0
 409 371 391 389 390 412 c 1
 389 389 370 371 347 371 c 0
 324 371 305 389 304 412 c 1
 303 389 284 371 261 371 c 0
 238 371 219 389 218 412 c 1
 217 389 198 371 175 371 c 0
 152 371 133 389 132 412 c 1
 131 389 113 371 90 371 c 1
 66 371 47 390 47 414 c 0
 47 438 66 457 90 457 c 0
 113 457 131 439 132 416 c 1
 133 439 152 457 175 457 c 1
 198 457 217 439 218 416 c 1
 219 439 238 457 261 457 c 0
 284 457 303 439 304 416 c 1
 305 439 324 457 347 457 c 0
 370 457 389 439 390 416 c 1
 391 439 409 457 432 457 c 0
 456 457 475 438 475 414 c 0
475 586 m 0
 475 562 456 543 432 543 c 0
 409 543 391 561 390 584 c 1
 389 561 370 543 347 543 c 0
 324 543 305 561 304 584 c 1
 303 561 284 543 261 543 c 0
 238 543 219 561 218 584 c 1
 217 561 198 543 175 543 c 0
 152 543 133 561 132 584 c 1
 131 561 113 543 90 543 c 0
 66 543 47 562 47 586 c 0
 47 610 66 629 90 629 c 0
 113 629 131 611 132 588 c 1
 133 611 152 629 175 629 c 0
 198 629 217 611 218 588 c 1
 219 611 238 629 261 629 c 0
 284 629 303 611 304 588 c 1
 305 611 324 629 347 629 c 0
 370 629 389 611 390 588 c 1
 391 611 409 629 432 629 c 0
 456 629 475 610 475 586 c 0
EndSplineSet
EndChar

StartChar: less
Encoding: 60 60 33
Width: 522
VWidth: 0
UnlinkRmOvrlpSave: 1
Flags: W
HStem: 200 86<310.39 384.358> 286 85<224.642 299.358> 371 86<138.642 213.358> 457 86<52.6424 127.358> 543 86<138.642 213.358> 629 85<224.642 299.358> 714 86<310.39 384.358>
VStem: 47 86<462.642 537.358> 133 86<376.642 451.358 548.642 623.358> 219 86<291.642 365.61 634.39 708.358> 305 85<205.642 280.358 719.642 794.358>
LayerCount: 2
Back
Fore
SplineSet
390 243 m 0x8020
 390 219 371 200 347 200 c 0
 323 200 305 219 305 243 c 0
 305 267 323 286 347 286 c 0
 371 286 390 267 390 243 c 0x8020
305 329 m 0x4040
 305 305 286 286 262 286 c 0
 238 286 219 305 219 329 c 0
 219 353 238 371 262 371 c 0
 286 371 305 353 305 329 c 0x4040
219 414 m 0x2080
 219 390 200 371 176 371 c 0
 152 371 133 390 133 414 c 0
 133 438 152 457 176 457 c 0
 200 457 219 438 219 414 c 0x2080
133 500 m 0x11
 133 476 114 457 90 457 c 0
 66 457 47 476 47 500 c 0
 47 524 66 543 90 543 c 0
 114 543 133 524 133 500 c 0x11
219 586 m 0x0880
 219 562 200 543 176 543 c 0
 152 543 133 562 133 586 c 0
 133 610 152 629 176 629 c 0
 200 629 219 610 219 586 c 0x0880
305 671 m 0x0440
 305 647 286 629 262 629 c 0
 238 629 219 647 219 671 c 0
 219 695 238 714 262 714 c 0
 286 714 305 695 305 671 c 0x0440
390 757 m 0x0220
 390 733 371 714 347 714 c 0
 323 714 305 733 305 757 c 0
 305 781 323 800 347 800 c 0
 371 800 390 781 390 757 c 0x0220
EndSplineSet
EndChar

StartChar: question
Encoding: 63 63 34
Width: 522
VWidth: 0
UnlinkRmOvrlpSave: 1
Flags: W
HStem: 200 86<223.642 298.358> 371 86<223.853 259 263 298.147> 457 86<223.853 259 263 298.147> 629 85<52.6424 126.61 309.642 345 349 384.358> 714 86<137.642 212.216 223.784 298.358>
VStem: 47 85<634.39 708.358> 218 86<205.642 280.358 376.642 451.216 462.784 537.358 719.853 755 759 794.147> 304 86<548.642 623.216 634.552 708.358>
LayerCount: 2
Back
Fore
SplineSet
304 243 m 0x86
 304 219 285 200 261 200 c 0
 237 200 218 219 218 243 c 0
 218 267 237 286 261 286 c 0
 285 286 304 267 304 243 c 0x86
304 414 m 1
 304 390 285 371 261 371 c 0
 237 371 218 390 218 414 c 0
 218 437 236 456 259 457 c 1xc6
 236 458 218 477 218 500 c 1
 218 524 237 543 261 543 c 0xa6
 285 543 304 524 304 500 c 0
 304 477 286 458 263 457 c 1xc6
 286 456 304 437 304 414 c 1
390 586 m 1x95
 390 562 371 543 347 543 c 0
 323 543 304 562 304 586 c 0
 304 609 322 628 345 629 c 1xb5
 322 630 304 648 304 671 c 1
 304 695 323 714 347 714 c 0x8d
 371 714 390 695 390 671 c 0
 390 648 372 630 349 629 c 1
 372 628 390 609 390 586 c 1x95
132 671 m 0
 132 647 114 629 90 629 c 0
 66 629 47 647 47 671 c 0
 47 695 66 714 90 714 c 0
 114 714 132 695 132 671 c 0
304 757 m 0
 304 733 285 714 261 714 c 0
 238 714 219 732 218 755 c 1
 217 732 198 714 175 714 c 0
 151 714 132 733 132 757 c 0
 132 781 151 800 175 800 c 0
 198 800 217 782 218 759 c 1
 219 782 238 800 261 800 c 0x8e
 285 800 304 781 304 757 c 0
EndSplineSet
EndChar

StartChar: greater
Encoding: 62 62 35
Width: 522
VWidth: 0
UnlinkRmOvrlpSave: 1
Flags: W
HStem: 200 86<52.6424 126.61> 286 85<137.642 212.358> 371 86<223.642 298.358> 457 86<309.642 384.358> 543 86<223.642 298.358> 629 85<137.642 212.358> 714 86<52.6424 126.61>
VStem: 47 85<205.642 280.358 719.642 794.358> 132 86<291.642 365.61 634.39 708.358> 218 86<376.642 451.358 548.642 623.358> 304 86<462.642 537.358>
LayerCount: 2
Back
Fore
SplineSet
132 243 m 0x81
 132 219 114 200 90 200 c 0
 66 200 47 219 47 243 c 0
 47 267 66 286 90 286 c 0
 114 286 132 267 132 243 c 0x81
218 329 m 0x4080
 218 305 199 286 175 286 c 0
 151 286 132 305 132 329 c 0
 132 353 151 371 175 371 c 0
 199 371 218 353 218 329 c 0x4080
304 414 m 0x2040
 304 390 285 371 261 371 c 0
 237 371 218 390 218 414 c 0
 218 438 237 457 261 457 c 0
 285 457 304 438 304 414 c 0x2040
390 500 m 0x1020
 390 476 371 457 347 457 c 0
 323 457 304 476 304 500 c 0
 304 524 323 543 347 543 c 0
 371 543 390 524 390 500 c 0x1020
304 586 m 0x0840
 304 562 285 543 261 543 c 0
 237 543 218 562 218 586 c 0
 218 610 237 629 261 629 c 0
 285 629 304 610 304 586 c 0x0840
218 671 m 0x0480
 218 647 199 629 175 629 c 0
 151 629 132 647 132 671 c 0
 132 695 151 714 175 714 c 0
 199 714 218 695 218 671 c 0x0480
132 757 m 0x03
 132 733 114 714 90 714 c 0
 66 714 47 733 47 757 c 0
 47 781 66 800 90 800 c 0
 114 800 132 781 132 757 c 0x03
EndSplineSet
EndChar

StartChar: A
Encoding: 65 65 36
Width: 522
VWidth: 0
UnlinkRmOvrlpSave: 1
Flags: W
HStem: 286 85<52.5796 87 92 126.42 395.58 430 435 469.42> 371 86<52.5796 87 92 126.711 137.784 212.216 223.784 298.216 309.784 384.216 395.289 430 435 469.42> 457 86<52.5796 87 92 126.42 395.58 430 435 469.42> 543 86<52.6424 87 92 126.42 395.58 430 435 469.358> 629 85<137.642 212.358 309.642 384.358> 714 86<223.642 298.358>
VStem: 47 85<205.642 280.716 291.284 365.928 376.521 412 416 451.479 462.284 537.716 548.284 623.358> 132 86<376.853 412 416 451.147 634.39 708.358> 218 86<376.853 412 416 451.147 719.642 794.358> 304 86<376.853 412 416 451.147 634.39 708.358> 390 85<205.642 280.716 291.284 365.928 376.521 412 416 451.479 462.284 537.716 548.284 623.358>
LayerCount: 2
Back
Fore
SplineSet
475 243 m 0x8020
 475 219 456 200 432 200 c 0
 408 200 390 219 390 243 c 0
 390 266 407 285 430 286 c 1
 407 287 390 306 390 329 c 0x8020
 390 352 407 370 430 371 c 1
 408 372 391 390 390 412 c 1x8040
 389 389 370 371 347 371 c 0
 324 371 305 389 304 412 c 1x4080
 303 389 284 371 261 371 c 0
 238 371 219 389 218 412 c 1
 217 389 198 371 175 371 c 0x41
 152 371 133 389 132 412 c 1
 131 390 114 372 92 371 c 1
 115 370 132 352 132 329 c 0
 132 306 115 287 92 286 c 1
 115 285 132 266 132 243 c 0
 132 219 114 200 90 200 c 0
 66 200 47 219 47 243 c 0
 47 266 64 285 87 286 c 1
 64 287 47 306 47 329 c 0
 47 352 64 370 87 371 c 1x82
 64 372 47 391 47 414 c 0
 47 437 64 456 87 457 c 1x42
 64 458 47 477 47 500 c 1
 47 523 64 542 87 543 c 1
 64 544 47 563 47 586 c 0
 47 610 66 629 90 629 c 0
 114 629 132 610 132 586 c 0
 132 563 115 544 92 543 c 1x2a
 115 542 132 523 132 500 c 0
 132 477 115 458 92 457 c 1
 114 456 131 438 132 416 c 1x42
 133 439 152 457 175 457 c 1
 198 457 217 439 218 416 c 1x41
 219 439 238 457 261 457 c 0
 284 457 303 439 304 416 c 1x4080
 305 439 324 457 347 457 c 0
 370 457 389 439 390 416 c 1
 391 438 408 456 430 457 c 1x4040
 407 458 390 477 390 500 c 0
 390 523 407 542 430 543 c 1
 407 544 390 563 390 586 c 0
 390 610 408 629 432 629 c 0
 456 629 475 610 475 586 c 0
 475 563 458 544 435 543 c 1x2820
 458 542 475 523 475 500 c 0
 475 477 458 458 435 457 c 1x4020
 458 456 475 437 475 414 c 0
 475 391 458 372 435 371 c 1
 458 370 475 352 475 329 c 0
 475 306 458 287 435 286 c 1
 458 285 475 266 475 243 c 0x8020
390 671 m 0x0840
 390 647 371 629 347 629 c 0
 323 629 304 647 304 671 c 0
 304 695 323 714 347 714 c 0
 371 714 390 695 390 671 c 0x0840
218 671 m 0x09
 218 647 199 629 175 629 c 0
 151 629 132 647 132 671 c 0
 132 695 151 714 175 714 c 0
 199 714 218 695 218 671 c 0x09
304 757 m 0x0480
 304 733 285 714 261 714 c 0
 237 714 218 733 218 757 c 0
 218 781 237 800 261 800 c 0
 285 800 304 781 304 757 c 0x0480
EndSplineSet
EndChar

StartChar: at
Encoding: 64 64 37
Width: 522
VWidth: 0
UnlinkRmOvrlpSave: 1
Flags: W
HStem: 200 86<137.642 212.216 223.784 259 263 298.216 309.784 384.358> 286 85<52.6424 87 92 126.42 223.853 259 263 298.147 395.58 430 435 469.358> 457 86<137.642 212.216 223.784 259 263 298.147 395.58 430 435 469.42> 629 85<52.6424 126.61 395.58 430 435 469.358> 714 86<137.642 212.216 223.784 298.216 309.784 384.358>
VStem: 47 85<291.642 365.928 376.284 451.358 634.39 708.358> 132 86<205.853 241 245 280.147 462.853 498 502 537.147 719.853 755 759 794.147> 218 86<205.853 241 245 280.479 291.784 365.448 376.784 451.216 462.784 498 502 537.147 719.853 755 759 794.147> 304 86<205.853 241 245 280.147 719.853 755 759 794.147> 390 85<291.642 365.928 376.284 451.716 462.284 537.716 548.284 623.716 634.072 708.358>
LayerCount: 2
Back
Fore
SplineSet
390 243 m 0xa140
 390 219 371 200 347 200 c 0
 324 200 305 218 304 241 c 1xa140
 303 218 284 200 261 200 c 1
 238 200 219 218 218 241 c 1
 217 218 198 200 175 200 c 0
 151 200 132 219 132 243 c 0
 132 267 151 286 175 286 c 0
 198 286 217 268 218 245 c 1
 219 267 237 285 259 286 c 1xa2
 236 287 218 306 218 329 c 0
 218 352 236 370 259 371 c 1
 236 372 218 391 218 414 c 0x61
 218 437 236 456 259 457 c 1
 237 458 219 476 218 498 c 1
 217 475 198 457 175 457 c 0
 151 457 132 476 132 500 c 0
 132 524 151 543 175 543 c 0
 198 543 217 525 218 502 c 1
 219 525 238 543 261 543 c 0
 285 543 304 524 304 500 c 0x6280
 304 477 286 458 263 457 c 1
 286 456 304 437 304 414 c 1
 304 391 286 372 263 371 c 1x61
 286 370 304 352 304 329 c 0
 304 306 286 287 263 286 c 1
 285 285 303 267 304 245 c 1
 305 268 324 286 347 286 c 0
 371 286 390 267 390 243 c 0xa140
475 329 m 0
 475 305 456 286 432 286 c 0
 408 286 390 305 390 329 c 0
 390 352 407 370 430 371 c 1
 407 372 390 391 390 414 c 0
 390 437 407 456 430 457 c 1
 407 458 390 477 390 500 c 0
 390 523 407 542 430 543 c 1
 407 544 390 563 390 586 c 0
 390 609 407 628 430 629 c 1x7040
 407 630 390 648 390 671 c 1
 390 695 408 714 432 714 c 0x2840
 456 714 475 695 475 671 c 0
 475 648 458 630 435 629 c 1
 458 628 475 609 475 586 c 1
 475 563 458 544 435 543 c 1
 458 542 475 523 475 500 c 0
 475 477 458 458 435 457 c 1
 458 456 475 437 475 414 c 0
 475 391 458 372 435 371 c 1x7040
 458 370 475 352 475 329 c 0
132 329 m 0x64
 132 305 114 286 90 286 c 0
 66 286 47 305 47 329 c 0
 47 352 64 370 87 371 c 1
 64 372 47 391 47 414 c 0
 47 438 66 457 90 457 c 0
 114 457 132 438 132 414 c 0
 132 391 115 372 92 371 c 1
 115 370 132 352 132 329 c 0x64
132 671 m 0
 132 647 114 629 90 629 c 0
 66 629 47 647 47 671 c 0
 47 695 66 714 90 714 c 0x34
 114 714 132 695 132 671 c 0
390 757 m 0x2940
 390 733 371 714 347 714 c 0
 324 714 305 732 304 755 c 1x2940
 303 732 284 714 261 714 c 0
 238 714 219 732 218 755 c 1
 217 732 198 714 175 714 c 0
 151 714 132 733 132 757 c 0
 132 781 151 800 175 800 c 0
 198 800 217 782 218 759 c 1x2a
 219 782 238 800 261 800 c 0
 284 800 303 782 304 759 c 1
 305 782 324 800 347 800 c 0
 371 800 390 781 390 757 c 0x2940
EndSplineSet
EndChar

StartChar: C
Encoding: 67 67 38
Width: 522
VWidth: 0
UnlinkRmOvrlpSave: 1
Flags: W
HStem: 200 86<137.642 212.216 223.784 298.216 309.784 384.358> 286 85<52.6424 87 92 126.42 395.39 469.358> 457 86<52.5796 87 92 126.42> 629 85<52.6424 87 92 126.42 395.39 469.358> 714 86<137.642 212.216 223.784 298.216 309.784 384.358>
VStem: 47 85<291.642 365.928 376.284 451.716 462.284 537.716 548.284 623.716 634.072 708.358> 132 86<205.853 241 245 280.147 719.853 755 759 794.147> 218 86<205.853 241 245 280.147 719.853 755 759 794.147> 304 86<205.853 241 245 280.147 719.853 755 759 794.147> 390 85<291.642 365.61 634.39 708.358>
LayerCount: 2
Back
Fore
SplineSet
390 243 m 0xa140
 390 219 371 200 347 200 c 0
 324 200 305 218 304 241 c 1xa140
 303 218 284 200 261 200 c 1
 238 200 219 218 218 241 c 1
 217 218 198 200 175 200 c 0
 151 200 132 219 132 243 c 0
 132 267 151 286 175 286 c 0
 198 286 217 268 218 245 c 1xa2
 219 268 238 286 261 286 c 0
 284 286 303 268 304 245 c 1
 305 268 324 286 347 286 c 0
 371 286 390 267 390 243 c 0xa140
475 329 m 0
 475 305 456 286 432 286 c 0
 408 286 390 305 390 329 c 0
 390 353 408 371 432 371 c 0x6040
 456 371 475 353 475 329 c 0
132 329 m 0x74
 132 305 114 286 90 286 c 0
 66 286 47 305 47 329 c 0
 47 352 64 370 87 371 c 1
 64 372 47 391 47 414 c 0
 47 437 64 456 87 457 c 1
 64 458 47 477 47 500 c 1
 47 523 64 542 87 543 c 1
 64 544 47 563 47 586 c 0
 47 609 64 628 87 629 c 1x74
 64 630 47 648 47 671 c 0
 47 695 66 714 90 714 c 0x2c
 114 714 132 695 132 671 c 0
 132 648 115 630 92 629 c 1
 115 628 132 609 132 586 c 0
 132 563 115 544 92 543 c 1
 115 542 132 523 132 500 c 0
 132 477 115 458 92 457 c 1
 115 456 132 437 132 414 c 1
 132 391 115 372 92 371 c 1
 115 370 132 352 132 329 c 0x74
475 671 m 0x3040
 475 647 456 629 432 629 c 0
 408 629 390 647 390 671 c 0
 390 695 408 714 432 714 c 0
 456 714 475 695 475 671 c 0x3040
390 757 m 0
 390 733 371 714 347 714 c 0
 324 714 305 732 304 755 c 1x2940
 303 732 284 714 261 714 c 0
 238 714 219 732 218 755 c 1
 217 732 198 714 175 714 c 0
 151 714 132 733 132 757 c 0
 132 781 151 800 175 800 c 0
 198 800 217 782 218 759 c 1x2a
 219 782 238 800 261 800 c 0
 284 800 303 782 304 759 c 1
 305 782 324 800 347 800 c 0x29
 371 800 390 781 390 757 c 0
EndSplineSet
EndChar

StartChar: B
Encoding: 66 66 39
Width: 522
VWidth: 0
UnlinkRmOvrlpSave: 1
Flags: W
HStem: 200 86<52.6424 126.448 137.784 173 177 212.216 223.784 298.216 309.784 384.358> 286 85<137.853 173 177 212.147 395.58 430 435 469.358> 457 86<137.853 173 177 212.479 223.784 298.216 309.784 384.358> 629 85<137.853 173 177 212.147 395.58 430 435 469.358> 714 86<52.6424 126.448 137.784 173 177 212.216 223.784 298.216 309.784 384.358>
VStem: 47 85<205.642 241 245 280.358 719.642 755 759 794.358> 132 86<205.853 241 245 280.479 291.784 365.448 376.784 451.216 462.784 498 502 537.216 548.784 623.216 634.552 708.216 719.521 755 759 794.147> 218 86<205.853 241 245 280.147 462.853 498 502 537.147 719.853 755 759 794.147> 304 86<205.853 241 245 280.147 462.853 498 502 537.147 719.853 755 759 794.147> 390 85<291.642 365.928 376.284 451.358 548.642 623.716 634.072 708.358>
LayerCount: 2
Back
Fore
SplineSet
390 243 m 0xa140
 390 219 371 200 347 200 c 0
 324 200 305 218 304 241 c 1xa140
 303 218 284 200 261 200 c 1
 238 200 219 218 218 241 c 1xa2
 217 218 198 200 175 200 c 0
 152 200 133 218 132 241 c 1
 131 218 113 200 90 200 c 1
 66 200 47 219 47 243 c 0
 47 267 66 286 90 286 c 0
 113 286 131 268 132 245 c 1
 133 267 151 285 173 286 c 1xa4
 150 287 132 306 132 329 c 0
 132 352 150 370 173 371 c 1
 150 372 132 391 132 414 c 0
 132 437 150 456 173 457 c 1
 150 458 132 477 132 500 c 1
 132 523 150 542 173 543 c 1
 150 544 132 563 132 586 c 0
 132 609 150 628 173 629 c 1
 150 630 132 648 132 671 c 0
 132 694 150 713 173 714 c 1x72
 151 715 133 733 132 755 c 1
 131 732 113 714 90 714 c 0
 66 714 47 733 47 757 c 0
 47 781 66 800 90 800 c 0
 113 800 131 782 132 759 c 1x2c
 133 782 152 800 175 800 c 0
 198 800 217 782 218 759 c 1x2a
 219 782 238 800 261 800 c 0
 284 800 303 782 304 759 c 1
 305 782 324 800 347 800 c 0
 371 800 390 781 390 757 c 0
 390 733 371 714 347 714 c 0
 324 714 305 732 304 755 c 1
 303 732 284 714 261 714 c 0x2940
 238 714 219 732 218 755 c 1
 217 733 199 715 177 714 c 1
 200 713 218 694 218 671 c 0
 218 648 200 630 177 629 c 1
 200 628 218 609 218 586 c 0
 218 563 200 544 177 543 c 1
 199 542 217 524 218 502 c 1x32
 219 525 238 543 261 543 c 0
 284 543 303 525 304 502 c 1
 305 525 324 543 347 543 c 0
 371 543 390 524 390 500 c 0
 390 476 371 457 347 457 c 0
 324 457 305 475 304 498 c 1x3140
 303 475 284 457 261 457 c 0
 238 457 219 475 218 498 c 1
 217 476 199 458 177 457 c 1
 200 456 218 437 218 414 c 1
 218 391 200 372 177 371 c 1x72
 200 370 218 352 218 329 c 0
 218 306 200 287 177 286 c 1
 199 285 217 267 218 245 c 1xa2
 219 268 238 286 261 286 c 0
 284 286 303 268 304 245 c 1
 305 268 324 286 347 286 c 0
 371 286 390 267 390 243 c 0xa140
475 329 m 0
 475 305 456 286 432 286 c 0
 408 286 390 305 390 329 c 0
 390 352 407 370 430 371 c 1
 407 372 390 391 390 414 c 0
 390 438 408 457 432 457 c 0
 456 457 475 438 475 414 c 0
 475 391 458 372 435 371 c 1x6040
 458 370 475 352 475 329 c 0
475 586 m 1
 475 562 456 543 432 543 c 0
 408 543 390 562 390 586 c 0
 390 609 407 628 430 629 c 1x3040
 407 630 390 648 390 671 c 1
 390 695 408 714 432 714 c 0x2840
 456 714 475 695 475 671 c 0
 475 648 458 630 435 629 c 1x3040
 458 628 475 609 475 586 c 1
EndSplineSet
EndChar

StartChar: E
Encoding: 69 69 40
Width: 522
VWidth: 0
UnlinkRmOvrlpSave: 1
Flags: W
HStem: 200 86<52.6424 87 92 126.448 137.784 212.216 223.784 298.216 309.784 384.216 395.552 469.358> 286 85<52.5796 87 92 126.42> 371 86<52.5796 87 92 126.42> 457 86<52.5796 87 92 126.711 137.784 212.216 223.784 298.358> 543 86<52.5796 87 92 126.42> 629 85<52.5796 87 92 126.42> 714 86<52.6424 87 92 126.448 137.784 212.216 223.784 298.216 309.784 384.216 395.552 469.358>
VStem: 47 85<205.642 241 245 280.479 291.284 365.928 376.284 451.716 462.521 498 502 537.479 548.284 623.716 634.072 708.716 719.521 755 759 794.358> 218 86<205.853 241 245 280.147 462.853 498 502 537.147 719.853 755 759 794.147> 390 85<205.642 241 245 280.358 719.642 755 759 794.358>
CounterMasks: 1 01c0
LayerCount: 2
Back
Fore
SplineSet
475 243 m 0x81c0
 475 219 456 200 432 200 c 0
 409 200 391 218 390 241 c 1
 389 218 370 200 347 200 c 1
 324 200 305 218 304 241 c 1
 303 218 284 200 261 200 c 1
 238 200 219 218 218 241 c 1
 217 218 198 200 175 200 c 0
 152 200 133 218 132 241 c 1
 131 218 113 200 90 200 c 1
 66 200 47 219 47 243 c 0
 47 266 64 285 87 286 c 1x81c0
 64 287 47 306 47 329 c 0
 47 352 64 370 87 371 c 1x41c0
 64 372 47 391 47 414 c 0
 47 437 64 456 87 457 c 1x21c0
 64 458 47 477 47 500 c 1
 47 523 64 542 87 543 c 1x11c0
 64 544 47 563 47 586 c 0
 47 609 64 628 87 629 c 1x09c0
 64 630 47 648 47 671 c 0
 47 694 64 713 87 714 c 1x05c0
 64 715 47 734 47 757 c 0
 47 781 66 800 90 800 c 0
 113 800 131 782 132 759 c 1
 133 782 152 800 175 800 c 0
 198 800 217 782 218 759 c 1
 219 782 238 800 261 800 c 0
 284 800 303 782 304 759 c 1
 305 782 324 800 347 800 c 0
 370 800 389 782 390 759 c 1
 391 782 409 800 432 800 c 0
 456 800 475 781 475 757 c 0
 475 733 456 714 432 714 c 0
 409 714 391 732 390 755 c 1
 389 732 370 714 347 714 c 0
 324 714 305 732 304 755 c 1
 303 732 284 714 261 714 c 0
 238 714 219 732 218 755 c 1
 217 732 198 714 175 714 c 0x03c0
 152 714 133 732 132 755 c 1
 131 733 114 715 92 714 c 1x05c0
 115 713 132 694 132 671 c 0
 132 648 115 630 92 629 c 1x09c0
 115 628 132 609 132 586 c 0
 132 563 115 544 92 543 c 1
 114 542 131 524 132 502 c 1
 133 525 152 543 175 543 c 1
 198 543 217 525 218 502 c 1
 219 525 238 543 261 543 c 0
 285 543 304 524 304 500 c 0
 304 476 285 457 261 457 c 0
 238 457 219 475 218 498 c 1
 217 475 198 457 175 457 c 0x11c0
 152 457 133 475 132 498 c 1
 131 476 114 458 92 457 c 1x21c0
 115 456 132 437 132 414 c 1
 132 391 115 372 92 371 c 1x41c0
 115 370 132 352 132 329 c 0
 132 306 115 287 92 286 c 1
 114 285 131 267 132 245 c 1
 133 268 152 286 175 286 c 1
 198 286 217 268 218 245 c 1
 219 268 238 286 261 286 c 0
 284 286 303 268 304 245 c 1
 305 268 324 286 347 286 c 0
 370 286 389 268 390 245 c 1
 391 268 409 286 432 286 c 0
 456 286 475 267 475 243 c 0x81c0
EndSplineSet
EndChar

StartChar: D
Encoding: 68 68 41
Width: 522
VWidth: 0
UnlinkRmOvrlpSave: 1
Flags: W
HStem: 200 86<52.6424 126.448 137.784 173 177 212.216 223.784 298.216 309.784 384.358> 286 85<137.853 173 177 212.147 395.58 430 435 469.358> 457 86<137.853 173 177 212.147 395.58 430 435 469.42> 629 85<137.853 173 177 212.147 395.58 430 435 469.358> 714 86<52.6424 126.448 137.784 173 177 212.216 223.784 298.216 309.784 384.358>
VStem: 47 85<205.642 241 245 280.358 719.642 755 759 794.358> 132 86<205.853 241 245 280.479 291.784 365.448 376.784 451.216 462.784 537.216 548.784 623.216 634.552 708.216 719.521 755 759 794.147> 218 86<205.853 241 245 280.147 719.853 755 759 794.147> 304 86<205.853 241 245 280.147 719.853 755 759 794.147> 390 85<291.642 365.928 376.284 451.716 462.284 537.716 548.284 623.716 634.072 708.358>
LayerCount: 2
Back
Fore
SplineSet
390 243 m 0xa140
 390 219 371 200 347 200 c 0
 324 200 305 218 304 241 c 1xa140
 303 218 284 200 261 200 c 1
 238 200 219 218 218 241 c 1xa2
 217 218 198 200 175 200 c 0
 152 200 133 218 132 241 c 1
 131 218 113 200 90 200 c 1
 66 200 47 219 47 243 c 0
 47 267 66 286 90 286 c 0
 113 286 131 268 132 245 c 1
 133 267 151 285 173 286 c 1xa4
 150 287 132 306 132 329 c 0
 132 352 150 370 173 371 c 1
 150 372 132 391 132 414 c 0
 132 437 150 456 173 457 c 1
 150 458 132 477 132 500 c 1
 132 523 150 542 173 543 c 1
 150 544 132 563 132 586 c 0
 132 609 150 628 173 629 c 1
 150 630 132 648 132 671 c 0
 132 694 150 713 173 714 c 1x72
 151 715 133 733 132 755 c 1
 131 732 113 714 90 714 c 0
 66 714 47 733 47 757 c 0
 47 781 66 800 90 800 c 0
 113 800 131 782 132 759 c 1x2c
 133 782 152 800 175 800 c 0
 198 800 217 782 218 759 c 1x2a
 219 782 238 800 261 800 c 0
 284 800 303 782 304 759 c 1
 305 782 324 800 347 800 c 0
 371 800 390 781 390 757 c 0
 390 733 371 714 347 714 c 0
 324 714 305 732 304 755 c 1
 303 732 284 714 261 714 c 0x2940
 238 714 219 732 218 755 c 1
 217 733 199 715 177 714 c 1
 200 713 218 694 218 671 c 0
 218 648 200 630 177 629 c 1
 200 628 218 609 218 586 c 0
 218 563 200 544 177 543 c 1
 200 542 218 523 218 500 c 0
 218 477 200 458 177 457 c 1
 200 456 218 437 218 414 c 1
 218 391 200 372 177 371 c 1x72
 200 370 218 352 218 329 c 0
 218 306 200 287 177 286 c 1
 199 285 217 267 218 245 c 1xa2
 219 268 238 286 261 286 c 0
 284 286 303 268 304 245 c 1
 305 268 324 286 347 286 c 0
 371 286 390 267 390 243 c 0xa140
475 329 m 0
 475 305 456 286 432 286 c 0
 408 286 390 305 390 329 c 0
 390 352 407 370 430 371 c 1
 407 372 390 391 390 414 c 0
 390 437 407 456 430 457 c 1
 407 458 390 477 390 500 c 0
 390 523 407 542 430 543 c 1
 407 544 390 563 390 586 c 0
 390 609 407 628 430 629 c 1x7040
 407 630 390 648 390 671 c 1
 390 695 408 714 432 714 c 0x2840
 456 714 475 695 475 671 c 0
 475 648 458 630 435 629 c 1
 458 628 475 609 475 586 c 1
 475 563 458 544 435 543 c 1
 458 542 475 523 475 500 c 0
 475 477 458 458 435 457 c 1
 458 456 475 437 475 414 c 0
 475 391 458 372 435 371 c 1x7040
 458 370 475 352 475 329 c 0
EndSplineSet
EndChar

StartChar: G
Encoding: 71 71 42
Width: 522
VWidth: 0
UnlinkRmOvrlpSave: 1
Flags: W
HStem: 200 86<137.642 212.216 223.784 298.216 309.784 384.216 395.552 430 435 469.358> 286 85<52.6424 87 92 126.42 395.58 430 435 469.42> 457 86<52.5796 87 92 126.42 309.642 384.216 395.552 430 435 469.358> 629 85<52.6424 87 92 126.42> 714 86<137.642 212.216 223.784 298.216 309.784 384.216 395.552 469.358>
VStem: 47 85<291.642 365.928 376.284 451.716 462.284 537.716 548.284 623.716 634.072 708.358> 132 86<205.853 241 245 280.147 719.853 755 759 794.147> 218 86<205.853 241 245 280.147 719.853 755 759 794.147> 390 85<205.642 241 245 280.479 291.284 365.928 376.284 451.716 462.521 498 502 537.358 719.642 755 759 794.358>
LayerCount: 2
Back
Fore
SplineSet
475 243 m 0xa180
 475 219 456 200 432 200 c 0
 409 200 391 218 390 241 c 1
 389 218 370 200 347 200 c 1
 324 200 305 218 304 241 c 1xa180
 303 218 284 200 261 200 c 1
 238 200 219 218 218 241 c 1
 217 218 198 200 175 200 c 0
 151 200 132 219 132 243 c 0
 132 267 151 286 175 286 c 0
 198 286 217 268 218 245 c 1xa280
 219 268 238 286 261 286 c 0
 284 286 303 268 304 245 c 1
 305 268 324 286 347 286 c 0
 370 286 389 268 390 245 c 1
 391 267 408 285 430 286 c 1xa180
 407 287 390 306 390 329 c 0
 390 352 407 370 430 371 c 1
 407 372 390 391 390 414 c 0
 390 437 407 456 430 457 c 1
 408 458 391 476 390 498 c 1
 389 475 370 457 347 457 c 0
 323 457 304 476 304 500 c 0
 304 524 323 543 347 543 c 0
 370 543 389 525 390 502 c 1
 391 525 409 543 432 543 c 0
 456 543 475 524 475 500 c 0
 475 477 458 458 435 457 c 1
 458 456 475 437 475 414 c 0
 475 391 458 372 435 371 c 1x6180
 458 370 475 352 475 329 c 0
 475 306 458 287 435 286 c 1
 458 285 475 266 475 243 c 0xa180
132 329 m 0x7480
 132 305 114 286 90 286 c 0
 66 286 47 305 47 329 c 0
 47 352 64 370 87 371 c 1
 64 372 47 391 47 414 c 0
 47 437 64 456 87 457 c 1
 64 458 47 477 47 500 c 1
 47 523 64 542 87 543 c 1
 64 544 47 563 47 586 c 0
 47 609 64 628 87 629 c 1x7480
 64 630 47 648 47 671 c 0
 47 695 66 714 90 714 c 0x2c80
 114 714 132 695 132 671 c 0
 132 648 115 630 92 629 c 1
 115 628 132 609 132 586 c 0
 132 563 115 544 92 543 c 1
 115 542 132 523 132 500 c 0
 132 477 115 458 92 457 c 1
 115 456 132 437 132 414 c 1
 132 391 115 372 92 371 c 1
 115 370 132 352 132 329 c 0x7480
475 757 m 0
 475 733 456 714 432 714 c 0
 409 714 391 732 390 755 c 1
 389 732 370 714 347 714 c 0
 324 714 305 732 304 755 c 1x2980
 303 732 284 714 261 714 c 0
 238 714 219 732 218 755 c 1
 217 732 198 714 175 714 c 0
 151 714 132 733 132 757 c 0
 132 781 151 800 175 800 c 0
 198 800 217 782 218 759 c 1x2a80
 219 782 238 800 261 800 c 0
 284 800 303 782 304 759 c 1
 305 782 324 800 347 800 c 0
 370 800 389 782 390 759 c 1
 391 782 409 800 432 800 c 0x2980
 456 800 475 781 475 757 c 0
EndSplineSet
EndChar

StartChar: F
Encoding: 70 70 43
Width: 522
VWidth: 0
UnlinkRmOvrlpSave: 1
Flags: W
HStem: 200 86<52.6424 87 92 126.42> 286 85<52.5796 87 92 126.42> 371 86<52.5796 87 92 126.42> 457 86<52.5796 87 92 126.711 137.784 212.216 223.784 298.358> 543 86<52.5796 87 92 126.42> 629 85<52.5796 87 92 126.42> 714 86<52.6424 87 92 126.448 137.784 212.216 223.784 298.216 309.784 384.216 395.552 469.358>
VStem: 47 85<205.642 280.716 291.284 365.928 376.284 451.716 462.521 498 502 537.479 548.284 623.716 634.072 708.716 719.521 755 759 794.358> 218 86<462.853 498 502 537.147 719.853 755 759 794.147> 304 86<719.853 755 759 794.147> 390 85<719.642 755 759 794.358>
LayerCount: 2
Back
Fore
SplineSet
132 243 m 0x8180
 132 219 114 200 90 200 c 0
 66 200 47 219 47 243 c 0
 47 266 64 285 87 286 c 1x8180
 64 287 47 306 47 329 c 0
 47 352 64 370 87 371 c 1x4180
 64 372 47 391 47 414 c 0
 47 437 64 456 87 457 c 1x2180
 64 458 47 477 47 500 c 1
 47 523 64 542 87 543 c 1x1180
 64 544 47 563 47 586 c 0
 47 609 64 628 87 629 c 1x0980
 64 630 47 648 47 671 c 0
 47 694 64 713 87 714 c 1x0580
 64 715 47 734 47 757 c 0
 47 781 66 800 90 800 c 0
 113 800 131 782 132 759 c 1
 133 782 152 800 175 800 c 0
 198 800 217 782 218 759 c 1
 219 782 238 800 261 800 c 0
 284 800 303 782 304 759 c 1x0380
 305 782 324 800 347 800 c 0
 370 800 389 782 390 759 c 1x0340
 391 782 409 800 432 800 c 0
 456 800 475 781 475 757 c 0x0320
 475 733 456 714 432 714 c 0
 409 714 391 732 390 755 c 1x0340
 389 732 370 714 347 714 c 0
 324 714 305 732 304 755 c 1
 303 732 284 714 261 714 c 0
 238 714 219 732 218 755 c 1
 217 732 198 714 175 714 c 0x0380
 152 714 133 732 132 755 c 1
 131 733 114 715 92 714 c 1x0580
 115 713 132 694 132 671 c 0
 132 648 115 630 92 629 c 1x0980
 115 628 132 609 132 586 c 0
 132 563 115 544 92 543 c 1
 114 542 131 524 132 502 c 1
 133 525 152 543 175 543 c 1
 198 543 217 525 218 502 c 1x1180
 219 525 238 543 261 543 c 0
 285 543 304 524 304 500 c 0x1140
 304 476 285 457 261 457 c 0
 238 457 219 475 218 498 c 1
 217 475 198 457 175 457 c 0x1180
 152 457 133 475 132 498 c 1
 131 476 114 458 92 457 c 1x2180
 115 456 132 437 132 414 c 1
 132 391 115 372 92 371 c 1x4180
 115 370 132 352 132 329 c 0
 132 306 115 287 92 286 c 1
 115 285 132 266 132 243 c 0x8180
EndSplineSet
EndChar

StartChar: I
Encoding: 73 73 44
Width: 522
VWidth: 0
UnlinkRmOvrlpSave: 1
Flags: W
HStem: 200 86<52.6424 127.216 138.784 174 178 213.216 224.784 299.358> 286 85<138.853 174 178 213.147> 371 86<138.853 174 178 213.147> 457 86<138.853 174 178 213.147> 543 86<138.853 174 178 213.147> 629 85<138.853 174 178 213.147> 714 86<52.6424 127.216 138.784 174 178 213.216 224.784 299.358>
VStem: 47 86<205.853 241 245 280.147 719.853 755 759 794.147> 133 86<205.853 241 245 280.479 291.784 365.448 376.784 451.216 462.784 537.216 548.784 623.216 634.552 708.216 719.521 755 759 794.147> 219 86<205.853 241 245 280.147 719.853 755 759 794.147>
LayerCount: 2
Back
Fore
SplineSet
305 243 m 0x8040
 305 219 286 200 262 200 c 0
 239 200 220 218 219 241 c 1x8080
 218 218 199 200 176 200 c 1
 153 200 134 218 133 241 c 1
 132 218 113 200 90 200 c 0
 66 200 47 219 47 243 c 0
 47 267 66 286 90 286 c 0
 113 286 132 268 133 245 c 1
 134 267 152 285 174 286 c 1x81
 151 287 133 306 133 329 c 0
 133 352 151 370 174 371 c 1x4080
 151 372 133 391 133 414 c 0
 133 437 151 456 174 457 c 1x2080
 151 458 133 477 133 500 c 1
 133 523 151 542 174 543 c 1x1080
 151 544 133 563 133 586 c 0
 133 609 151 628 174 629 c 1x0880
 151 630 133 648 133 671 c 0
 133 694 151 713 174 714 c 1x0480
 152 715 134 733 133 755 c 1
 132 732 113 714 90 714 c 0
 66 714 47 733 47 757 c 0
 47 781 66 800 90 800 c 0
 113 800 132 782 133 759 c 1x03
 134 782 153 800 176 800 c 0
 199 800 218 782 219 759 c 1x0280
 220 782 239 800 262 800 c 0
 286 800 305 781 305 757 c 0
 305 733 286 714 262 714 c 0x0240
 239 714 220 732 219 755 c 1
 218 733 200 715 178 714 c 1x0480
 201 713 219 694 219 671 c 0
 219 648 201 630 178 629 c 1x0880
 201 628 219 609 219 586 c 1
 219 563 201 544 178 543 c 1x1080
 201 542 219 523 219 500 c 0
 219 477 201 458 178 457 c 1x2080
 201 456 219 437 219 414 c 1
 219 391 201 372 178 371 c 1x4080
 201 370 219 352 219 329 c 0
 219 306 201 287 178 286 c 1
 200 285 218 267 219 245 c 1x8080
 220 268 239 286 262 286 c 0
 286 286 305 267 305 243 c 0x8040
EndSplineSet
EndChar

StartChar: H
Encoding: 72 72 45
Width: 522
VWidth: 0
UnlinkRmOvrlpSave: 1
Flags: W
HStem: 286 85<52.5796 87 92 126.42 395.58 430 435 469.42> 457 86<52.5796 87 92 126.711 137.784 212.216 223.784 298.216 309.784 384.216 395.289 430 435 469.42> 629 85<52.5796 87 92 126.42 395.58 430 435 469.42>
VStem: 47 85<205.642 280.716 291.284 365.928 376.284 451.716 462.521 498 502 537.479 548.284 623.716 634.072 708.716 719.284 794.358> 218 86<462.853 498 502 537.147> 390 85<205.642 280.716 291.284 365.928 376.284 451.716 462.521 498 502 537.479 548.284 623.716 634.072 708.716 719.284 794.358>
CounterMasks: 1 fc
LayerCount: 2
Back
Fore
SplineSet
475 243 m 0
 475 219 456 200 432 200 c 0
 408 200 390 219 390 243 c 0
 390 266 407 285 430 286 c 1
 407 287 390 306 390 329 c 0
 390 352 407 370 430 371 c 1
 407 372 390 391 390 414 c 0
 390 437 407 456 430 457 c 1
 408 458 391 476 390 498 c 1
 389 475 370 457 347 457 c 0
 324 457 305 475 304 498 c 1
 303 475 284 457 261 457 c 0
 238 457 219 475 218 498 c 1
 217 475 198 457 175 457 c 0
 152 457 133 475 132 498 c 1
 131 476 114 458 92 457 c 1
 115 456 132 437 132 414 c 1
 132 391 115 372 92 371 c 1
 115 370 132 352 132 329 c 0
 132 306 115 287 92 286 c 1
 115 285 132 266 132 243 c 0
 132 219 114 200 90 200 c 0
 66 200 47 219 47 243 c 0
 47 266 64 285 87 286 c 1
 64 287 47 306 47 329 c 0
 47 352 64 370 87 371 c 1
 64 372 47 391 47 414 c 0
 47 437 64 456 87 457 c 1
 64 458 47 477 47 500 c 1
 47 523 64 542 87 543 c 1
 64 544 47 563 47 586 c 0
 47 609 64 628 87 629 c 1
 64 630 47 648 47 671 c 0
 47 694 64 713 87 714 c 1
 64 715 47 734 47 757 c 0
 47 781 66 800 90 800 c 0
 114 800 132 781 132 757 c 0
 132 734 115 715 92 714 c 1
 115 713 132 694 132 671 c 0
 132 648 115 630 92 629 c 1
 115 628 132 609 132 586 c 0
 132 563 115 544 92 543 c 1
 114 542 131 524 132 502 c 1
 133 525 152 543 175 543 c 1
 198 543 217 525 218 502 c 1
 219 525 238 543 261 543 c 0
 284 543 303 525 304 502 c 1
 305 525 324 543 347 543 c 0
 370 543 389 525 390 502 c 1
 391 524 408 542 430 543 c 1
 407 544 390 563 390 586 c 0
 390 609 407 628 430 629 c 1
 407 630 390 648 390 671 c 1
 390 694 407 713 430 714 c 1
 407 715 390 734 390 757 c 0
 390 781 408 800 432 800 c 0
 456 800 475 781 475 757 c 0
 475 734 458 715 435 714 c 1
 458 713 475 694 475 671 c 0
 475 648 458 630 435 629 c 1
 458 628 475 609 475 586 c 1
 475 563 458 544 435 543 c 1
 458 542 475 523 475 500 c 0
 475 477 458 458 435 457 c 1
 458 456 475 437 475 414 c 0
 475 391 458 372 435 371 c 1
 458 370 475 352 475 329 c 0
 475 306 458 287 435 286 c 1
 458 285 475 266 475 243 c 0
EndSplineSet
EndChar

StartChar: K
Encoding: 75 75 46
Width: 522
VWidth: 0
UnlinkRmOvrlpSave: 1
Flags: W
HStem: 200 86<52.6424 87 92 126.42 395.39 469.358> 286 85<52.5796 87 92 126.42 309.642 384.358> 371 86<52.5796 87 92 126.42 223.642 298.358> 457 86<52.5796 87 92 126.711 137.784 212.358> 543 86<52.5796 87 92 126.42 223.642 298.358> 629 85<52.5796 87 92 126.42 309.642 384.358> 714 86<52.6424 87 92 126.42 395.39 469.358>
VStem: 47 85<205.642 280.716 291.284 365.928 376.284 451.716 462.521 498 502 537.479 548.284 623.716 634.072 708.716 719.284 794.358> 218 86<376.642 451.358 548.642 623.358> 304 86<291.642 365.61 634.39 708.358> 390 85<205.642 280.358 719.642 794.358>
LayerCount: 2
Back
Fore
SplineSet
475 243 m 0x8120
 475 219 456 200 432 200 c 0
 408 200 390 219 390 243 c 0
 390 267 408 286 432 286 c 0
 456 286 475 267 475 243 c 0x8120
132 243 m 0
 132 219 114 200 90 200 c 0
 66 200 47 219 47 243 c 0
 47 266 64 285 87 286 c 1x8180
 64 287 47 306 47 329 c 0
 47 352 64 370 87 371 c 1x4180
 64 372 47 391 47 414 c 0
 47 437 64 456 87 457 c 1x2180
 64 458 47 477 47 500 c 1
 47 523 64 542 87 543 c 1x1180
 64 544 47 563 47 586 c 0
 47 609 64 628 87 629 c 1x0980
 64 630 47 648 47 671 c 0
 47 694 64 713 87 714 c 1x0580
 64 715 47 734 47 757 c 0
 47 781 66 800 90 800 c 0x0380
 114 800 132 781 132 757 c 0
 132 734 115 715 92 714 c 1x0580
 115 713 132 694 132 671 c 0
 132 648 115 630 92 629 c 1x0980
 115 628 132 609 132 586 c 0
 132 563 115 544 92 543 c 1
 114 542 131 524 132 502 c 1
 133 525 152 543 175 543 c 1
 199 543 218 524 218 500 c 0
 218 476 199 457 175 457 c 0x1180
 152 457 133 475 132 498 c 1
 131 476 114 458 92 457 c 1x2180
 115 456 132 437 132 414 c 1
 132 391 115 372 92 371 c 1x4180
 115 370 132 352 132 329 c 0
 132 306 115 287 92 286 c 1
 115 285 132 266 132 243 c 0
390 329 m 0x4140
 390 305 371 286 347 286 c 0
 323 286 304 305 304 329 c 0
 304 353 323 371 347 371 c 0
 371 371 390 353 390 329 c 0x4140
304 414 m 0x2180
 304 390 285 371 261 371 c 0
 237 371 218 390 218 414 c 0
 218 438 237 457 261 457 c 0
 285 457 304 438 304 414 c 0x2180
304 586 m 0
 304 562 285 543 261 543 c 0
 237 543 218 562 218 586 c 0
 218 610 237 629 261 629 c 0x0980
 285 629 304 610 304 586 c 0
390 671 m 0x0540
 390 647 371 629 347 629 c 0
 323 629 304 647 304 671 c 0
 304 695 323 714 347 714 c 0
 371 714 390 695 390 671 c 0x0540
475 757 m 0x0320
 475 733 456 714 432 714 c 0
 408 714 390 733 390 757 c 0
 390 781 408 800 432 800 c 0
 456 800 475 781 475 757 c 0x0320
EndSplineSet
EndChar

StartChar: J
Encoding: 74 74 47
Width: 522
VWidth: 0
UnlinkRmOvrlpSave: 1
Flags: W
HStem: 200 86<137.642 212.216 223.784 298.216 309.784 384.358> 286 85<52.6424 126.61 395.58 430 435 469.358> 457 86<395.58 430 435 469.42> 543 86<395.58 430 435 469.42> 629 85<395.58 430 435 469.42> 714 86<395.58 430 435 469.358>
VStem: 47 85<291.642 365.61> 132 86<205.853 241 245 280.147> 218 86<205.853 241 245 280.147> 304 86<205.853 241 245 280.147> 390 85<291.642 365.928 376.284 451.716 462.284 537.716 548.284 623.716 634.072 708.716 719.284 794.358>
LayerCount: 2
Back
Fore
SplineSet
390 243 m 0x80a0
 390 219 371 200 347 200 c 0
 324 200 305 218 304 241 c 1x80a0
 303 218 284 200 261 200 c 1
 238 200 219 218 218 241 c 1
 217 218 198 200 175 200 c 0
 151 200 132 219 132 243 c 0
 132 267 151 286 175 286 c 0
 198 286 217 268 218 245 c 1x81
 219 268 238 286 261 286 c 0
 284 286 303 268 304 245 c 1
 305 268 324 286 347 286 c 0
 371 286 390 267 390 243 c 0x80a0
475 329 m 0
 475 305 456 286 432 286 c 0
 408 286 390 305 390 329 c 0
 390 352 407 370 430 371 c 1
 407 372 390 391 390 414 c 0
 390 437 407 456 430 457 c 1
 407 458 390 477 390 500 c 0
 390 523 407 542 430 543 c 1x6020
 407 544 390 563 390 586 c 0
 390 609 407 628 430 629 c 1x1020
 407 630 390 648 390 671 c 1
 390 694 407 713 430 714 c 1x0820
 407 715 390 734 390 757 c 0
 390 781 408 800 432 800 c 0x0420
 456 800 475 781 475 757 c 0
 475 734 458 715 435 714 c 1x0820
 458 713 475 694 475 671 c 0
 475 648 458 630 435 629 c 1x1020
 458 628 475 609 475 586 c 1
 475 563 458 544 435 543 c 1
 458 542 475 523 475 500 c 0
 475 477 458 458 435 457 c 1
 458 456 475 437 475 414 c 0
 475 391 458 372 435 371 c 1x6020
 458 370 475 352 475 329 c 0
132 329 m 0x42
 132 305 114 286 90 286 c 0
 66 286 47 305 47 329 c 0
 47 353 66 371 90 371 c 0
 114 371 132 353 132 329 c 0x42
EndSplineSet
EndChar

StartChar: M
Encoding: 77 77 48
Width: 522
VWidth: 0
UnlinkRmOvrlpSave: 1
Flags: W
HStem: 286 85<52.5796 87 92 126.42 395.58 430 435 469.42> 457 86<52.5796 87 92 126.42 223.853 259 263 298.147 395.58 430 435 469.42> 543 86<52.5796 87 92 126.42 223.853 259 263 298.147 395.58 430 435 469.42> 629 85<52.5796 87 92 126.711 137.284 212.358 309.642 384.716 395.289 430 435 469.42>
VStem: 47 85<205.642 280.716 291.284 365.928 376.284 451.716 462.284 537.716 548.284 623.716 634.289 669 674 708.711 719.284 794.358> 218 86<462.642 537.216 548.784 623.358> 390 85<205.642 280.716 291.284 365.928 376.284 451.716 462.284 537.716 548.284 623.716 634.289 669 674 708.711 719.284 794.358>
CounterMasks: 1 0e
LayerCount: 2
Back
Fore
SplineSet
475 243 m 0xce
 475 219 456 200 432 200 c 0
 408 200 390 219 390 243 c 0
 390 266 407 285 430 286 c 1
 407 287 390 306 390 329 c 0
 390 352 407 370 430 371 c 1
 407 372 390 391 390 414 c 0
 390 437 407 456 430 457 c 1
 407 458 390 477 390 500 c 0
 390 523 407 542 430 543 c 1xce
 407 544 390 563 390 586 c 0
 390 609 407 628 430 629 c 1xae
 408 630 391 647 390 669 c 1
 389 646 370 629 347 629 c 0
 323 629 304 647 304 671 c 0
 304 695 323 714 347 714 c 0
 370 714 389 697 390 674 c 1
 391 696 408 713 430 714 c 1
 407 715 390 734 390 757 c 0
 390 781 408 800 432 800 c 0
 456 800 475 781 475 757 c 0
 475 734 458 715 435 714 c 1x9e
 458 713 475 694 475 671 c 0
 475 648 458 630 435 629 c 1xae
 458 628 475 609 475 586 c 1
 475 563 458 544 435 543 c 1
 458 542 475 523 475 500 c 0
 475 477 458 458 435 457 c 1
 458 456 475 437 475 414 c 0
 475 391 458 372 435 371 c 1
 458 370 475 352 475 329 c 0
 475 306 458 287 435 286 c 1
 458 285 475 266 475 243 c 0xce
132 243 m 0
 132 219 114 200 90 200 c 0
 66 200 47 219 47 243 c 0
 47 266 64 285 87 286 c 1
 64 287 47 306 47 329 c 0
 47 352 64 370 87 371 c 1
 64 372 47 391 47 414 c 0
 47 437 64 456 87 457 c 1
 64 458 47 477 47 500 c 1
 47 523 64 542 87 543 c 1xce
 64 544 47 563 47 586 c 0
 47 609 64 628 87 629 c 1xae
 64 630 47 648 47 671 c 0
 47 694 64 713 87 714 c 1
 64 715 47 734 47 757 c 0
 47 781 66 800 90 800 c 0
 114 800 132 781 132 757 c 0
 132 734 115 715 92 714 c 1
 114 713 131 696 132 674 c 1
 133 697 152 714 175 714 c 0
 199 714 218 695 218 671 c 0
 218 647 199 629 175 629 c 0x9e
 152 629 133 646 132 669 c 1
 131 647 114 630 92 629 c 1xae
 115 628 132 609 132 586 c 0
 132 563 115 544 92 543 c 1
 115 542 132 523 132 500 c 0
 132 477 115 458 92 457 c 1
 115 456 132 437 132 414 c 1
 132 391 115 372 92 371 c 1
 115 370 132 352 132 329 c 0
 132 306 115 287 92 286 c 1
 115 285 132 266 132 243 c 0
304 500 m 0
 304 476 285 457 261 457 c 0
 237 457 218 476 218 500 c 0
 218 523 236 542 259 543 c 1
 236 544 218 563 218 586 c 0
 218 610 237 629 261 629 c 0xde
 285 629 304 610 304 586 c 0
 304 563 286 544 263 543 c 1
 286 542 304 523 304 500 c 0
EndSplineSet
EndChar

StartChar: L
Encoding: 76 76 49
Width: 522
VWidth: 0
UnlinkRmOvrlpSave: 1
Flags: W
HStem: 200 86<52.6424 87 92 126.448 137.784 212.216 223.784 298.216 309.784 384.216 395.552 469.358> 286 85<52.5796 87 92 126.42> 371 86<52.5796 87 92 126.42> 457 86<52.5796 87 92 126.42> 543 86<52.5796 87 92 126.42> 629 85<52.5796 87 92 126.42> 714 86<52.6424 87 92 126.42>
VStem: 47 85<205.642 241 245 280.479 291.284 365.928 376.284 451.716 462.284 537.716 548.284 623.716 634.072 708.716 719.284 794.358> 218 86<205.853 241 245 280.147> 304 86<205.853 241 245 280.147> 390 85<205.642 241 245 280.358>
LayerCount: 2
Back
Fore
SplineSet
475 243 m 0x8120
 475 219 456 200 432 200 c 0
 409 200 391 218 390 241 c 1x8140
 389 218 370 200 347 200 c 1
 324 200 305 218 304 241 c 1
 303 218 284 200 261 200 c 1
 238 200 219 218 218 241 c 1
 217 218 198 200 175 200 c 0
 152 200 133 218 132 241 c 1
 131 218 113 200 90 200 c 1
 66 200 47 219 47 243 c 0
 47 266 64 285 87 286 c 1x8180
 64 287 47 306 47 329 c 0
 47 352 64 370 87 371 c 1x4180
 64 372 47 391 47 414 c 0
 47 437 64 456 87 457 c 1x2180
 64 458 47 477 47 500 c 1
 47 523 64 542 87 543 c 1x1180
 64 544 47 563 47 586 c 0
 47 609 64 628 87 629 c 1x0980
 64 630 47 648 47 671 c 0
 47 694 64 713 87 714 c 1x0580
 64 715 47 734 47 757 c 0
 47 781 66 800 90 800 c 0x0380
 114 800 132 781 132 757 c 0
 132 734 115 715 92 714 c 1x0580
 115 713 132 694 132 671 c 0
 132 648 115 630 92 629 c 1x0980
 115 628 132 609 132 586 c 0
 132 563 115 544 92 543 c 1x1180
 115 542 132 523 132 500 c 0
 132 477 115 458 92 457 c 1x2180
 115 456 132 437 132 414 c 1
 132 391 115 372 92 371 c 1x4180
 115 370 132 352 132 329 c 0
 132 306 115 287 92 286 c 1
 114 285 131 267 132 245 c 1
 133 268 152 286 175 286 c 1
 198 286 217 268 218 245 c 1
 219 268 238 286 261 286 c 0
 284 286 303 268 304 245 c 1x8180
 305 268 324 286 347 286 c 0
 370 286 389 268 390 245 c 1x8140
 391 268 409 286 432 286 c 0
 456 286 475 267 475 243 c 0x8120
EndSplineSet
EndChar

StartChar: O
Encoding: 79 79 50
Width: 522
VWidth: 0
UnlinkRmOvrlpSave: 1
Flags: W
HStem: 200 86<52.6424 87 92 126.448 137.784 212.216 223.784 298.216 309.784 384.216 395.552 430 435 469.358> 286 85<52.5796 87 92 126.42 395.58 430 435 469.42> 457 86<52.5796 87 92 126.42 395.58 430 435 469.42> 629 85<52.5796 87 92 126.42 395.58 430 435 469.42> 714 86<52.6424 87 92 126.448 137.784 212.216 223.784 298.216 309.784 384.216 395.552 430 435 469.358>
VStem: 47 85<205.642 241 245 280.479 291.284 365.928 376.284 451.716 462.284 537.716 548.284 623.716 634.072 708.716 719.521 755 759 794.358> 218 86<205.853 241 245 280.147 719.853 755 759 794.147> 390 85<205.642 241 245 280.479 291.284 365.928 376.284 451.716 462.284 537.716 548.284 623.716 634.072 708.716 719.521 755 759 794.358>
CounterMasks: 1 07
LayerCount: 2
Back
Fore
SplineSet
475 243 m 0xa7
 475 219 456 200 432 200 c 0
 409 200 391 218 390 241 c 1
 389 218 370 200 347 200 c 1
 324 200 305 218 304 241 c 1
 303 218 284 200 261 200 c 1
 238 200 219 218 218 241 c 1
 217 218 198 200 175 200 c 0
 152 200 133 218 132 241 c 1
 131 218 113 200 90 200 c 1
 66 200 47 219 47 243 c 0
 47 266 64 285 87 286 c 1xa7
 64 287 47 306 47 329 c 0
 47 352 64 370 87 371 c 1
 64 372 47 391 47 414 c 0
 47 437 64 456 87 457 c 1
 64 458 47 477 47 500 c 1
 47 523 64 542 87 543 c 1
 64 544 47 563 47 586 c 0
 47 609 64 628 87 629 c 1
 64 630 47 648 47 671 c 0
 47 694 64 713 87 714 c 1x77
 64 715 47 734 47 757 c 0
 47 781 66 800 90 800 c 0
 113 800 131 782 132 759 c 1
 133 782 152 800 175 800 c 0
 198 800 217 782 218 759 c 1
 219 782 238 800 261 800 c 0
 284 800 303 782 304 759 c 1
 305 782 324 800 347 800 c 0
 370 800 389 782 390 759 c 1
 391 782 409 800 432 800 c 0x2f
 456 800 475 781 475 757 c 0
 475 734 458 715 435 714 c 1
 458 713 475 694 475 671 c 0
 475 648 458 630 435 629 c 1
 458 628 475 609 475 586 c 1
 475 563 458 544 435 543 c 1
 458 542 475 523 475 500 c 0
 475 477 458 458 435 457 c 1
 458 456 475 437 475 414 c 0
 475 391 458 372 435 371 c 1x77
 458 370 475 352 475 329 c 0
 475 306 458 287 435 286 c 1
 458 285 475 266 475 243 c 0xa7
390 245 m 1
 391 267 408 285 430 286 c 1xa7
 407 287 390 306 390 329 c 0
 390 352 407 370 430 371 c 1
 407 372 390 391 390 414 c 0
 390 437 407 456 430 457 c 1
 407 458 390 477 390 500 c 0
 390 523 407 542 430 543 c 1
 407 544 390 563 390 586 c 0
 390 609 407 628 430 629 c 1
 407 630 390 648 390 671 c 1
 390 694 407 713 430 714 c 1x77
 408 715 391 733 390 755 c 1
 389 732 370 714 347 714 c 0
 324 714 305 732 304 755 c 1
 303 732 284 714 261 714 c 0
 238 714 219 732 218 755 c 1
 217 732 198 714 175 714 c 0x2f
 152 714 133 732 132 755 c 1
 131 733 114 715 92 714 c 1
 115 713 132 694 132 671 c 0
 132 648 115 630 92 629 c 1
 115 628 132 609 132 586 c 0
 132 563 115 544 92 543 c 1
 115 542 132 523 132 500 c 0
 132 477 115 458 92 457 c 1
 115 456 132 437 132 414 c 1
 132 391 115 372 92 371 c 1x77
 115 370 132 352 132 329 c 0
 132 306 115 287 92 286 c 1
 114 285 131 267 132 245 c 1
 133 268 152 286 175 286 c 1
 198 286 217 268 218 245 c 1
 219 268 238 286 261 286 c 0
 284 286 303 268 304 245 c 1
 305 268 324 286 347 286 c 0
 370 286 389 268 390 245 c 1
EndSplineSet
EndChar

StartChar: N
Encoding: 78 78 51
Width: 522
VWidth: 0
UnlinkRmOvrlpSave: 1
Flags: W
HStem: 286 85<52.5796 87 92 126.42 395.58 430 435 469.42> 457 86<52.5796 87 92 126.42 309.642 384.216 395.289 430 435 469.42> 543 86<52.5796 87 92 126.42 223.642 298.358 395.58 430 435 469.42> 629 85<52.5796 87 92 126.711 137.284 212.358 395.58 430 435 469.42>
VStem: 47 85<205.642 280.716 291.284 365.928 376.284 451.716 462.284 537.716 548.284 623.716 634.289 669 674 708.711 719.284 794.358> 218 86<548.642 623.358> 390 85<205.642 280.716 291.284 365.928 376.284 451.716 462.521 498 502 537.479 548.284 623.716 634.072 708.716 719.284 794.358>
CounterMasks: 1 0e
LayerCount: 2
Back
Fore
SplineSet
475 243 m 0xce
 475 219 456 200 432 200 c 0
 408 200 390 219 390 243 c 0
 390 266 407 285 430 286 c 1
 407 287 390 306 390 329 c 0
 390 352 407 370 430 371 c 1
 407 372 390 391 390 414 c 0
 390 437 407 456 430 457 c 1
 408 458 391 476 390 498 c 1
 389 475 370 457 347 457 c 0
 323 457 304 476 304 500 c 0
 304 524 323 543 347 543 c 0
 370 543 389 525 390 502 c 1
 391 524 408 542 430 543 c 1xce
 407 544 390 563 390 586 c 0
 390 609 407 628 430 629 c 1xae
 407 630 390 648 390 671 c 1
 390 694 407 713 430 714 c 1
 407 715 390 734 390 757 c 0
 390 781 408 800 432 800 c 0
 456 800 475 781 475 757 c 0
 475 734 458 715 435 714 c 1x9e
 458 713 475 694 475 671 c 0
 475 648 458 630 435 629 c 1xae
 458 628 475 609 475 586 c 1
 475 563 458 544 435 543 c 1
 458 542 475 523 475 500 c 0
 475 477 458 458 435 457 c 1
 458 456 475 437 475 414 c 0
 475 391 458 372 435 371 c 1
 458 370 475 352 475 329 c 0
 475 306 458 287 435 286 c 1
 458 285 475 266 475 243 c 0xce
132 243 m 0
 132 219 114 200 90 200 c 0
 66 200 47 219 47 243 c 0
 47 266 64 285 87 286 c 1
 64 287 47 306 47 329 c 0
 47 352 64 370 87 371 c 1
 64 372 47 391 47 414 c 0
 47 437 64 456 87 457 c 1
 64 458 47 477 47 500 c 1
 47 523 64 542 87 543 c 1xce
 64 544 47 563 47 586 c 0
 47 609 64 628 87 629 c 1xae
 64 630 47 648 47 671 c 0
 47 694 64 713 87 714 c 1
 64 715 47 734 47 757 c 0
 47 781 66 800 90 800 c 0
 114 800 132 781 132 757 c 0
 132 734 115 715 92 714 c 1
 114 713 131 696 132 674 c 1
 133 697 152 714 175 714 c 0
 199 714 218 695 218 671 c 0
 218 647 199 629 175 629 c 0x9e
 152 629 133 646 132 669 c 1
 131 647 114 630 92 629 c 1xae
 115 628 132 609 132 586 c 0
 132 563 115 544 92 543 c 1
 115 542 132 523 132 500 c 0
 132 477 115 458 92 457 c 1
 115 456 132 437 132 414 c 1
 132 391 115 372 92 371 c 1
 115 370 132 352 132 329 c 0
 132 306 115 287 92 286 c 1
 115 285 132 266 132 243 c 0
304 586 m 0
 304 562 285 543 261 543 c 0
 237 543 218 562 218 586 c 0
 218 610 237 629 261 629 c 0xae
 285 629 304 610 304 586 c 0
EndSplineSet
EndChar

StartChar: Q
Encoding: 81 81 52
Width: 522
VWidth: 0
UnlinkRmOvrlpSave: 1
Flags: W
HStem: 200 86<137.642 212.216 223.784 298.358 395.39 469.358> 286 85<52.6424 87 92 126.42 309.642 384.358> 371 86<52.5796 87 92 126.42 223.642 298.358 395.58 430 435 469.358> 457 86<52.5796 87 92 126.42 395.58 430 435 469.42> 629 85<52.6424 87 92 126.42 395.58 430 435 469.358> 714 86<137.642 212.216 223.784 298.216 309.784 384.358>
VStem: 47 85<291.642 365.928 376.284 451.716 462.284 537.716 548.284 623.716 634.072 708.358> 132 86<205.853 241 245 280.147 719.853 755 759 794.147> 218 86<205.853 241 245 280.147 376.642 451.358 719.853 755 759 794.147> 304 86<291.642 365.61 719.853 755 759 794.147> 390 85<205.642 280.358 376.642 451.716 462.284 537.716 548.284 623.716 634.072 708.358>
LayerCount: 2
Back
Fore
SplineSet
475 243 m 0x8020
 475 219 456 200 432 200 c 0
 408 200 390 219 390 243 c 0
 390 267 408 286 432 286 c 0
 456 286 475 267 475 243 c 0x8020
304 243 m 0x8140
 304 219 285 200 261 200 c 0
 238 200 219 218 218 241 c 1
 217 218 198 200 175 200 c 0
 151 200 132 219 132 243 c 0
 132 267 151 286 175 286 c 0
 198 286 217 268 218 245 c 1
 219 268 238 286 261 286 c 0
 285 286 304 267 304 243 c 0x8140
390 329 m 0
 390 305 371 286 347 286 c 0
 323 286 304 305 304 329 c 0
 304 353 323 371 347 371 c 0x4040
 371 371 390 353 390 329 c 0
132 329 m 0x42
 132 305 114 286 90 286 c 0
 66 286 47 305 47 329 c 0
 47 352 64 370 87 371 c 1x42
 64 372 47 391 47 414 c 0
 47 437 64 456 87 457 c 1x22
 64 458 47 477 47 500 c 1
 47 523 64 542 87 543 c 1
 64 544 47 563 47 586 c 0
 47 609 64 628 87 629 c 1x1a
 64 630 47 648 47 671 c 0
 47 695 66 714 90 714 c 0x06
 114 714 132 695 132 671 c 0
 132 648 115 630 92 629 c 1
 115 628 132 609 132 586 c 0
 132 563 115 544 92 543 c 1x1a
 115 542 132 523 132 500 c 0
 132 477 115 458 92 457 c 1x22
 115 456 132 437 132 414 c 1
 132 391 115 372 92 371 c 1
 115 370 132 352 132 329 c 0x42
475 414 m 0x2020
 475 390 456 371 432 371 c 0
 408 371 390 390 390 414 c 0
 390 437 407 456 430 457 c 1x2020
 407 458 390 477 390 500 c 0
 390 523 407 542 430 543 c 1
 407 544 390 563 390 586 c 0
 390 609 407 628 430 629 c 1x1820
 407 630 390 648 390 671 c 1
 390 695 408 714 432 714 c 0x0420
 456 714 475 695 475 671 c 0
 475 648 458 630 435 629 c 1
 458 628 475 609 475 586 c 1
 475 563 458 544 435 543 c 1x1820
 458 542 475 523 475 500 c 0
 475 477 458 458 435 457 c 1
 458 456 475 437 475 414 c 0x2020
304 414 m 0x2080
 304 390 285 371 261 371 c 0
 237 371 218 390 218 414 c 0
 218 438 237 457 261 457 c 0
 285 457 304 438 304 414 c 0x2080
390 757 m 0x04a0
 390 733 371 714 347 714 c 0
 324 714 305 732 304 755 c 1x04a0
 303 732 284 714 261 714 c 0
 238 714 219 732 218 755 c 1
 217 732 198 714 175 714 c 0
 151 714 132 733 132 757 c 0
 132 781 151 800 175 800 c 0
 198 800 217 782 218 759 c 1x05
 219 782 238 800 261 800 c 0
 284 800 303 782 304 759 c 1
 305 782 324 800 347 800 c 0
 371 800 390 781 390 757 c 0x04a0
EndSplineSet
EndChar

StartChar: P
Encoding: 80 80 53
Width: 522
VWidth: 0
UnlinkRmOvrlpSave: 1
Flags: W
HStem: 200 86<52.6424 87 92 126.42> 286 85<52.5796 87 92 126.42> 371 86<52.5796 87 92 126.42> 457 86<52.5796 87 92 126.711 137.784 212.216 223.784 298.216 309.784 384.358> 629 85<52.5796 87 92 126.42 395.58 430 435 469.358> 714 86<52.6424 87 92 126.448 137.784 212.216 223.784 298.216 309.784 384.358>
VStem: 47 85<205.642 280.716 291.284 365.928 376.284 451.716 462.521 498 502 537.479 548.284 623.716 634.072 708.716 719.521 755 759 794.358> 218 86<462.853 498 502 537.147 719.853 755 759 794.147> 304 86<462.853 498 502 537.147 719.853 755 759 794.147> 390 85<548.642 623.716 634.072 708.358>
LayerCount: 2
Back
Fore
SplineSet
132 243 m 0x8340
 132 219 114 200 90 200 c 0
 66 200 47 219 47 243 c 0
 47 266 64 285 87 286 c 1x8340
 64 287 47 306 47 329 c 0
 47 352 64 370 87 371 c 1x4340
 64 372 47 391 47 414 c 0
 47 437 64 456 87 457 c 1x2340
 64 458 47 477 47 500 c 1
 47 523 64 542 87 543 c 1
 64 544 47 563 47 586 c 0
 47 609 64 628 87 629 c 1
 64 630 47 648 47 671 c 0
 47 694 64 713 87 714 c 1x1b40
 64 715 47 734 47 757 c 0
 47 781 66 800 90 800 c 0
 113 800 131 782 132 759 c 1
 133 782 152 800 175 800 c 0
 198 800 217 782 218 759 c 1
 219 782 238 800 261 800 c 0
 284 800 303 782 304 759 c 1
 305 782 324 800 347 800 c 0
 371 800 390 781 390 757 c 0
 390 733 371 714 347 714 c 0
 324 714 305 732 304 755 c 1
 303 732 284 714 261 714 c 0
 238 714 219 732 218 755 c 1
 217 732 198 714 175 714 c 0x0740
 152 714 133 732 132 755 c 1
 131 733 114 715 92 714 c 1
 115 713 132 694 132 671 c 0
 132 648 115 630 92 629 c 1
 115 628 132 609 132 586 c 0
 132 563 115 544 92 543 c 1
 114 542 131 524 132 502 c 1
 133 525 152 543 175 543 c 1
 198 543 217 525 218 502 c 1
 219 525 238 543 261 543 c 0
 284 543 303 525 304 502 c 1
 305 525 324 543 347 543 c 0
 371 543 390 524 390 500 c 0
 390 476 371 457 347 457 c 0
 324 457 305 475 304 498 c 1
 303 475 284 457 261 457 c 0
 238 457 219 475 218 498 c 1
 217 475 198 457 175 457 c 0x1b40
 152 457 133 475 132 498 c 1
 131 476 114 458 92 457 c 1x2340
 115 456 132 437 132 414 c 1
 132 391 115 372 92 371 c 1x4340
 115 370 132 352 132 329 c 0
 132 306 115 287 92 286 c 1
 115 285 132 266 132 243 c 0x8340
475 586 m 1
 475 562 456 543 432 543 c 0
 408 543 390 562 390 586 c 0
 390 609 407 628 430 629 c 1x1a40
 407 630 390 648 390 671 c 1
 390 695 408 714 432 714 c 0x0640
 456 714 475 695 475 671 c 0
 475 648 458 630 435 629 c 1x0a40
 458 628 475 609 475 586 c 1
EndSplineSet
EndChar

StartChar: S
Encoding: 83 83 54
Width: 522
VWidth: 0
UnlinkRmOvrlpSave: 1
Flags: W
HStem: 200 86<137.642 212.216 223.784 298.216 309.784 384.358> 286 85<52.6424 126.61 395.39 469.358> 371 86<309.642 384.358> 457 86<223.642 298.358> 543 86<137.642 212.358> 629 85<52.6424 126.61 395.39 469.358> 714 86<137.642 212.216 223.784 298.216 309.784 384.358>
VStem: 47 85<291.642 365.61 634.39 708.358> 132 86<205.853 241 245 280.147 548.642 623.358 719.853 755 759 794.147> 218 86<205.853 241 245 280.147 462.642 537.358 719.853 755 759 794.147> 304 86<205.853 241 245 280.147 376.642 451.358 719.853 755 759 794.147> 390 85<291.642 365.61 634.39 708.358>
LayerCount: 2
Back
Fore
SplineSet
390 243 m 0x8050
 390 219 371 200 347 200 c 0
 324 200 305 218 304 241 c 1x8050
 303 218 284 200 261 200 c 1
 238 200 219 218 218 241 c 1
 217 218 198 200 175 200 c 0
 151 200 132 219 132 243 c 0
 132 267 151 286 175 286 c 0
 198 286 217 268 218 245 c 1x8080
 219 268 238 286 261 286 c 0
 284 286 303 268 304 245 c 1
 305 268 324 286 347 286 c 0
 371 286 390 267 390 243 c 0x8050
475 329 m 0
 475 305 456 286 432 286 c 0
 408 286 390 305 390 329 c 0
 390 353 408 371 432 371 c 0x4010
 456 371 475 353 475 329 c 0
132 329 m 0x41
 132 305 114 286 90 286 c 0
 66 286 47 305 47 329 c 0
 47 353 66 371 90 371 c 0
 114 371 132 353 132 329 c 0x41
390 414 m 0x2020
 390 390 371 371 347 371 c 0
 323 371 304 390 304 414 c 0
 304 438 323 457 347 457 c 0
 371 457 390 438 390 414 c 0x2020
304 500 m 0x1040
 304 476 285 457 261 457 c 0
 237 457 218 476 218 500 c 0
 218 524 237 543 261 543 c 0
 285 543 304 524 304 500 c 0x1040
218 586 m 0x0880
 218 562 199 543 175 543 c 0
 151 543 132 562 132 586 c 0
 132 610 151 629 175 629 c 0
 199 629 218 610 218 586 c 0x0880
475 671 m 0x0410
 475 647 456 629 432 629 c 0
 408 629 390 647 390 671 c 0
 390 695 408 714 432 714 c 0
 456 714 475 695 475 671 c 0x0410
132 671 m 0x05
 132 647 114 629 90 629 c 0
 66 629 47 647 47 671 c 0
 47 695 66 714 90 714 c 0
 114 714 132 695 132 671 c 0x05
390 757 m 0x0250
 390 733 371 714 347 714 c 0
 324 714 305 732 304 755 c 1x0250
 303 732 284 714 261 714 c 0
 238 714 219 732 218 755 c 1
 217 732 198 714 175 714 c 0
 151 714 132 733 132 757 c 0
 132 781 151 800 175 800 c 0
 198 800 217 782 218 759 c 1x0280
 219 782 238 800 261 800 c 0
 284 800 303 782 304 759 c 1
 305 782 324 800 347 800 c 0
 371 800 390 781 390 757 c 0x0250
EndSplineSet
EndChar

StartChar: R
Encoding: 82 82 55
Width: 522
VWidth: 0
UnlinkRmOvrlpSave: 1
Flags: W
HStem: 200 86<52.6424 87 92 126.42 395.39 469.358> 286 85<52.5796 87 92 126.42 309.642 384.358> 371 86<52.5796 87 92 126.42 223.853 259 263 298.147> 457 86<52.5796 87 92 126.711 137.784 212.216 223.784 259 263 298.216 309.784 384.358> 629 85<52.5796 87 92 126.42 395.58 430 435 469.358> 714 86<52.6424 87 92 126.448 137.784 212.216 223.784 298.216 309.784 384.358>
VStem: 47 85<205.642 280.716 291.284 365.928 376.284 451.716 462.521 498 502 537.479 548.284 623.716 634.072 708.716 719.521 755 759 794.358> 218 86<376.642 451.216 462.521 498 502 537.147 719.853 755 759 794.147> 304 86<291.642 365.61 462.853 498 502 537.147 719.853 755 759 794.147> 390 85<205.642 280.358 548.642 623.716 634.072 708.358>
LayerCount: 2
Back
Fore
SplineSet
475 243 m 0x8240
 475 219 456 200 432 200 c 0
 408 200 390 219 390 243 c 0
 390 267 408 286 432 286 c 0
 456 286 475 267 475 243 c 0x8240
132 243 m 0
 132 219 114 200 90 200 c 0
 66 200 47 219 47 243 c 0
 47 266 64 285 87 286 c 1x8340
 64 287 47 306 47 329 c 0
 47 352 64 370 87 371 c 1x4340
 64 372 47 391 47 414 c 0
 47 437 64 456 87 457 c 1x2340
 64 458 47 477 47 500 c 1
 47 523 64 542 87 543 c 1
 64 544 47 563 47 586 c 0
 47 609 64 628 87 629 c 1
 64 630 47 648 47 671 c 0
 47 694 64 713 87 714 c 1x1b40
 64 715 47 734 47 757 c 0
 47 781 66 800 90 800 c 0
 113 800 131 782 132 759 c 1
 133 782 152 800 175 800 c 0
 198 800 217 782 218 759 c 1
 219 782 238 800 261 800 c 0
 284 800 303 782 304 759 c 1
 305 782 324 800 347 800 c 0
 371 800 390 781 390 757 c 0
 390 733 371 714 347 714 c 0
 324 714 305 732 304 755 c 1
 303 732 284 714 261 714 c 0
 238 714 219 732 218 755 c 1
 217 732 198 714 175 714 c 0x0740
 152 714 133 732 132 755 c 1
 131 733 114 715 92 714 c 1
 115 713 132 694 132 671 c 0
 132 648 115 630 92 629 c 1
 115 628 132 609 132 586 c 0
 132 563 115 544 92 543 c 1
 114 542 131 524 132 502 c 1
 133 525 152 543 175 543 c 1
 198 543 217 525 218 502 c 1
 219 525 238 543 261 543 c 0
 284 543 303 525 304 502 c 1
 305 525 324 543 347 543 c 0
 371 543 390 524 390 500 c 0
 390 476 371 457 347 457 c 0x1b40
 324 457 305 475 304 498 c 1
 303 476 285 458 263 457 c 1
 286 456 304 437 304 414 c 1
 304 390 285 371 261 371 c 0
 237 371 218 390 218 414 c 0
 218 437 236 456 259 457 c 1x2340
 237 458 219 476 218 498 c 1
 217 475 198 457 175 457 c 0x1340
 152 457 133 475 132 498 c 1
 131 476 114 458 92 457 c 1x2340
 115 456 132 437 132 414 c 1
 132 391 115 372 92 371 c 1x4340
 115 370 132 352 132 329 c 0
 132 306 115 287 92 286 c 1
 115 285 132 266 132 243 c 0
390 329 m 0x4280
 390 305 371 286 347 286 c 0
 323 286 304 305 304 329 c 0
 304 353 323 371 347 371 c 0
 371 371 390 353 390 329 c 0x4280
475 586 m 1x0a40
 475 562 456 543 432 543 c 0
 408 543 390 562 390 586 c 0
 390 609 407 628 430 629 c 1x1a40
 407 630 390 648 390 671 c 1
 390 695 408 714 432 714 c 0x0640
 456 714 475 695 475 671 c 0
 475 648 458 630 435 629 c 1
 458 628 475 609 475 586 c 1x0a40
EndSplineSet
EndChar

StartChar: U
Encoding: 85 85 56
Width: 522
VWidth: 0
UnlinkRmOvrlpSave: 1
Flags: W
HStem: 200 86<137.642 212.216 223.784 298.216 309.784 384.358> 286 85<52.6424 87 92 126.42 395.58 430 435 469.358> 457 86<52.5796 87 92 126.42 395.58 430 435 469.42> 629 85<52.5796 87 92 126.42 395.58 430 435 469.42>
VStem: 47 85<291.642 365.928 376.284 451.716 462.284 537.716 548.284 623.716 634.072 708.716 719.284 794.358> 132 86<205.853 241 245 280.147> 218 86<205.853 241 245 280.147> 304 86<205.853 241 245 280.147> 390 85<291.642 365.928 376.284 451.716 462.284 537.716 548.284 623.716 634.072 708.716 719.284 794.358>
LayerCount: 2
Back
Fore
SplineSet
390 243 m 0xb280
 390 219 371 200 347 200 c 0
 324 200 305 218 304 241 c 1xb280
 303 218 284 200 261 200 c 1
 238 200 219 218 218 241 c 1
 217 218 198 200 175 200 c 0
 151 200 132 219 132 243 c 0
 132 267 151 286 175 286 c 0
 198 286 217 268 218 245 c 1xb4
 219 268 238 286 261 286 c 0
 284 286 303 268 304 245 c 1
 305 268 324 286 347 286 c 0
 371 286 390 267 390 243 c 0xb280
475 329 m 0
 475 305 456 286 432 286 c 0
 408 286 390 305 390 329 c 0
 390 352 407 370 430 371 c 1
 407 372 390 391 390 414 c 0
 390 437 407 456 430 457 c 1
 407 458 390 477 390 500 c 0
 390 523 407 542 430 543 c 1
 407 544 390 563 390 586 c 0
 390 609 407 628 430 629 c 1
 407 630 390 648 390 671 c 1
 390 694 407 713 430 714 c 1
 407 715 390 734 390 757 c 0
 390 781 408 800 432 800 c 0
 456 800 475 781 475 757 c 0
 475 734 458 715 435 714 c 1
 458 713 475 694 475 671 c 0
 475 648 458 630 435 629 c 1
 458 628 475 609 475 586 c 1
 475 563 458 544 435 543 c 1
 458 542 475 523 475 500 c 0
 475 477 458 458 435 457 c 1
 458 456 475 437 475 414 c 0
 475 391 458 372 435 371 c 1x7080
 458 370 475 352 475 329 c 0
132 329 m 0x78
 132 305 114 286 90 286 c 0
 66 286 47 305 47 329 c 0
 47 352 64 370 87 371 c 1
 64 372 47 391 47 414 c 0
 47 437 64 456 87 457 c 1
 64 458 47 477 47 500 c 1
 47 523 64 542 87 543 c 1
 64 544 47 563 47 586 c 0
 47 609 64 628 87 629 c 1
 64 630 47 648 47 671 c 0
 47 694 64 713 87 714 c 1
 64 715 47 734 47 757 c 0
 47 781 66 800 90 800 c 0
 114 800 132 781 132 757 c 0
 132 734 115 715 92 714 c 1
 115 713 132 694 132 671 c 0
 132 648 115 630 92 629 c 1
 115 628 132 609 132 586 c 0
 132 563 115 544 92 543 c 1
 115 542 132 523 132 500 c 0
 132 477 115 458 92 457 c 1
 115 456 132 437 132 414 c 1
 132 391 115 372 92 371 c 1
 115 370 132 352 132 329 c 0x78
EndSplineSet
EndChar

StartChar: T
Encoding: 84 84 57
Width: 522
VWidth: 0
UnlinkRmOvrlpSave: 1
Flags: W
HStem: 200 86<223.853 259 263 298.147> 286 85<223.853 259 263 298.147> 371 86<223.853 259 263 298.147> 457 86<223.853 259 263 298.147> 543 86<223.853 259 263 298.147> 629 85<223.853 259 263 298.147> 714 86<52.6424 126.448 137.784 212.216 223.784 259 263 298.216 309.784 384.216 395.552 469.358>
VStem: 47 85<719.642 755 759 794.358> 218 86<205.642 280.216 291.784 365.448 376.784 451.216 462.784 537.216 548.784 623.216 634.552 708.216 719.521 755 759 794.147> 390 85<719.642 755 759 794.358>
CounterMasks: 1 01c0
LayerCount: 2
Back
Fore
SplineSet
304 243 m 0x81c0
 304 219 285 200 261 200 c 0
 237 200 218 219 218 243 c 0
 218 266 236 285 259 286 c 1x81c0
 236 287 218 306 218 329 c 0
 218 352 236 370 259 371 c 1x41c0
 236 372 218 391 218 414 c 0
 218 437 236 456 259 457 c 1x21c0
 236 458 218 477 218 500 c 1
 218 523 236 542 259 543 c 1x11c0
 236 544 218 563 218 586 c 0
 218 609 236 628 259 629 c 1x09c0
 236 630 218 648 218 671 c 0
 218 694 236 713 259 714 c 1x05c0
 237 715 219 733 218 755 c 1
 217 732 198 714 175 714 c 0
 152 714 133 732 132 755 c 1
 131 732 113 714 90 714 c 0
 66 714 47 733 47 757 c 0
 47 781 66 800 90 800 c 0
 113 800 131 782 132 759 c 1
 133 782 152 800 175 800 c 0
 198 800 217 782 218 759 c 1
 219 782 238 800 261 800 c 0
 284 800 303 782 304 759 c 1
 305 782 324 800 347 800 c 0
 370 800 389 782 390 759 c 1
 391 782 409 800 432 800 c 0
 456 800 475 781 475 757 c 0
 475 733 456 714 432 714 c 0
 409 714 391 732 390 755 c 1
 389 732 370 714 347 714 c 0x03c0
 324 714 305 732 304 755 c 1
 303 733 285 715 263 714 c 1x05c0
 286 713 304 694 304 671 c 0
 304 648 286 630 263 629 c 1x09c0
 286 628 304 609 304 586 c 1
 304 563 286 544 263 543 c 1x11c0
 286 542 304 523 304 500 c 0
 304 477 286 458 263 457 c 1x21c0
 286 456 304 437 304 414 c 1
 304 391 286 372 263 371 c 1x41c0
 286 370 304 352 304 329 c 0
 304 306 286 287 263 286 c 1
 286 285 304 266 304 243 c 0x81c0
EndSplineSet
EndChar

StartChar: W
Encoding: 87 87 58
Width: 522
VWidth: 0
UnlinkRmOvrlpSave: 1
Flags: W
HStem: 286 85<52.5796 87 92 126.711 137.284 212.358 309.642 384.716 395.289 430 435 469.42> 371 86<52.5796 87 92 126.42 223.642 298.358 395.58 430 435 469.42> 457 86<52.5796 87 92 126.42 395.58 430 435 469.42> 629 85<52.5796 87 92 126.42 395.58 430 435 469.42>
VStem: 47 85<205.642 280.716 291.289 326 331 365.711 376.284 451.716 462.284 537.716 548.284 623.716 634.072 708.716 719.284 794.358> 218 86<376.642 451.358> 390 85<205.642 280.716 291.289 326 331 365.711 376.284 451.716 462.284 537.716 548.284 623.716 634.072 708.716 719.284 794.358>
CounterMasks: 1 0e
LayerCount: 2
Back
Fore
SplineSet
475 243 m 0x9e
 475 219 456 200 432 200 c 0
 408 200 390 219 390 243 c 0
 390 266 407 285 430 286 c 1
 408 287 391 304 390 326 c 1
 389 303 370 286 347 286 c 0
 323 286 304 305 304 329 c 0
 304 353 323 371 347 371 c 0
 370 371 389 354 390 331 c 1
 391 353 408 370 430 371 c 1x9e
 407 372 390 391 390 414 c 0
 390 437 407 456 430 457 c 1x5e
 407 458 390 477 390 500 c 0
 390 523 407 542 430 543 c 1
 407 544 390 563 390 586 c 0
 390 609 407 628 430 629 c 1
 407 630 390 648 390 671 c 1
 390 694 407 713 430 714 c 1
 407 715 390 734 390 757 c 0
 390 781 408 800 432 800 c 0
 456 800 475 781 475 757 c 0
 475 734 458 715 435 714 c 1
 458 713 475 694 475 671 c 0
 475 648 458 630 435 629 c 1
 458 628 475 609 475 586 c 1
 475 563 458 544 435 543 c 1x3e
 458 542 475 523 475 500 c 0
 475 477 458 458 435 457 c 1x5e
 458 456 475 437 475 414 c 0
 475 391 458 372 435 371 c 1
 458 370 475 352 475 329 c 0
 475 306 458 287 435 286 c 1
 458 285 475 266 475 243 c 0x9e
132 243 m 0
 132 219 114 200 90 200 c 0
 66 200 47 219 47 243 c 0
 47 266 64 285 87 286 c 1
 64 287 47 306 47 329 c 0
 47 352 64 370 87 371 c 1x9e
 64 372 47 391 47 414 c 0
 47 437 64 456 87 457 c 1x5e
 64 458 47 477 47 500 c 1
 47 523 64 542 87 543 c 1
 64 544 47 563 47 586 c 0
 47 609 64 628 87 629 c 1
 64 630 47 648 47 671 c 0
 47 694 64 713 87 714 c 1
 64 715 47 734 47 757 c 0
 47 781 66 800 90 800 c 0
 114 800 132 781 132 757 c 0
 132 734 115 715 92 714 c 1
 115 713 132 694 132 671 c 0
 132 648 115 630 92 629 c 1
 115 628 132 609 132 586 c 0
 132 563 115 544 92 543 c 1x3e
 115 542 132 523 132 500 c 0
 132 477 115 458 92 457 c 1x5e
 115 456 132 437 132 414 c 1
 132 391 115 372 92 371 c 1
 114 370 131 353 132 331 c 1
 133 354 152 371 175 371 c 1
 199 371 218 353 218 329 c 0
 218 305 199 286 175 286 c 0
 152 286 133 303 132 326 c 1
 131 304 114 287 92 286 c 1
 115 285 132 266 132 243 c 0
304 414 m 0
 304 390 285 371 261 371 c 0
 237 371 218 390 218 414 c 0
 218 438 237 457 261 457 c 0x5e
 285 457 304 438 304 414 c 0
EndSplineSet
EndChar

StartChar: V
Encoding: 86 86 59
Width: 522
VWidth: 0
UnlinkRmOvrlpSave: 1
Flags: W
HStem: 200 86<223.853 259 263 298.147> 286 85<223.853 259 263 298.147> 371 86<137.853 173 177 212.147 309.853 345 349 384.147> 457 86<137.853 173 177 212.147 309.853 345 349 384.147> 629 85<52.5796 87 92 126.42 395.58 430 435 469.42>
VStem: 47 85<548.642 623.716 634.072 708.716 719.284 794.358> 132 86<376.642 451.216 462.784 537.358> 218 86<205.642 280.216 291.784 365.61> 304 86<376.642 451.216 462.784 537.358> 390 85<548.642 623.716 634.072 708.716 719.284 794.358>
LayerCount: 2
Back
Fore
SplineSet
304 243 m 0xa9
 304 219 285 200 261 200 c 0
 237 200 218 219 218 243 c 0
 218 266 236 285 259 286 c 1
 236 287 218 306 218 329 c 0
 218 353 237 371 261 371 c 0
 285 371 304 353 304 329 c 0
 304 306 286 287 263 286 c 1
 286 285 304 266 304 243 c 0xa9
390 414 m 0x2880
 390 390 371 371 347 371 c 0
 323 371 304 390 304 414 c 0
 304 437 322 456 345 457 c 1x2880
 322 458 304 477 304 500 c 0
 304 524 323 543 347 543 c 0x1880
 371 543 390 524 390 500 c 0
 390 477 372 458 349 457 c 1
 372 456 390 437 390 414 c 0x2880
218 414 m 1x2a
 218 390 199 371 175 371 c 0
 151 371 132 390 132 414 c 0
 132 437 150 456 173 457 c 1x2a
 150 458 132 477 132 500 c 1
 132 524 151 543 175 543 c 0x1a
 199 543 218 524 218 500 c 0
 218 477 200 458 177 457 c 1
 200 456 218 437 218 414 c 1x2a
475 586 m 1x1840
 475 562 456 543 432 543 c 0
 408 543 390 562 390 586 c 0
 390 609 407 628 430 629 c 1
 407 630 390 648 390 671 c 1
 390 694 407 713 430 714 c 1
 407 715 390 734 390 757 c 0
 390 781 408 800 432 800 c 0
 456 800 475 781 475 757 c 0
 475 734 458 715 435 714 c 1
 458 713 475 694 475 671 c 0
 475 648 458 630 435 629 c 1
 458 628 475 609 475 586 c 1x1840
132 586 m 0x1c
 132 562 114 543 90 543 c 0
 66 543 47 562 47 586 c 0
 47 609 64 628 87 629 c 1
 64 630 47 648 47 671 c 0
 47 694 64 713 87 714 c 1
 64 715 47 734 47 757 c 0
 47 781 66 800 90 800 c 0
 114 800 132 781 132 757 c 0
 132 734 115 715 92 714 c 1
 115 713 132 694 132 671 c 0
 132 648 115 630 92 629 c 1
 115 628 132 609 132 586 c 0x1c
EndSplineSet
EndChar

StartChar: Y
Encoding: 89 89 60
Width: 522
VWidth: 0
UnlinkRmOvrlpSave: 1
Flags: W
HStem: 200 86<223.853 259 263 298.147> 286 85<223.853 259 263 298.147> 371 86<223.853 259 263 298.147> 457 86<223.853 259 263 298.147> 543 86<137.642 212.358 309.642 384.358> 629 85<52.6424 87 92 126.42 395.58 430 435 469.358>
VStem: 47 85<634.39 708.716 719.284 794.358> 132 86<548.642 623.358> 218 86<205.642 280.216 291.784 365.448 376.784 451.216 462.784 537.358> 304 86<548.642 623.358> 390 85<634.39 708.716 719.284 794.358>
LayerCount: 2
Back
Fore
SplineSet
304 243 m 0x8080
 304 219 285 200 261 200 c 0
 237 200 218 219 218 243 c 0
 218 266 236 285 259 286 c 1x8080
 236 287 218 306 218 329 c 0
 218 352 236 370 259 371 c 1x4080
 236 372 218 391 218 414 c 0
 218 437 236 456 259 457 c 1
 236 458 218 477 218 500 c 1
 218 524 237 543 261 543 c 0
 285 543 304 524 304 500 c 0
 304 477 286 458 263 457 c 1x2880
 286 456 304 437 304 414 c 1
 304 391 286 372 263 371 c 1x4080
 286 370 304 352 304 329 c 0
 304 306 286 287 263 286 c 1
 286 285 304 266 304 243 c 0x8080
390 586 m 0x0840
 390 562 371 543 347 543 c 0
 323 543 304 562 304 586 c 0
 304 610 323 629 347 629 c 0
 371 629 390 610 390 586 c 0x0840
218 586 m 0x09
 218 562 199 543 175 543 c 0
 151 543 132 562 132 586 c 0
 132 610 151 629 175 629 c 0
 199 629 218 610 218 586 c 0x09
475 671 m 0x0420
 475 647 456 629 432 629 c 0
 408 629 390 647 390 671 c 0
 390 694 407 713 430 714 c 1
 407 715 390 734 390 757 c 0
 390 781 408 800 432 800 c 0
 456 800 475 781 475 757 c 0
 475 734 458 715 435 714 c 1
 458 713 475 694 475 671 c 0x0420
132 671 m 0x06
 132 647 114 629 90 629 c 0
 66 629 47 647 47 671 c 0
 47 694 64 713 87 714 c 1
 64 715 47 734 47 757 c 0
 47 781 66 800 90 800 c 0
 114 800 132 781 132 757 c 0
 132 734 115 715 92 714 c 1
 115 713 132 694 132 671 c 0x06
EndSplineSet
EndChar

StartChar: X
Encoding: 88 88 61
Width: 522
VWidth: 0
UnlinkRmOvrlpSave: 1
Flags: W
HStem: 286 85<52.6424 87 92 126.42 395.58 430 435 469.358> 371 86<137.642 212.358 309.642 384.358> 457 86<223.642 298.358> 543 86<137.642 212.358 309.642 384.358> 629 85<52.6424 87 92 126.42 395.58 430 435 469.358>
VStem: 47 85<205.642 280.716 291.284 365.61 634.39 708.716 719.284 794.358> 132 86<376.642 451.358 548.642 623.358> 218 86<462.642 537.358> 304 86<376.642 451.358 548.642 623.358> 390 85<205.642 280.716 291.284 365.61 634.39 708.716 719.284 794.358>
LayerCount: 2
Back
Fore
SplineSet
475 243 m 0x8040
 475 219 456 200 432 200 c 0
 408 200 390 219 390 243 c 0
 390 266 407 285 430 286 c 1x8040
 407 287 390 306 390 329 c 0
 390 353 408 371 432 371 c 0x4040
 456 371 475 353 475 329 c 0
 475 306 458 287 435 286 c 1
 458 285 475 266 475 243 c 0x8040
132 243 m 0x84
 132 219 114 200 90 200 c 0
 66 200 47 219 47 243 c 0
 47 266 64 285 87 286 c 1x84
 64 287 47 306 47 329 c 0
 47 353 66 371 90 371 c 0x44
 114 371 132 353 132 329 c 0
 132 306 115 287 92 286 c 1
 115 285 132 266 132 243 c 0x84
390 414 m 0x4080
 390 390 371 371 347 371 c 0
 323 371 304 390 304 414 c 0
 304 438 323 457 347 457 c 0
 371 457 390 438 390 414 c 0x4080
218 414 m 0x42
 218 390 199 371 175 371 c 0
 151 371 132 390 132 414 c 0
 132 438 151 457 175 457 c 0
 199 457 218 438 218 414 c 0x42
304 500 m 0x21
 304 476 285 457 261 457 c 0
 237 457 218 476 218 500 c 0
 218 524 237 543 261 543 c 0
 285 543 304 524 304 500 c 0x21
390 586 m 0x1080
 390 562 371 543 347 543 c 0
 323 543 304 562 304 586 c 0
 304 610 323 629 347 629 c 0
 371 629 390 610 390 586 c 0x1080
218 586 m 0x12
 218 562 199 543 175 543 c 0
 151 543 132 562 132 586 c 0
 132 610 151 629 175 629 c 0
 199 629 218 610 218 586 c 0x12
475 671 m 0x0840
 475 647 456 629 432 629 c 0
 408 629 390 647 390 671 c 0
 390 694 407 713 430 714 c 1
 407 715 390 734 390 757 c 0
 390 781 408 800 432 800 c 0
 456 800 475 781 475 757 c 0
 475 734 458 715 435 714 c 1
 458 713 475 694 475 671 c 0x0840
132 671 m 0x0c
 132 647 114 629 90 629 c 0
 66 629 47 647 47 671 c 0
 47 694 64 713 87 714 c 1
 64 715 47 734 47 757 c 0
 47 781 66 800 90 800 c 0
 114 800 132 781 132 757 c 0
 132 734 115 715 92 714 c 1
 115 713 132 694 132 671 c 0x0c
EndSplineSet
EndChar

StartChar: bracketleft
Encoding: 91 91 62
Width: 522
VWidth: 0
UnlinkRmOvrlpSave: 1
Flags: W
HStem: 200 86<52.6424 87 92 126.448 137.784 212.216 223.784 298.358> 286 85<52.5796 87 92 126.42> 371 86<52.5796 87 92 126.42> 457 86<52.5796 87 92 126.42> 543 86<52.5796 87 92 126.42> 629 85<52.5796 87 92 126.42> 714 86<52.6424 87 92 126.448 137.784 212.216 223.784 298.358>
VStem: 47 85<205.642 241 245 280.479 291.284 365.928 376.284 451.716 462.284 537.716 548.284 623.716 634.072 708.716 719.521 755 759 794.358> 218 86<205.853 241 245 280.147 719.853 755 759 794.147>
LayerCount: 2
Back
Fore
SplineSet
304 243 m 0x8180
 304 219 285 200 261 200 c 0
 238 200 219 218 218 241 c 1
 217 218 198 200 175 200 c 0
 152 200 133 218 132 241 c 1
 131 218 113 200 90 200 c 1
 66 200 47 219 47 243 c 0
 47 266 64 285 87 286 c 1x8180
 64 287 47 306 47 329 c 0
 47 352 64 370 87 371 c 1x4180
 64 372 47 391 47 414 c 0
 47 437 64 456 87 457 c 1x2180
 64 458 47 477 47 500 c 1
 47 523 64 542 87 543 c 1x1180
 64 544 47 563 47 586 c 0
 47 609 64 628 87 629 c 1x0980
 64 630 47 648 47 671 c 0
 47 694 64 713 87 714 c 1x0580
 64 715 47 734 47 757 c 0
 47 781 66 800 90 800 c 0
 113 800 131 782 132 759 c 1
 133 782 152 800 175 800 c 0
 198 800 217 782 218 759 c 1
 219 782 238 800 261 800 c 0
 285 800 304 781 304 757 c 0
 304 733 285 714 261 714 c 0
 238 714 219 732 218 755 c 1
 217 732 198 714 175 714 c 0x0380
 152 714 133 732 132 755 c 1
 131 733 114 715 92 714 c 1x0580
 115 713 132 694 132 671 c 0
 132 648 115 630 92 629 c 1x0980
 115 628 132 609 132 586 c 0
 132 563 115 544 92 543 c 1x1180
 115 542 132 523 132 500 c 0
 132 477 115 458 92 457 c 1x2180
 115 456 132 437 132 414 c 1
 132 391 115 372 92 371 c 1x4180
 115 370 132 352 132 329 c 0
 132 306 115 287 92 286 c 1
 114 285 131 267 132 245 c 1
 133 268 152 286 175 286 c 1
 198 286 217 268 218 245 c 1
 219 268 238 286 261 286 c 0
 285 286 304 267 304 243 c 0x8180
EndSplineSet
EndChar

StartChar: Z
Encoding: 90 90 63
Width: 522
VWidth: 0
UnlinkRmOvrlpSave: 1
Flags: W
HStem: 200 86<52.6424 87 92 126.448 137.784 212.216 223.784 298.216 309.784 384.216 395.552 469.358> 286 85<52.6424 87 92 126.42> 371 86<137.642 212.358> 457 86<223.642 298.358> 543 86<309.642 384.358> 629 85<395.58 430 435 469.358> 714 86<52.6424 126.448 137.784 212.216 223.784 298.216 309.784 384.216 395.552 430 435 469.358>
VStem: 47 85<205.642 241 245 280.479 291.284 365.61 719.642 755 759 794.358> 132 86<205.853 241 245 280.147 376.642 451.358 719.853 755 759 794.147> 218 86<205.853 241 245 280.147 462.642 537.358 719.853 755 759 794.147> 304 86<205.853 241 245 280.147 548.642 623.358 719.853 755 759 794.147> 390 85<205.642 241 245 280.358 634.39 708.716 719.521 755 759 794.358>
LayerCount: 2
Back
Fore
SplineSet
475 243 m 0xa010
 475 219 456 200 432 200 c 0
 409 200 391 218 390 241 c 1xa020
 389 218 370 200 347 200 c 1
 324 200 305 218 304 241 c 1xa040
 303 218 284 200 261 200 c 1
 238 200 219 218 218 241 c 1xa080
 217 218 198 200 175 200 c 0
 152 200 133 218 132 241 c 1
 131 218 113 200 90 200 c 1
 66 200 47 219 47 243 c 0
 47 266 64 285 87 286 c 1
 64 287 47 306 47 329 c 0
 47 353 66 371 90 371 c 0
 114 371 132 353 132 329 c 0
 132 306 115 287 92 286 c 1
 114 285 131 267 132 245 c 1xa1
 133 268 152 286 175 286 c 1
 198 286 217 268 218 245 c 1xa080
 219 268 238 286 261 286 c 0
 284 286 303 268 304 245 c 1xa040
 305 268 324 286 347 286 c 0
 370 286 389 268 390 245 c 1xa020
 391 268 409 286 432 286 c 0
 456 286 475 267 475 243 c 0xa010
218 414 m 0x2080
 218 390 199 371 175 371 c 0
 151 371 132 390 132 414 c 0
 132 438 151 457 175 457 c 0
 199 457 218 438 218 414 c 0x2080
304 500 m 0x1040
 304 476 285 457 261 457 c 0
 237 457 218 476 218 500 c 0
 218 524 237 543 261 543 c 0
 285 543 304 524 304 500 c 0x1040
390 586 m 0x0820
 390 562 371 543 347 543 c 0
 323 543 304 562 304 586 c 0
 304 610 323 629 347 629 c 0
 371 629 390 610 390 586 c 0x0820
475 671 m 0x0410
 475 647 456 629 432 629 c 0
 408 629 390 647 390 671 c 0x0410
 390 694 407 713 430 714 c 1
 408 715 391 733 390 755 c 1x0420
 389 732 370 714 347 714 c 0
 324 714 305 732 304 755 c 1x0240
 303 732 284 714 261 714 c 0
 238 714 219 732 218 755 c 1x0280
 217 732 198 714 175 714 c 0
 152 714 133 732 132 755 c 1
 131 732 113 714 90 714 c 0
 66 714 47 733 47 757 c 0
 47 781 66 800 90 800 c 0
 113 800 131 782 132 759 c 1x03
 133 782 152 800 175 800 c 0
 198 800 217 782 218 759 c 1x0280
 219 782 238 800 261 800 c 0
 284 800 303 782 304 759 c 1x0240
 305 782 324 800 347 800 c 0
 370 800 389 782 390 759 c 1
 391 782 409 800 432 800 c 0x0220
 456 800 475 781 475 757 c 0
 475 734 458 715 435 714 c 1
 458 713 475 694 475 671 c 0x0410
EndSplineSet
EndChar

StartChar: bracketright
Encoding: 93 93 64
Width: 522
VWidth: 0
UnlinkRmOvrlpSave: 1
Flags: W
HStem: 200 86<52.6424 127.216 138.784 213.216 224.552 259 264 298.358> 286 85<224.58 259 264 298.42> 371 86<224.58 259 264 298.42> 457 86<224.58 259 264 298.42> 543 86<224.58 259 264 298.42> 629 85<224.58 259 264 298.42> 714 86<52.6424 127.216 138.784 213.216 224.552 259 264 298.358>
VStem: 47 86<205.853 241 245 280.147 719.853 755 759 794.147> 219 85<205.642 241 245 280.479 291.284 365.928 376.284 451.716 462.284 537.716 548.284 623.716 634.072 708.716 719.521 755 759 794.358>
LayerCount: 2
Back
Fore
SplineSet
304 243 m 0x8180
 304 219 285 200 261 200 c 0
 238 200 220 218 219 241 c 1
 218 218 199 200 176 200 c 1
 153 200 134 218 133 241 c 1
 132 218 113 200 90 200 c 1
 66 200 47 219 47 243 c 0
 47 267 66 286 90 286 c 0
 113 286 132 268 133 245 c 1
 134 268 153 286 176 286 c 0
 199 286 218 268 219 245 c 1
 220 267 237 285 259 286 c 1x8180
 236 287 219 306 219 329 c 0
 219 352 236 370 259 371 c 1x4180
 236 372 219 391 219 414 c 0
 219 437 236 456 259 457 c 1x2180
 236 458 219 477 219 500 c 0
 219 523 236 542 259 543 c 1x1180
 236 544 219 563 219 586 c 0
 219 609 236 628 259 629 c 1x0980
 236 630 219 648 219 671 c 1
 219 694 236 713 259 714 c 1x0580
 237 715 220 733 219 755 c 1
 218 732 199 714 176 714 c 0
 153 714 134 732 133 755 c 1
 132 732 113 714 90 714 c 0
 66 714 47 733 47 757 c 0
 47 781 66 800 90 800 c 0
 113 800 132 782 133 759 c 1
 134 782 153 800 176 800 c 0
 199 800 218 782 219 759 c 1
 220 782 238 800 261 800 c 0x0380
 285 800 304 781 304 757 c 0
 304 734 287 715 264 714 c 1x0580
 287 713 304 694 304 671 c 0
 304 648 287 630 264 629 c 1x0980
 287 628 304 609 304 586 c 1
 304 563 287 544 264 543 c 1x1180
 287 542 304 523 304 500 c 0
 304 477 287 458 264 457 c 1x2180
 287 456 304 437 304 414 c 0
 304 391 287 372 264 371 c 1x4180
 287 370 304 352 304 329 c 0
 304 306 287 287 264 286 c 1
 287 285 304 266 304 243 c 0x8180
EndSplineSet
EndChar

StartChar: backslash
Encoding: 92 92 65
Width: 522
VWidth: 0
UnlinkRmOvrlpSave: 1
Flags: W
HStem: 286 85<395.39 469.358> 371 86<309.642 384.358> 457 86<223.642 298.358> 543 86<137.642 212.358> 629 85<52.6424 126.61>
VStem: 47 85<634.39 708.358> 132 86<548.642 623.358> 218 86<462.642 537.358> 304 86<376.642 451.358> 390 85<291.642 365.61>
LayerCount: 2
Back
Fore
SplineSet
475 329 m 0x8040
 475 305 456 286 432 286 c 0
 408 286 390 305 390 329 c 0
 390 353 408 371 432 371 c 0
 456 371 475 353 475 329 c 0x8040
390 414 m 0x4080
 390 390 371 371 347 371 c 0
 323 371 304 390 304 414 c 0
 304 438 323 457 347 457 c 0
 371 457 390 438 390 414 c 0x4080
304 500 m 0x21
 304 476 285 457 261 457 c 0
 237 457 218 476 218 500 c 0
 218 524 237 543 261 543 c 0
 285 543 304 524 304 500 c 0x21
218 586 m 0x12
 218 562 199 543 175 543 c 0
 151 543 132 562 132 586 c 0
 132 610 151 629 175 629 c 0
 199 629 218 610 218 586 c 0x12
132 671 m 0x0c
 132 647 114 629 90 629 c 0
 66 629 47 647 47 671 c 0
 47 695 66 714 90 714 c 0
 114 714 132 695 132 671 c 0x0c
EndSplineSet
EndChar

StartChar: underscore
Encoding: 95 95 66
Width: 522
VWidth: 0
UnlinkRmOvrlpSave: 1
Flags: W
HStem: 200 86<52.6424 126.448 137.784 212.216 223.784 298.216 309.784 384.216 395.552 469.358>
VStem: 47 85<205.642 241 245 280.358> 132 86<205.853 241 245 280.147> 218 86<205.853 241 245 280.147> 304 86<205.853 241 245 280.147> 390 85<205.642 241 245 280.358>
LayerCount: 2
Back
Fore
SplineSet
475 243 m 0x84
 475 219 456 200 432 200 c 0
 409 200 391 218 390 241 c 1x88
 389 218 370 200 347 200 c 1
 324 200 305 218 304 241 c 1x90
 303 218 284 200 261 200 c 1
 238 200 219 218 218 241 c 1xa0
 217 218 198 200 175 200 c 0
 152 200 133 218 132 241 c 1
 131 218 113 200 90 200 c 1
 66 200 47 219 47 243 c 0
 47 267 66 286 90 286 c 0
 113 286 131 268 132 245 c 1xc0
 133 268 152 286 175 286 c 1
 198 286 217 268 218 245 c 1xa0
 219 268 238 286 261 286 c 0
 284 286 303 268 304 245 c 1x90
 305 268 324 286 347 286 c 0
 370 286 389 268 390 245 c 1x88
 391 268 409 286 432 286 c 0
 456 286 475 267 475 243 c 0x84
EndSplineSet
EndChar

StartChar: asciicircum
Encoding: 94 94 67
Width: 522
VWidth: 0
UnlinkRmOvrlpSave: 1
Flags: W
HStem: 543 86<52.6424 126.61 395.39 469.358> 629 85<137.642 212.358 309.642 384.358> 714 86<223.642 298.358>
VStem: 47 85<548.642 623.358> 132 86<634.39 708.358> 218 86<719.642 794.358> 304 86<634.39 708.358> 390 85<548.642 623.358>
LayerCount: 2
Back
Fore
SplineSet
475 586 m 0x81
 475 562 456 543 432 543 c 0
 408 543 390 562 390 586 c 0
 390 610 408 629 432 629 c 0
 456 629 475 610 475 586 c 0x81
132 586 m 0x90
 132 562 114 543 90 543 c 0
 66 543 47 562 47 586 c 0
 47 610 66 629 90 629 c 0
 114 629 132 610 132 586 c 0x90
390 671 m 0x42
 390 647 371 629 347 629 c 0
 323 629 304 647 304 671 c 0
 304 695 323 714 347 714 c 0
 371 714 390 695 390 671 c 0x42
218 671 m 0x48
 218 647 199 629 175 629 c 0
 151 629 132 647 132 671 c 0
 132 695 151 714 175 714 c 0
 199 714 218 695 218 671 c 0x48
304 757 m 0x24
 304 733 285 714 261 714 c 0
 237 714 218 733 218 757 c 0
 218 781 237 800 261 800 c 0
 285 800 304 781 304 757 c 0x24
EndSplineSet
EndChar

StartChar: grave
Encoding: 96 96 68
Width: 522
VWidth: 0
UnlinkRmOvrlpSave: 1
Flags: W
HStem: 543 86<223.642 298.358> 629 85<137.642 212.358> 714 86<52.6424 126.61>
VStem: 47 85<719.642 794.358> 132 86<634.39 708.358> 218 86<548.642 623.358>
LayerCount: 2
Back
Fore
SplineSet
304 586 m 0x84
 304 562 285 543 261 543 c 0
 237 543 218 562 218 586 c 0
 218 610 237 629 261 629 c 0
 285 629 304 610 304 586 c 0x84
218 671 m 0x48
 218 647 199 629 175 629 c 0
 151 629 132 647 132 671 c 0
 132 695 151 714 175 714 c 0
 199 714 218 695 218 671 c 0x48
132 757 m 0x30
 132 733 114 714 90 714 c 0
 66 714 47 733 47 757 c 0
 47 781 66 800 90 800 c 0
 114 800 132 781 132 757 c 0x30
EndSplineSet
EndChar

StartChar: braceleft
Encoding: 123 123 69
Width: 522
VWidth: 0
UnlinkRmOvrlpSave: 1
Flags: W
HStem: 200 86<223.642 298.216 309.784 384.358> 286 85<137.642 173 177 212.358> 371 86<137.853 173 177 212.147> 457 86<52.6424 126.61> 543 86<137.853 173 177 212.147> 629 85<137.642 173 177 212.358> 714 86<223.642 298.216 309.784 384.358>
VStem: 47 85<462.642 537.358> 132 86<291.642 365.448 376.784 451.358 548.642 623.216 634.552 708.358> 218 86<205.853 241 245 280.147 719.853 755 759 794.147> 304 86<205.853 241 245 280.147 719.853 755 759 794.147>
LayerCount: 2
Back
Fore
SplineSet
390 243 m 0x8020
 390 219 371 200 347 200 c 0
 324 200 305 218 304 241 c 1
 303 218 284 200 261 200 c 1
 237 200 218 219 218 243 c 0
 218 267 237 286 261 286 c 0
 284 286 303 268 304 245 c 1x8040
 305 268 324 286 347 286 c 0
 371 286 390 267 390 243 c 0x8020
218 329 m 0x5080
 218 305 199 286 175 286 c 0
 151 286 132 305 132 329 c 0
 132 352 150 370 173 371 c 1
 150 372 132 391 132 414 c 0
 132 438 151 457 175 457 c 0
 199 457 218 438 218 414 c 0
 218 391 200 372 177 371 c 1
 200 370 218 352 218 329 c 0x5080
132 500 m 0x11
 132 476 114 457 90 457 c 0
 66 457 47 476 47 500 c 0
 47 524 66 543 90 543 c 0
 114 543 132 524 132 500 c 0x11
218 586 m 0x0a80
 218 562 199 543 175 543 c 0
 151 543 132 562 132 586 c 0
 132 609 150 628 173 629 c 1
 150 630 132 648 132 671 c 0
 132 695 151 714 175 714 c 0
 199 714 218 695 218 671 c 0
 218 648 200 630 177 629 c 1
 200 628 218 609 218 586 c 0x0a80
390 757 m 0x0220
 390 733 371 714 347 714 c 0
 324 714 305 732 304 755 c 1
 303 732 284 714 261 714 c 0
 237 714 218 733 218 757 c 0
 218 781 237 800 261 800 c 0
 284 800 303 782 304 759 c 1x0240
 305 782 324 800 347 800 c 0
 371 800 390 781 390 757 c 0x0220
EndSplineSet
EndChar

StartChar: braceright
Encoding: 125 125 70
Width: 522
VWidth: 0
UnlinkRmOvrlpSave: 1
Flags: W
HStem: 200 86<52.6424 127.216 138.784 213.358> 286 85<224.642 260 264 299.358> 371 86<224.853 260 264 299.147> 457 86<310.39 384.358> 543 86<224.853 260 264 299.147> 629 85<224.642 260 264 299.358> 714 86<52.6424 127.216 138.784 213.358>
VStem: 47 86<205.853 241 245 280.147 719.853 755 759 794.147> 133 86<205.853 241 245 280.147 719.853 755 759 794.147> 219 86<291.642 365.448 376.784 451.358 548.642 623.216 634.552 708.358> 305 85<462.642 537.358>
LayerCount: 2
Back
Fore
SplineSet
219 243 m 0x8140
 219 219 200 200 176 200 c 0
 153 200 134 218 133 241 c 1
 132 218 113 200 90 200 c 0
 66 200 47 219 47 243 c 0
 47 267 66 286 90 286 c 0
 113 286 132 268 133 245 c 1
 134 268 153 286 176 286 c 0
 200 286 219 267 219 243 c 0x8140
305 329 m 0
 305 305 286 286 262 286 c 0
 238 286 219 305 219 329 c 0
 219 352 237 370 260 371 c 1
 237 372 219 391 219 414 c 0
 219 438 238 457 262 457 c 0
 286 457 305 438 305 414 c 0
 305 391 287 372 264 371 c 1x5040
 287 370 305 352 305 329 c 0
390 500 m 0x1020
 390 476 371 457 347 457 c 0
 323 457 305 476 305 500 c 0
 305 524 323 543 347 543 c 0
 371 543 390 524 390 500 c 0x1020
305 586 m 1x0a40
 305 562 286 543 262 543 c 0
 238 543 219 562 219 586 c 0
 219 609 237 628 260 629 c 1
 237 630 219 648 219 671 c 1
 219 695 238 714 262 714 c 0
 286 714 305 695 305 671 c 0
 305 648 287 630 264 629 c 1
 287 628 305 609 305 586 c 1x0a40
219 757 m 0
 219 733 200 714 176 714 c 0
 153 714 134 732 133 755 c 1
 132 732 113 714 90 714 c 0
 66 714 47 733 47 757 c 0
 47 781 66 800 90 800 c 0
 113 800 132 782 133 759 c 1x0340
 134 782 153 800 176 800 c 0
 200 800 219 781 219 757 c 0
EndSplineSet
EndChar

StartChar: bar
Encoding: 124 124 71
Width: 522
VWidth: 0
UnlinkRmOvrlpSave: 1
Flags: W
HStem: 286 85<52.6424 88 92 127.358> 371 86<52.8528 88 92 127.147> 457 86<52.8528 88 92 127.147> 543 86<52.8528 88 92 127.147> 629 85<52.6424 88 92 127.358>
VStem: 47 86<291.642 365.448 376.784 451.216 462.784 537.216 548.784 623.216 634.552 708.358>
LayerCount: 2
Back
Fore
SplineSet
133 329 m 0x84
 133 305 114 286 90 286 c 0
 66 286 47 305 47 329 c 0
 47 352 65 370 88 371 c 1x84
 65 372 47 391 47 414 c 0
 47 437 65 456 88 457 c 1x44
 65 458 47 477 47 500 c 1
 47 523 65 542 88 543 c 1x24
 65 544 47 563 47 586 c 0
 47 609 65 628 88 629 c 1x14
 65 630 47 648 47 671 c 0
 47 695 66 714 90 714 c 0x0c
 114 714 133 695 133 671 c 0
 133 648 115 630 92 629 c 1x14
 115 628 133 609 133 586 c 1
 133 563 115 544 92 543 c 1x24
 115 542 133 523 133 500 c 0
 133 477 115 458 92 457 c 1x44
 115 456 133 437 133 414 c 1
 133 391 115 372 92 371 c 1
 115 370 133 352 133 329 c 0x84
EndSplineSet
EndChar

StartChar: cent
Encoding: 162 162 72
Width: 522
VWidth: 0
UnlinkRmOvrlpSave: 1
Flags: W
HStem: 286 85<137.642 212.716 223.521 259 263 298.479 309.284 384.358> 371 86<52.6424 87 92 126.42> 457 86<52.5796 87 92 126.42> 543 86<52.6424 87 92 126.42> 629 85<137.642 212.716 223.521 259 263 298.479 309.284 384.358>
VStem: 47 85<376.642 451.716 462.284 537.716 548.284 623.358> 218 86<205.642 280.216 291.289 326 331 365.42 634.58 669 674 708.711 719.784 794.358>
LayerCount: 2
Back
Fore
SplineSet
304 243 m 0x86
 304 219 285 200 261 200 c 0
 237 200 218 219 218 243 c 0
 218 266 236 285 259 286 c 1
 237 287 219 304 218 326 c 1
 217 303 198 286 175 286 c 0
 151 286 132 305 132 329 c 0
 132 353 151 371 175 371 c 0x86
 198 371 217 354 218 331 c 1
 219 354 238 371 261 371 c 0x46
 284 371 303 354 304 331 c 1
 305 354 324 371 347 371 c 0
 371 371 390 353 390 329 c 0
 390 305 371 286 347 286 c 0
 324 286 305 303 304 326 c 1
 303 304 285 287 263 286 c 1
 286 285 304 266 304 243 c 0x86
132 414 m 1
 132 390 114 371 90 371 c 0
 66 371 47 390 47 414 c 0
 47 437 64 456 87 457 c 1x46
 64 458 47 477 47 500 c 1
 47 523 64 542 87 543 c 1
 64 544 47 563 47 586 c 0
 47 610 66 629 90 629 c 0
 114 629 132 610 132 586 c 0
 132 563 115 544 92 543 c 1x2e
 115 542 132 523 132 500 c 0
 132 477 115 458 92 457 c 1x46
 115 456 132 437 132 414 c 1
390 671 m 0
 390 647 371 629 347 629 c 0
 324 629 305 646 304 669 c 1
 303 646 284 629 261 629 c 0
 238 629 219 646 218 669 c 1
 217 646 198 629 175 629 c 0
 151 629 132 647 132 671 c 0
 132 695 151 714 175 714 c 0
 198 714 217 697 218 674 c 1
 219 696 237 713 259 714 c 1
 236 715 218 734 218 757 c 0
 218 781 237 800 261 800 c 0
 285 800 304 781 304 757 c 0
 304 734 286 715 263 714 c 1
 285 713 303 696 304 674 c 1
 305 697 324 714 347 714 c 0x0e
 371 714 390 695 390 671 c 0
EndSplineSet
EndChar

StartChar: asciitilde
Encoding: 126 126 73
Width: 522
VWidth: 0
UnlinkRmOvrlpSave: 1
Flags: W
HStem: 371 86<309.642 384.358> 457 86<52.6424 126.61 223.642 298.358 395.39 469.358> 543 86<137.642 212.358>
VStem: 47 85<462.642 537.358> 132 86<548.642 623.358> 218 86<462.642 537.358> 304 86<376.642 451.358> 390 85<462.642 537.358>
LayerCount: 2
Back
Fore
SplineSet
390 414 m 0x82
 390 390 371 371 347 371 c 0
 323 371 304 390 304 414 c 0
 304 438 323 457 347 457 c 0
 371 457 390 438 390 414 c 0x82
475 500 m 0x41
 475 476 456 457 432 457 c 0
 408 457 390 476 390 500 c 0
 390 524 408 543 432 543 c 0
 456 543 475 524 475 500 c 0x41
304 500 m 0x44
 304 476 285 457 261 457 c 0
 237 457 218 476 218 500 c 0
 218 524 237 543 261 543 c 0
 285 543 304 524 304 500 c 0x44
132 500 m 0x50
 132 476 114 457 90 457 c 0
 66 457 47 476 47 500 c 0
 47 524 66 543 90 543 c 0
 114 543 132 524 132 500 c 0x50
218 586 m 0x28
 218 562 199 543 175 543 c 0
 151 543 132 562 132 586 c 0
 132 610 151 629 175 629 c 0
 199 629 218 610 218 586 c 0x28
EndSplineSet
EndChar

StartChar: a
Encoding: 97 97 74
Width: 522
VWidth: 0
UnlinkRmOvrlpSave: 1
Flags: W
HStem: 286 85<52.5796 87 92 126.42 395.58 430 435 469.42> 371 86<52.5796 87 92 126.711 137.784 212.216 223.784 298.216 309.784 384.216 395.289 430 435 469.42> 457 86<52.5796 87 92 126.42 395.58 430 435 469.42> 543 86<52.6424 87 92 126.42 395.58 430 435 469.358> 629 85<137.642 212.358 309.642 384.358> 714 86<223.642 298.358>
VStem: 47 85<205.642 280.716 291.284 365.928 376.521 412 416 451.479 462.284 537.716 548.284 623.358> 132 86<376.853 412 416 451.147 634.39 708.358> 218 86<376.853 412 416 451.147 719.642 794.358> 304 86<376.853 412 416 451.147 634.39 708.358> 390 85<205.642 280.716 291.284 365.928 376.521 412 416 451.479 462.284 537.716 548.284 623.358>
LayerCount: 2
Back
Fore
SplineSet
304 757 m 0x0480
 304 733 285 714 261 714 c 0
 237 714 218 733 218 757 c 0
 218 781 237 800 261 800 c 0
 285 800 304 781 304 757 c 0x0480
218 671 m 0x09
 218 647 199 629 175 629 c 0
 151 629 132 647 132 671 c 0
 132 695 151 714 175 714 c 0
 199 714 218 695 218 671 c 0x09
390 671 m 0x0840
 390 647 371 629 347 629 c 0
 323 629 304 647 304 671 c 0
 304 695 323 714 347 714 c 0
 371 714 390 695 390 671 c 0x0840
475 243 m 0x8020
 475 219 456 200 432 200 c 0
 408 200 390 219 390 243 c 0
 390 266 407 285 430 286 c 1
 407 287 390 306 390 329 c 0x8020
 390 352 407 370 430 371 c 1
 408 372 391 390 390 412 c 1x8040
 389 389 370 371 347 371 c 0
 324 371 305 389 304 412 c 1x4080
 303 389 284 371 261 371 c 0
 238 371 219 389 218 412 c 1
 217 389 198 371 175 371 c 0x41
 152 371 133 389 132 412 c 1
 131 390 114 372 92 371 c 1
 115 370 132 352 132 329 c 0
 132 306 115 287 92 286 c 1
 115 285 132 266 132 243 c 0
 132 219 114 200 90 200 c 0
 66 200 47 219 47 243 c 0
 47 266 64 285 87 286 c 1
 64 287 47 306 47 329 c 0
 47 352 64 370 87 371 c 1x82
 64 372 47 391 47 414 c 0
 47 437 64 456 87 457 c 1x42
 64 458 47 477 47 500 c 0
 47 523 64 542 87 543 c 1
 64 544 47 563 47 586 c 0
 47 610 66 629 90 629 c 0
 114 629 132 610 132 586 c 0
 132 563 115 544 92 543 c 1x2a
 115 542 132 523 132 500 c 0
 132 477 115 458 92 457 c 1
 114 456 131 438 132 416 c 1x42
 133 439 152 457 175 457 c 0
 198 457 217 439 218 416 c 1x41
 219 439 238 457 261 457 c 0
 284 457 303 439 304 416 c 1x4080
 305 439 324 457 347 457 c 0
 370 457 389 439 390 416 c 1
 391 438 408 456 430 457 c 1x4040
 407 458 390 477 390 500 c 0
 390 523 407 542 430 543 c 1
 407 544 390 563 390 586 c 0
 390 610 408 629 432 629 c 0
 456 629 475 610 475 586 c 0
 475 563 458 544 435 543 c 1x2820
 458 542 475 523 475 500 c 0
 475 477 458 458 435 457 c 1x4020
 458 456 475 437 475 414 c 0
 475 391 458 372 435 371 c 1
 458 370 475 352 475 329 c 0
 475 306 458 287 435 286 c 1
 458 285 475 266 475 243 c 0x8020
EndSplineSet
EndChar

StartChar: b
Encoding: 98 98 75
Width: 522
VWidth: 0
UnlinkRmOvrlpSave: 1
Flags: W
HStem: 200 86<52.6424 126.448 137.784 173 177 212.216 223.784 298.216 309.784 384.358> 286 85<137.853 173 177 212.147 395.58 430 435 469.358> 457 86<137.853 173 177 212.479 223.784 298.216 309.784 384.358 408 456> 629 85<137.853 173 177 212.147 395.58 430 435 469.358> 714 86<52.6424 126.448 137.784 173 177 212.216 223.784 298.216 309.784 384.358>
VStem: 47 85<205.642 241 245 280.358 719.642 755 759 794.358> 132 86<205.853 241 245 280.479 291.784 365.448 376.784 451.216 462.784 498 502 537.216 548.784 623.216 634.552 708.216 719.521 755 759 794.147> 218 86<205.853 241 245 280.147 462.853 498 502 537.147 719.853 755 759 794.147> 304 86<205.853 241 245 280.147 462.853 498 502 537.147 719.853 755 759 794.147> 390 85<291.642 365.928 376.284 451.358 548.642 623.716 634.072 708.358>
LayerCount: 2
Back
Fore
SplineSet
475 586 m 0x3040
 475 562 456 543 432 543 c 0
 408 543 390 562 390 586 c 0
 390 609 407 628 430 629 c 1x3040
 407 630 390 648 390 671 c 0
 390 695 408 714 432 714 c 0x2840
 456 714 475 695 475 671 c 0
 475 648 458 630 435 629 c 1
 458 628 475 609 475 586 c 0x3040
475 329 m 0
 475 305 456 286 432 286 c 0
 408 286 390 305 390 329 c 0
 390 352 407 370 430 371 c 1
 407 372 390 391 390 414 c 0
 390 438 408 457 432 457 c 0
 456 457 475 438 475 414 c 0
 475 391 458 372 435 371 c 1x6040
 458 370 475 352 475 329 c 0
390 243 m 0
 390 219 371 200 347 200 c 0
 324 200 305 218 304 241 c 1xa140
 303 218 284 200 261 200 c 0
 238 200 219 218 218 241 c 1xa2
 217 218 198 200 175 200 c 0
 152 200 133 218 132 241 c 1
 131 218 113 200 90 200 c 0
 66 200 47 219 47 243 c 0
 47 267 66 286 90 286 c 0
 113 286 131 268 132 245 c 1
 133 267 151 285 173 286 c 1xa4
 150 287 132 306 132 329 c 0
 132 352 150 370 173 371 c 1
 150 372 132 391 132 414 c 0
 132 437 150 456 173 457 c 1
 150 458 132 477 132 500 c 0
 132 523 150 542 173 543 c 1
 150 544 132 563 132 586 c 0
 132 609 150 628 173 629 c 1
 150 630 132 648 132 671 c 0
 132 694 150 713 173 714 c 1x72
 151 715 133 733 132 755 c 1
 131 732 113 714 90 714 c 0
 66 714 47 733 47 757 c 0
 47 781 66 800 90 800 c 0
 113 800 131 782 132 759 c 1x2c
 133 782 152 800 175 800 c 0
 198 800 217 782 218 759 c 1x2a
 219 782 238 800 261 800 c 0
 284 800 303 782 304 759 c 1
 305 782 324 800 347 800 c 0
 371 800 390 781 390 757 c 0
 390 733 371 714 347 714 c 0
 324 714 305 732 304 755 c 1
 303 732 284 714 261 714 c 0x2940
 238 714 219 732 218 755 c 1
 217 733 199 715 177 714 c 1
 200 713 218 694 218 671 c 0
 218 648 200 630 177 629 c 1
 200 628 218 609 218 586 c 0
 218 563 200 544 177 543 c 1
 199 542 217 524 218 502 c 1x32
 219 525 238 543 261 543 c 0
 284 543 303 525 304 502 c 1
 305 525 324 543 347 543 c 0
 371 543 390 524 390 500 c 0
 390 476 371 457 347 457 c 0
 324 457 305 475 304 498 c 1x3140
 303 475 284 457 261 457 c 0
 238 457 219 475 218 498 c 1
 217 476 199 458 177 457 c 1
 200 456 218 437 218 414 c 0
 218 391 200 372 177 371 c 1x72
 200 370 218 352 218 329 c 0
 218 306 200 287 177 286 c 1
 199 285 217 267 218 245 c 1xa2
 219 268 238 286 261 286 c 0
 284 286 303 268 304 245 c 1
 305 268 324 286 347 286 c 0xa1
 371 286 390 267 390 243 c 0
EndSplineSet
EndChar

StartChar: c
Encoding: 99 99 76
Width: 522
VWidth: 0
UnlinkRmOvrlpSave: 1
Flags: W
HStem: 200 86<137.642 212.216 223.784 298.216 309.784 384.358> 286 85<52.6424 87 92 126.42 395.39 469.358> 457 86<52.5796 87 92 126.42> 629 85<52.6424 87 92 126.42 395.39 469.358> 714 86<137.642 212.216 223.784 298.216 309.784 384.358>
VStem: 47 85<291.642 365.928 376.284 451.716 462.284 537.716 548.284 623.716 634.072 708.358> 132 86<205.853 241 245 280.147 719.853 755 759 794.147> 218 86<205.853 241 245 280.147 719.853 755 759 794.147> 304 86<205.853 241 245 280.147 719.853 755 759 794.147> 390 85<291.642 365.61 634.39 708.358>
LayerCount: 2
Back
Fore
SplineSet
390 757 m 0x2940
 390 733 371 714 347 714 c 0
 324 714 305 732 304 755 c 1x2940
 303 732 284 714 261 714 c 0
 238 714 219 732 218 755 c 1
 217 732 198 714 175 714 c 0
 151 714 132 733 132 757 c 0
 132 781 151 800 175 800 c 0
 198 800 217 782 218 759 c 1x2a
 219 782 238 800 261 800 c 0
 284 800 303 782 304 759 c 1
 305 782 324 800 347 800 c 0
 371 800 390 781 390 757 c 0x2940
475 671 m 0
 475 647 456 629 432 629 c 0
 408 629 390 647 390 671 c 0
 390 695 408 714 432 714 c 0x3040
 456 714 475 695 475 671 c 0
132 329 m 0x74
 132 305 114 286 90 286 c 0
 66 286 47 305 47 329 c 0
 47 352 64 370 87 371 c 1
 64 372 47 391 47 414 c 0
 47 437 64 456 87 457 c 1
 64 458 47 477 47 500 c 0
 47 523 64 542 87 543 c 1
 64 544 47 563 47 586 c 0
 47 609 64 628 87 629 c 1x74
 64 630 47 648 47 671 c 0
 47 695 66 714 90 714 c 0x2c
 114 714 132 695 132 671 c 0
 132 648 115 630 92 629 c 1
 115 628 132 609 132 586 c 0
 132 563 115 544 92 543 c 1
 115 542 132 523 132 500 c 0
 132 477 115 458 92 457 c 1
 115 456 132 437 132 414 c 0
 132 391 115 372 92 371 c 1
 115 370 132 352 132 329 c 0x74
475 329 m 0x6040
 475 305 456 286 432 286 c 0
 408 286 390 305 390 329 c 0
 390 353 408 371 432 371 c 0
 456 371 475 353 475 329 c 0x6040
390 243 m 0
 390 219 371 200 347 200 c 0
 324 200 305 218 304 241 c 1xa140
 303 218 284 200 261 200 c 0
 238 200 219 218 218 241 c 1
 217 218 198 200 175 200 c 0
 151 200 132 219 132 243 c 0
 132 267 151 286 175 286 c 0
 198 286 217 268 218 245 c 1xa2
 219 268 238 286 261 286 c 0
 284 286 303 268 304 245 c 1
 305 268 324 286 347 286 c 0xa1
 371 286 390 267 390 243 c 0
EndSplineSet
EndChar

StartChar: d
Encoding: 100 100 77
Width: 522
VWidth: 0
UnlinkRmOvrlpSave: 1
Flags: W
HStem: 200 86<52.6424 126.448 137.784 173 177 212.216 223.784 298.216 309.784 384.358> 286 85<137.853 173 177 212.147 395.58 430 435 469.358> 457 86<137.853 173 177 212.147 395.58 430 435 469.42> 629 85<137.853 173 177 212.147 395.58 430 435 469.358> 714 86<52.6424 126.448 137.784 173 177 212.216 223.784 298.216 309.784 384.358>
VStem: 47 85<205.642 241 245 280.358 719.642 755 759 794.358> 132 86<205.853 241 245 280.479 291.784 365.448 376.784 451.216 462.784 537.216 548.784 623.216 634.552 708.216 719.521 755 759 794.147> 218 86<205.853 241 245 280.147 719.853 755 759 794.147> 304 86<205.853 241 245 280.147 719.853 755 759 794.147> 390 85<291.642 365.928 376.284 451.716 462.284 537.716 548.284 623.716 634.072 708.358>
LayerCount: 2
Back
Fore
SplineSet
475 329 m 0x7040
 475 305 456 286 432 286 c 0
 408 286 390 305 390 329 c 0
 390 352 407 370 430 371 c 1
 407 372 390 391 390 414 c 0
 390 437 407 456 430 457 c 1
 407 458 390 477 390 500 c 0
 390 523 407 542 430 543 c 1
 407 544 390 563 390 586 c 0
 390 609 407 628 430 629 c 1x7040
 407 630 390 648 390 671 c 0
 390 695 408 714 432 714 c 0x2840
 456 714 475 695 475 671 c 0
 475 648 458 630 435 629 c 1
 458 628 475 609 475 586 c 0
 475 563 458 544 435 543 c 1
 458 542 475 523 475 500 c 0
 475 477 458 458 435 457 c 1
 458 456 475 437 475 414 c 0
 475 391 458 372 435 371 c 1
 458 370 475 352 475 329 c 0x7040
390 243 m 0
 390 219 371 200 347 200 c 0
 324 200 305 218 304 241 c 1xa140
 303 218 284 200 261 200 c 0
 238 200 219 218 218 241 c 1xa2
 217 218 198 200 175 200 c 0
 152 200 133 218 132 241 c 1
 131 218 113 200 90 200 c 0
 66 200 47 219 47 243 c 0
 47 267 66 286 90 286 c 0
 113 286 131 268 132 245 c 1
 133 267 151 285 173 286 c 1xa4
 150 287 132 306 132 329 c 0
 132 352 150 370 173 371 c 1
 150 372 132 391 132 414 c 0
 132 437 150 456 173 457 c 1
 150 458 132 477 132 500 c 0
 132 523 150 542 173 543 c 1
 150 544 132 563 132 586 c 0
 132 609 150 628 173 629 c 1
 150 630 132 648 132 671 c 0
 132 694 150 713 173 714 c 1x72
 151 715 133 733 132 755 c 1
 131 732 113 714 90 714 c 0
 66 714 47 733 47 757 c 0
 47 781 66 800 90 800 c 0
 113 800 131 782 132 759 c 1x2c
 133 782 152 800 175 800 c 0
 198 800 217 782 218 759 c 1x2a
 219 782 238 800 261 800 c 0
 284 800 303 782 304 759 c 1
 305 782 324 800 347 800 c 0
 371 800 390 781 390 757 c 0
 390 733 371 714 347 714 c 0
 324 714 305 732 304 755 c 1
 303 732 284 714 261 714 c 0x2940
 238 714 219 732 218 755 c 1
 217 733 199 715 177 714 c 1
 200 713 218 694 218 671 c 0
 218 648 200 630 177 629 c 1
 200 628 218 609 218 586 c 0
 218 563 200 544 177 543 c 1
 200 542 218 523 218 500 c 0
 218 477 200 458 177 457 c 1
 200 456 218 437 218 414 c 0
 218 391 200 372 177 371 c 1x72
 200 370 218 352 218 329 c 0
 218 306 200 287 177 286 c 1
 199 285 217 267 218 245 c 1xa2
 219 268 238 286 261 286 c 0
 284 286 303 268 304 245 c 1
 305 268 324 286 347 286 c 0xa1
 371 286 390 267 390 243 c 0
EndSplineSet
EndChar

StartChar: e
Encoding: 101 101 78
Width: 522
VWidth: 0
UnlinkRmOvrlpSave: 1
Flags: W
HStem: 200 86<52.6424 87 92 126.448 137.784 212.216 223.784 298.216 309.784 384.216 395.552 469.358> 286 85<52.5796 87 92 126.42> 371 86<52.5796 87 92 126.42> 457 86<52.5796 87 92 126.711 137.784 212.216 223.784 298.358> 543 86<52.5796 87 92 126.42> 629 85<52.5796 87 92 126.42> 714 86<52.6424 87 92 126.448 137.784 212.216 223.784 298.216 309.784 384.216 395.552 469.358>
VStem: 47 85<205.642 241 245 280.479 291.284 365.928 376.284 451.716 462.521 498 502 537.479 548.284 623.716 634.072 708.716 719.521 755 759 794.358> 218 86<205.853 241 245 280.147 462.853 498 502 537.147 719.853 755 759 794.147> 390 85<205.642 241 245 280.358 719.642 755 759 794.358>
CounterMasks: 1 01c0
LayerCount: 2
Back
Fore
SplineSet
475 243 m 0x81c0
 475 219 456 200 432 200 c 0
 409 200 391 218 390 241 c 1
 389 218 370 200 347 200 c 0
 324 200 305 218 304 241 c 1
 303 218 284 200 261 200 c 0
 238 200 219 218 218 241 c 1
 217 218 198 200 175 200 c 0
 152 200 133 218 132 241 c 1
 131 218 113 200 90 200 c 0
 66 200 47 219 47 243 c 0
 47 266 64 285 87 286 c 1x81c0
 64 287 47 306 47 329 c 0
 47 352 64 370 87 371 c 1x41c0
 64 372 47 391 47 414 c 0
 47 437 64 456 87 457 c 1x21c0
 64 458 47 477 47 500 c 0
 47 523 64 542 87 543 c 1x11c0
 64 544 47 563 47 586 c 0
 47 609 64 628 87 629 c 1x09c0
 64 630 47 648 47 671 c 0
 47 694 64 713 87 714 c 1x05c0
 64 715 47 734 47 757 c 0
 47 781 66 800 90 800 c 0
 113 800 131 782 132 759 c 1
 133 782 152 800 175 800 c 0
 198 800 217 782 218 759 c 1
 219 782 238 800 261 800 c 0
 284 800 303 782 304 759 c 1
 305 782 324 800 347 800 c 0
 370 800 389 782 390 759 c 1
 391 782 409 800 432 800 c 0
 456 800 475 781 475 757 c 0
 475 733 456 714 432 714 c 0
 409 714 391 732 390 755 c 1
 389 732 370 714 347 714 c 0
 324 714 305 732 304 755 c 1
 303 732 284 714 261 714 c 0
 238 714 219 732 218 755 c 1
 217 732 198 714 175 714 c 0x03c0
 152 714 133 732 132 755 c 1
 131 733 114 715 92 714 c 1x05c0
 115 713 132 694 132 671 c 0
 132 648 115 630 92 629 c 1x09c0
 115 628 132 609 132 586 c 0
 132 563 115 544 92 543 c 1
 114 542 131 524 132 502 c 1
 133 525 152 543 175 543 c 0
 198 543 217 525 218 502 c 1
 219 525 238 543 261 543 c 0
 285 543 304 524 304 500 c 0
 304 476 285 457 261 457 c 0
 238 457 219 475 218 498 c 1
 217 475 198 457 175 457 c 0x11c0
 152 457 133 475 132 498 c 1
 131 476 114 458 92 457 c 1x21c0
 115 456 132 437 132 414 c 0
 132 391 115 372 92 371 c 1x41c0
 115 370 132 352 132 329 c 0
 132 306 115 287 92 286 c 1
 114 285 131 267 132 245 c 1
 133 268 152 286 175 286 c 0
 198 286 217 268 218 245 c 1
 219 268 238 286 261 286 c 0
 284 286 303 268 304 245 c 1
 305 268 324 286 347 286 c 0
 370 286 389 268 390 245 c 1
 391 268 409 286 432 286 c 0
 456 286 475 267 475 243 c 0x81c0
EndSplineSet
EndChar

StartChar: f
Encoding: 102 102 79
Width: 522
VWidth: 0
UnlinkRmOvrlpSave: 1
Flags: W
HStem: 200 86<52.6424 87 92 126.42> 286 85<52.5796 87 92 126.42> 371 86<52.5796 87 92 126.42> 457 86<52.5796 87 92 126.711 137.784 212.216 223.784 298.358> 543 86<52.5796 87 92 126.42> 629 85<52.5796 87 92 126.42> 714 86<52.6424 87 92 126.448 137.784 212.216 223.784 298.216 309.784 384.216 395.552 469.358>
VStem: 47 85<205.642 280.716 291.284 365.928 376.284 451.716 462.521 498 502 537.479 548.284 623.716 634.072 708.716 719.521 755 759 794.358> 218 86<462.853 498 502 537.147 719.853 755 759 794.147> 304 86<719.853 755 759 794.147> 390 85<719.642 755 759 794.358>
LayerCount: 2
Back
Fore
SplineSet
132 243 m 0x8180
 132 219 114 200 90 200 c 0
 66 200 47 219 47 243 c 0
 47 266 64 285 87 286 c 1x8180
 64 287 47 306 47 329 c 0
 47 352 64 370 87 371 c 1x4180
 64 372 47 391 47 414 c 0
 47 437 64 456 87 457 c 1x2180
 64 458 47 477 47 500 c 0
 47 523 64 542 87 543 c 1x1180
 64 544 47 563 47 586 c 0
 47 609 64 628 87 629 c 1x0980
 64 630 47 648 47 671 c 0
 47 694 64 713 87 714 c 1x0580
 64 715 47 734 47 757 c 0
 47 781 66 800 90 800 c 0
 113 800 131 782 132 759 c 1
 133 782 152 800 175 800 c 0
 198 800 217 782 218 759 c 1
 219 782 238 800 261 800 c 0
 284 800 303 782 304 759 c 1x0380
 305 782 324 800 347 800 c 0
 370 800 389 782 390 759 c 1x0340
 391 782 409 800 432 800 c 0
 456 800 475 781 475 757 c 0x0320
 475 733 456 714 432 714 c 0
 409 714 391 732 390 755 c 1x0340
 389 732 370 714 347 714 c 0
 324 714 305 732 304 755 c 1
 303 732 284 714 261 714 c 0
 238 714 219 732 218 755 c 1
 217 732 198 714 175 714 c 0x0380
 152 714 133 732 132 755 c 1
 131 733 114 715 92 714 c 1x0580
 115 713 132 694 132 671 c 0
 132 648 115 630 92 629 c 1x0980
 115 628 132 609 132 586 c 0
 132 563 115 544 92 543 c 1
 114 542 131 524 132 502 c 1
 133 525 152 543 175 543 c 0
 198 543 217 525 218 502 c 1x1180
 219 525 238 543 261 543 c 0
 285 543 304 524 304 500 c 0x1140
 304 476 285 457 261 457 c 0
 238 457 219 475 218 498 c 1
 217 475 198 457 175 457 c 0x1180
 152 457 133 475 132 498 c 1
 131 476 114 458 92 457 c 1x2180
 115 456 132 437 132 414 c 0
 132 391 115 372 92 371 c 1x4180
 115 370 132 352 132 329 c 0
 132 306 115 287 92 286 c 1
 115 285 132 266 132 243 c 0x8180
EndSplineSet
EndChar

StartChar: g
Encoding: 103 103 80
Width: 522
VWidth: 0
UnlinkRmOvrlpSave: 1
Flags: W
HStem: 200 86<137.642 212.216 223.784 298.216 309.784 384.216 395.552 430 435 469.358> 286 85<52.6424 87 92 126.42 395.58 430 435 469.42> 457 86<52.5796 87 92 126.42 309.642 384.216 395.552 430 435 469.358> 543 86<52.5796 87 92 126.42> 629 85<52.6424 87 92 126.42> 714 86<137.642 212.216 223.784 298.216 309.784 384.216 395.552 469.358>
VStem: 47 85<291.642 365.928 376.284 451.716 462.284 537.716 548.284 623.716 634.072 708.358> 132 86<205.853 241 245 280.147 719.853 755 759 794.147> 218 86<205.853 241 245 280.147 719.853 755 759 794.147> 390 85<205.642 241 245 280.479 291.284 365.928 376.284 451.716 462.521 498 502 537.358 719.642 755 759 794.358>
LayerCount: 2
Back
Fore
SplineSet
475 757 m 0x04c0
 475 733 456 714 432 714 c 0
 409 714 391 732 390 755 c 1
 389 732 370 714 347 714 c 0
 324 714 305 732 304 755 c 1x04c0
 303 732 284 714 261 714 c 0
 238 714 219 732 218 755 c 1
 217 732 198 714 175 714 c 0
 151 714 132 733 132 757 c 0
 132 781 151 800 175 800 c 0
 198 800 217 782 218 759 c 1x0540
 219 782 238 800 261 800 c 0
 284 800 303 782 304 759 c 1
 305 782 324 800 347 800 c 0
 370 800 389 782 390 759 c 1
 391 782 409 800 432 800 c 0
 456 800 475 781 475 757 c 0x04c0
132 329 m 0x6240
 132 305 114 286 90 286 c 0
 66 286 47 305 47 329 c 0
 47 352 64 370 87 371 c 1
 64 372 47 391 47 414 c 0
 47 437 64 456 87 457 c 1
 64 458 47 477 47 500 c 0
 47 523 64 542 87 543 c 1x6240
 64 544 47 563 47 586 c 0
 47 609 64 628 87 629 c 1
 64 630 47 648 47 671 c 0
 47 695 66 714 90 714 c 0
 114 714 132 695 132 671 c 0
 132 648 115 630 92 629 c 1x1640
 115 628 132 609 132 586 c 0
 132 563 115 544 92 543 c 1
 115 542 132 523 132 500 c 0
 132 477 115 458 92 457 c 1
 115 456 132 437 132 414 c 0
 132 391 115 372 92 371 c 1
 115 370 132 352 132 329 c 0x6240
475 243 m 0
 475 219 456 200 432 200 c 0
 409 200 391 218 390 241 c 1
 389 218 370 200 347 200 c 0
 324 200 305 218 304 241 c 1x80c0
 303 218 284 200 261 200 c 0
 238 200 219 218 218 241 c 1
 217 218 198 200 175 200 c 0
 151 200 132 219 132 243 c 0
 132 267 151 286 175 286 c 0
 198 286 217 268 218 245 c 1x8140
 219 268 238 286 261 286 c 0
 284 286 303 268 304 245 c 1
 305 268 324 286 347 286 c 0
 370 286 389 268 390 245 c 1
 391 267 408 285 430 286 c 1x80c0
 407 287 390 306 390 329 c 0
 390 352 407 370 430 371 c 1
 407 372 390 391 390 414 c 0
 390 437 407 456 430 457 c 1
 408 458 391 476 390 498 c 1
 389 475 370 457 347 457 c 0
 323 457 304 476 304 500 c 0
 304 524 323 543 347 543 c 0x60c0
 370 543 389 525 390 502 c 1
 391 525 409 543 432 543 c 0x10c0
 456 543 475 524 475 500 c 0
 475 477 458 458 435 457 c 1
 458 456 475 437 475 414 c 0
 475 391 458 372 435 371 c 1x60c0
 458 370 475 352 475 329 c 0
 475 306 458 287 435 286 c 1x80c0
 458 285 475 266 475 243 c 0
EndSplineSet
EndChar

StartChar: h
Encoding: 104 104 81
Width: 522
VWidth: 0
UnlinkRmOvrlpSave: 1
Flags: W
HStem: 286 85<52.5796 87 92 126.42 395.58 430 435 469.42> 457 86<52.5796 87 92 126.711 137.784 212.216 223.784 298.216 309.784 384.216 395.289 430 435 469.42> 629 85<52.5796 87 92 126.42 395.58 430 435 469.42>
VStem: 47 85<205.642 280.716 291.284 365.928 376.284 451.716 462.521 498 502 537.479 548.284 623.716 634.072 708.716 719.284 794.358> 218 86<462.853 498 502 537.147> 390 85<205.642 280.716 291.284 365.928 376.284 451.716 462.521 498 502 537.479 548.284 623.716 634.072 708.716 719.284 794.358>
CounterMasks: 1 fc
LayerCount: 2
Back
Fore
SplineSet
475 243 m 0
 475 219 456 200 432 200 c 0
 408 200 390 219 390 243 c 0
 390 266 407 285 430 286 c 1
 407 287 390 306 390 329 c 0
 390 352 407 370 430 371 c 1
 407 372 390 391 390 414 c 0
 390 437 407 456 430 457 c 1
 408 458 391 476 390 498 c 1
 389 475 370 457 347 457 c 0
 324 457 305 475 304 498 c 1
 303 475 284 457 261 457 c 0
 238 457 219 475 218 498 c 1
 217 475 198 457 175 457 c 0
 152 457 133 475 132 498 c 1
 131 476 114 458 92 457 c 1
 115 456 132 437 132 414 c 0
 132 391 115 372 92 371 c 1
 115 370 132 352 132 329 c 0
 132 306 115 287 92 286 c 1
 115 285 132 266 132 243 c 0
 132 219 114 200 90 200 c 0
 66 200 47 219 47 243 c 0
 47 266 64 285 87 286 c 1
 64 287 47 306 47 329 c 0
 47 352 64 370 87 371 c 1
 64 372 47 391 47 414 c 0
 47 437 64 456 87 457 c 1
 64 458 47 477 47 500 c 0
 47 523 64 542 87 543 c 1
 64 544 47 563 47 586 c 0
 47 609 64 628 87 629 c 1
 64 630 47 648 47 671 c 0
 47 694 64 713 87 714 c 1
 64 715 47 734 47 757 c 0
 47 781 66 800 90 800 c 0
 114 800 132 781 132 757 c 0
 132 734 115 715 92 714 c 1
 115 713 132 694 132 671 c 0
 132 648 115 630 92 629 c 1
 115 628 132 609 132 586 c 0
 132 563 115 544 92 543 c 1
 114 542 131 524 132 502 c 1
 133 525 152 543 175 543 c 0
 198 543 217 525 218 502 c 1
 219 525 238 543 261 543 c 0
 284 543 303 525 304 502 c 1
 305 525 324 543 347 543 c 0
 370 543 389 525 390 502 c 1
 391 524 408 542 430 543 c 1
 407 544 390 563 390 586 c 0
 390 609 407 628 430 629 c 1
 407 630 390 648 390 671 c 0
 390 694 407 713 430 714 c 1
 407 715 390 734 390 757 c 0
 390 781 408 800 432 800 c 0
 456 800 475 781 475 757 c 0
 475 734 458 715 435 714 c 1
 458 713 475 694 475 671 c 0
 475 648 458 630 435 629 c 1
 458 628 475 609 475 586 c 0
 475 563 458 544 435 543 c 1
 458 542 475 523 475 500 c 0
 475 477 458 458 435 457 c 1
 458 456 475 437 475 414 c 0
 475 391 458 372 435 371 c 1
 458 370 475 352 475 329 c 0
 475 306 458 287 435 286 c 1
 458 285 475 266 475 243 c 0
EndSplineSet
EndChar

StartChar: i
Encoding: 105 105 82
Width: 522
VWidth: 0
UnlinkRmOvrlpSave: 1
Flags: W
HStem: 200 86<52.6424 127.216 138.784 174 178 213.216 224.784 299.358> 286 85<138.853 174 178 213.147> 371 86<138.853 174 178 213.147> 457 86<138.853 174 178 213.147> 543 86<138.853 174 178 213.147> 629 85<138.853 174 178 213.147> 714 86<52.6424 127.216 138.784 174 178 213.216 224.784 299.358>
VStem: 47 86<205.853 241 245 280.147 719.853 755 759 794.147> 133 86<205.853 241 245 280.479 291.784 365.448 376.784 451.216 462.784 537.216 548.784 623.216 634.552 708.216 719.521 755 759 794.147> 219 86<205.853 241 245 280.147 719.853 755 759 794.147>
LayerCount: 2
Back
Fore
SplineSet
305 243 m 0x8040
 305 219 286 200 262 200 c 0
 239 200 220 218 219 241 c 1x8080
 218 218 199 200 176 200 c 0
 153 200 134 218 133 241 c 1
 132 218 113 200 90 200 c 0
 66 200 47 219 47 243 c 0
 47 267 66 286 90 286 c 0
 113 286 132 268 133 245 c 1
 134 267 152 285 174 286 c 1x81
 151 287 133 306 133 329 c 0
 133 352 151 370 174 371 c 1x4080
 151 372 133 391 133 414 c 0
 133 437 151 456 174 457 c 1x2080
 151 458 133 477 133 500 c 0
 133 523 151 542 174 543 c 1x1080
 151 544 133 563 133 586 c 0
 133 609 151 628 174 629 c 1x0880
 151 630 133 648 133 671 c 0
 133 694 151 713 174 714 c 1x0480
 152 715 134 733 133 755 c 1
 132 732 113 714 90 714 c 0
 66 714 47 733 47 757 c 0
 47 781 66 800 90 800 c 0
 113 800 132 782 133 759 c 1x03
 134 782 153 800 176 800 c 0
 199 800 218 782 219 759 c 1x0280
 220 782 239 800 262 800 c 0
 286 800 305 781 305 757 c 0
 305 733 286 714 262 714 c 0x0240
 239 714 220 732 219 755 c 1
 218 733 200 715 178 714 c 1x0480
 201 713 219 694 219 671 c 0
 219 648 201 630 178 629 c 1x0880
 201 628 219 609 219 586 c 0
 219 563 201 544 178 543 c 1x1080
 201 542 219 523 219 500 c 0
 219 477 201 458 178 457 c 1x2080
 201 456 219 437 219 414 c 0
 219 391 201 372 178 371 c 1x4080
 201 370 219 352 219 329 c 0
 219 306 201 287 178 286 c 1
 200 285 218 267 219 245 c 1x8080
 220 268 239 286 262 286 c 0
 286 286 305 267 305 243 c 0x8040
EndSplineSet
EndChar

StartChar: j
Encoding: 106 106 83
Width: 522
VWidth: 0
UnlinkRmOvrlpSave: 1
Flags: W
HStem: 200 86<137.642 212.216 223.784 298.216 309.784 384.358> 286 85<52.6424 126.61 395.58 430 435 469.358> 457 86<395.58 430 435 469.42> 543 86<395.58 430 435 469.42> 629 85<395.58 430 435 469.42> 714 86<395.58 430 435 469.358>
VStem: 47 85<291.642 365.61> 132 86<205.853 241 245 280.147> 218 86<205.853 241 245 280.147> 304 86<205.853 241 245 280.147> 390 85<291.642 365.928 376.284 451.716 462.284 537.716 548.284 623.716 634.072 708.716 719.284 794.358>
LayerCount: 2
Back
Fore
SplineSet
132 329 m 0x42
 132 305 114 286 90 286 c 0
 66 286 47 305 47 329 c 0
 47 353 66 371 90 371 c 0
 114 371 132 353 132 329 c 0x42
475 329 m 0x6020
 475 305 456 286 432 286 c 0
 408 286 390 305 390 329 c 0
 390 352 407 370 430 371 c 1
 407 372 390 391 390 414 c 0
 390 437 407 456 430 457 c 1
 407 458 390 477 390 500 c 0
 390 523 407 542 430 543 c 1x6020
 407 544 390 563 390 586 c 0
 390 609 407 628 430 629 c 1x1020
 407 630 390 648 390 671 c 0
 390 694 407 713 430 714 c 1x0820
 407 715 390 734 390 757 c 0
 390 781 408 800 432 800 c 0x0420
 456 800 475 781 475 757 c 0
 475 734 458 715 435 714 c 1x0820
 458 713 475 694 475 671 c 0
 475 648 458 630 435 629 c 1x1020
 458 628 475 609 475 586 c 0
 475 563 458 544 435 543 c 1
 458 542 475 523 475 500 c 0
 475 477 458 458 435 457 c 1
 458 456 475 437 475 414 c 0
 475 391 458 372 435 371 c 1
 458 370 475 352 475 329 c 0x6020
390 243 m 0
 390 219 371 200 347 200 c 0
 324 200 305 218 304 241 c 1x80a0
 303 218 284 200 261 200 c 0
 238 200 219 218 218 241 c 1
 217 218 198 200 175 200 c 0
 151 200 132 219 132 243 c 0
 132 267 151 286 175 286 c 0
 198 286 217 268 218 245 c 1x81
 219 268 238 286 261 286 c 0
 284 286 303 268 304 245 c 1
 305 268 324 286 347 286 c 0x8080
 371 286 390 267 390 243 c 0
EndSplineSet
EndChar

StartChar: k
Encoding: 107 107 84
Width: 522
VWidth: 0
UnlinkRmOvrlpSave: 1
Flags: W
HStem: 200 86<52.6424 87 92 126.42 395.39 469.358> 286 85<52.5796 87 92 126.42 309.642 384.358> 371 86<52.5796 87 92 126.42 223.642 298.358> 457 86<52.5796 87 92 126.711 137.784 212.358 237 285> 543 86<52.5796 87 92 126.42 223.642 298.358> 629 85<52.5796 87 92 126.42 309.642 384.358> 714 86<52.6424 87 92 126.42 395.39 469.358>
VStem: 47 85<205.642 280.716 291.284 365.928 376.284 451.716 462.521 498 502 537.479 548.284 623.716 634.072 708.716 719.284 794.358> 218 86<376.642 451.358 548.642 623.358> 304 86<291.642 365.61 634.39 708.358> 390 85<205.642 280.358 719.642 794.358>
LayerCount: 2
Back
Fore
SplineSet
475 757 m 0x0320
 475 733 456 714 432 714 c 0
 408 714 390 733 390 757 c 0
 390 781 408 800 432 800 c 0
 456 800 475 781 475 757 c 0x0320
390 671 m 0x0540
 390 647 371 629 347 629 c 0
 323 629 304 647 304 671 c 0
 304 695 323 714 347 714 c 0
 371 714 390 695 390 671 c 0x0540
304 586 m 0x0980
 304 562 285 543 261 543 c 0x1180
 237 543 218 562 218 586 c 0
 218 610 237 629 261 629 c 0
 285 629 304 610 304 586 c 0x0980
304 414 m 0
 304 390 285 371 261 371 c 0
 237 371 218 390 218 414 c 0
 218 438 237 457 261 457 c 0x2180
 285 457 304 438 304 414 c 0
390 329 m 0x4140
 390 305 371 286 347 286 c 0
 323 286 304 305 304 329 c 0
 304 353 323 371 347 371 c 0
 371 371 390 353 390 329 c 0x4140
132 243 m 0
 132 219 114 200 90 200 c 0
 66 200 47 219 47 243 c 0
 47 266 64 285 87 286 c 1x8180
 64 287 47 306 47 329 c 0
 47 352 64 370 87 371 c 1x4180
 64 372 47 391 47 414 c 0
 47 437 64 456 87 457 c 1x2180
 64 458 47 477 47 500 c 0
 47 523 64 542 87 543 c 1x1180
 64 544 47 563 47 586 c 0
 47 609 64 628 87 629 c 1x0980
 64 630 47 648 47 671 c 0
 47 694 64 713 87 714 c 1x0580
 64 715 47 734 47 757 c 0
 47 781 66 800 90 800 c 0x0380
 114 800 132 781 132 757 c 0
 132 734 115 715 92 714 c 1x0580
 115 713 132 694 132 671 c 0
 132 648 115 630 92 629 c 1x0980
 115 628 132 609 132 586 c 0
 132 563 115 544 92 543 c 1
 114 542 131 524 132 502 c 1
 133 525 152 543 175 543 c 0
 199 543 218 524 218 500 c 0
 218 476 199 457 175 457 c 0x1180
 152 457 133 475 132 498 c 1
 131 476 114 458 92 457 c 1x2180
 115 456 132 437 132 414 c 0
 132 391 115 372 92 371 c 1x4180
 115 370 132 352 132 329 c 0
 132 306 115 287 92 286 c 1x8180
 115 285 132 266 132 243 c 0
475 243 m 0x8120
 475 219 456 200 432 200 c 0
 408 200 390 219 390 243 c 0
 390 267 408 286 432 286 c 0
 456 286 475 267 475 243 c 0x8120
EndSplineSet
EndChar

StartChar: l
Encoding: 108 108 85
Width: 522
VWidth: 0
UnlinkRmOvrlpSave: 1
Flags: W
HStem: 200 86<52.6424 87 92 126.448 137.784 212.216 223.784 298.216 309.784 384.216 395.552 469.358> 286 85<52.5796 87 92 126.42> 371 86<52.5796 87 92 126.42> 457 86<52.5796 87 92 126.42> 543 86<52.5796 87 92 126.42> 629 85<52.5796 87 92 126.42> 714 86<52.6424 87 92 126.42>
VStem: 47 85<205.642 241 245 280.479 291.284 365.928 376.284 451.716 462.284 537.716 548.284 623.716 634.072 708.716 719.284 794.358> 218 86<205.853 241 245 280.147> 304 86<205.853 241 245 280.147> 390 85<205.642 241 245 280.358>
LayerCount: 2
Back
Fore
SplineSet
475 243 m 0x8120
 475 219 456 200 432 200 c 0
 409 200 391 218 390 241 c 1x8140
 389 218 370 200 347 200 c 0
 324 200 305 218 304 241 c 1
 303 218 284 200 261 200 c 0
 238 200 219 218 218 241 c 1
 217 218 198 200 175 200 c 0
 152 200 133 218 132 241 c 1
 131 218 113 200 90 200 c 0
 66 200 47 219 47 243 c 0
 47 266 64 285 87 286 c 1x8180
 64 287 47 306 47 329 c 0
 47 352 64 370 87 371 c 1x4180
 64 372 47 391 47 414 c 0
 47 437 64 456 87 457 c 1x2180
 64 458 47 477 47 500 c 0
 47 523 64 542 87 543 c 1x1180
 64 544 47 563 47 586 c 0
 47 609 64 628 87 629 c 1x0980
 64 630 47 648 47 671 c 0
 47 694 64 713 87 714 c 1x0580
 64 715 47 734 47 757 c 0
 47 781 66 800 90 800 c 0x0380
 114 800 132 781 132 757 c 0
 132 734 115 715 92 714 c 1x0580
 115 713 132 694 132 671 c 0
 132 648 115 630 92 629 c 1x0980
 115 628 132 609 132 586 c 0
 132 563 115 544 92 543 c 1x1180
 115 542 132 523 132 500 c 0
 132 477 115 458 92 457 c 1x2180
 115 456 132 437 132 414 c 0
 132 391 115 372 92 371 c 1x4180
 115 370 132 352 132 329 c 0
 132 306 115 287 92 286 c 1
 114 285 131 267 132 245 c 1
 133 268 152 286 175 286 c 0
 198 286 217 268 218 245 c 1
 219 268 238 286 261 286 c 0
 284 286 303 268 304 245 c 1x8180
 305 268 324 286 347 286 c 0
 370 286 389 268 390 245 c 1x8140
 391 268 409 286 432 286 c 0
 456 286 475 267 475 243 c 0x8120
EndSplineSet
EndChar

StartChar: m
Encoding: 109 109 86
Width: 522
VWidth: 0
UnlinkRmOvrlpSave: 1
Flags: W
HStem: 286 85<52.5796 87 92 126.42 395.58 430 435 469.42> 457 86<52.5796 87 92 126.42 223.853 259 263 298.147 395.58 430 435 469.42> 543 86<52.5796 87 92 126.42 223.853 259 263 298.147 395.58 430 435 469.42> 629 85<52.5796 87 92 126.711 137.284 212.358 309.642 384.716 395.289 430 435 469.42>
VStem: 47 85<205.642 280.716 291.284 365.928 376.284 451.716 462.284 537.716 548.284 623.716 634.289 669 674 708.711 719.284 794.358> 218 86<462.642 537.216 548.784 623.358> 390 85<205.642 280.716 291.284 365.928 376.284 451.716 462.284 537.716 548.284 623.716 634.289 669 674 708.711 719.284 794.358>
CounterMasks: 1 0e
LayerCount: 2
Back
Fore
SplineSet
304 500 m 0xde
 304 476 285 457 261 457 c 0
 237 457 218 476 218 500 c 0
 218 523 236 542 259 543 c 1
 236 544 218 563 218 586 c 0
 218 610 237 629 261 629 c 0
 285 629 304 610 304 586 c 0
 304 563 286 544 263 543 c 1
 286 542 304 523 304 500 c 0xde
132 243 m 0
 132 219 114 200 90 200 c 0
 66 200 47 219 47 243 c 0
 47 266 64 285 87 286 c 1
 64 287 47 306 47 329 c 0
 47 352 64 370 87 371 c 1
 64 372 47 391 47 414 c 0
 47 437 64 456 87 457 c 1
 64 458 47 477 47 500 c 0
 47 523 64 542 87 543 c 1xce
 64 544 47 563 47 586 c 0
 47 609 64 628 87 629 c 1xae
 64 630 47 648 47 671 c 0
 47 694 64 713 87 714 c 1
 64 715 47 734 47 757 c 0
 47 781 66 800 90 800 c 0
 114 800 132 781 132 757 c 0
 132 734 115 715 92 714 c 1
 114 713 131 696 132 674 c 1
 133 697 152 714 175 714 c 0
 199 714 218 695 218 671 c 0
 218 647 199 629 175 629 c 0x9e
 152 629 133 646 132 669 c 1
 131 647 114 630 92 629 c 1xae
 115 628 132 609 132 586 c 0
 132 563 115 544 92 543 c 1
 115 542 132 523 132 500 c 0
 132 477 115 458 92 457 c 1
 115 456 132 437 132 414 c 0
 132 391 115 372 92 371 c 1
 115 370 132 352 132 329 c 0
 132 306 115 287 92 286 c 1
 115 285 132 266 132 243 c 0
475 243 m 0
 475 219 456 200 432 200 c 0
 408 200 390 219 390 243 c 0
 390 266 407 285 430 286 c 1
 407 287 390 306 390 329 c 0
 390 352 407 370 430 371 c 1
 407 372 390 391 390 414 c 0
 390 437 407 456 430 457 c 1
 407 458 390 477 390 500 c 0
 390 523 407 542 430 543 c 1xce
 407 544 390 563 390 586 c 0
 390 609 407 628 430 629 c 1xae
 408 630 391 647 390 669 c 1
 389 646 370 629 347 629 c 0
 323 629 304 647 304 671 c 0
 304 695 323 714 347 714 c 0
 370 714 389 697 390 674 c 1
 391 696 408 713 430 714 c 1
 407 715 390 734 390 757 c 0
 390 781 408 800 432 800 c 0
 456 800 475 781 475 757 c 0
 475 734 458 715 435 714 c 1x9e
 458 713 475 694 475 671 c 0
 475 648 458 630 435 629 c 1xae
 458 628 475 609 475 586 c 0
 475 563 458 544 435 543 c 1
 458 542 475 523 475 500 c 0
 475 477 458 458 435 457 c 1
 458 456 475 437 475 414 c 0
 475 391 458 372 435 371 c 1
 458 370 475 352 475 329 c 0
 475 306 458 287 435 286 c 1
 458 285 475 266 475 243 c 0
EndSplineSet
EndChar

StartChar: n
Encoding: 110 110 87
Width: 522
VWidth: 0
UnlinkRmOvrlpSave: 1
Flags: W
HStem: 286 85<52.5796 87 92 126.42 395.58 430 435 469.42> 457 86<52.5796 87 92 126.42 309.642 384.216 395.289 430 435 469.42> 543 86<52.5796 87 92 126.42 223.642 298.358 395.58 430 435 469.42> 629 85<52.5796 87 92 126.711 137.284 212.358 395.58 430 435 469.42>
VStem: 47 85<205.642 280.716 291.284 365.928 376.284 451.716 462.284 537.716 548.284 623.716 634.289 669 674 708.711 719.284 794.358> 218 86<548.642 623.358> 390 85<205.642 280.716 291.284 365.928 376.284 451.716 462.521 498 502 537.479 548.284 623.716 634.072 708.716 719.284 794.358>
CounterMasks: 1 0e
LayerCount: 2
Back
Fore
SplineSet
304 586 m 0xae
 304 562 285 543 261 543 c 0
 237 543 218 562 218 586 c 0
 218 610 237 629 261 629 c 0
 285 629 304 610 304 586 c 0xae
132 243 m 0
 132 219 114 200 90 200 c 0
 66 200 47 219 47 243 c 0
 47 266 64 285 87 286 c 1
 64 287 47 306 47 329 c 0
 47 352 64 370 87 371 c 1
 64 372 47 391 47 414 c 0
 47 437 64 456 87 457 c 1
 64 458 47 477 47 500 c 0
 47 523 64 542 87 543 c 1xce
 64 544 47 563 47 586 c 0
 47 609 64 628 87 629 c 1xae
 64 630 47 648 47 671 c 0
 47 694 64 713 87 714 c 1
 64 715 47 734 47 757 c 0
 47 781 66 800 90 800 c 0
 114 800 132 781 132 757 c 0
 132 734 115 715 92 714 c 1
 114 713 131 696 132 674 c 1
 133 697 152 714 175 714 c 0
 199 714 218 695 218 671 c 0
 218 647 199 629 175 629 c 0x9e
 152 629 133 646 132 669 c 1
 131 647 114 630 92 629 c 1xae
 115 628 132 609 132 586 c 0
 132 563 115 544 92 543 c 1
 115 542 132 523 132 500 c 0
 132 477 115 458 92 457 c 1xce
 115 456 132 437 132 414 c 0
 132 391 115 372 92 371 c 1
 115 370 132 352 132 329 c 0
 132 306 115 287 92 286 c 1
 115 285 132 266 132 243 c 0
475 243 m 0
 475 219 456 200 432 200 c 0
 408 200 390 219 390 243 c 0
 390 266 407 285 430 286 c 1
 407 287 390 306 390 329 c 0
 390 352 407 370 430 371 c 1
 407 372 390 391 390 414 c 0
 390 437 407 456 430 457 c 1
 408 458 391 476 390 498 c 1
 389 475 370 457 347 457 c 0
 323 457 304 476 304 500 c 0
 304 524 323 543 347 543 c 0
 370 543 389 525 390 502 c 1
 391 524 408 542 430 543 c 1xce
 407 544 390 563 390 586 c 0
 390 609 407 628 430 629 c 1xae
 407 630 390 648 390 671 c 0
 390 694 407 713 430 714 c 1
 407 715 390 734 390 757 c 0
 390 781 408 800 432 800 c 0
 456 800 475 781 475 757 c 0
 475 734 458 715 435 714 c 1x9e
 458 713 475 694 475 671 c 0
 475 648 458 630 435 629 c 1xae
 458 628 475 609 475 586 c 0
 475 563 458 544 435 543 c 1
 458 542 475 523 475 500 c 0
 475 477 458 458 435 457 c 1
 458 456 475 437 475 414 c 0
 475 391 458 372 435 371 c 1
 458 370 475 352 475 329 c 0
 475 306 458 287 435 286 c 1
 458 285 475 266 475 243 c 0
EndSplineSet
EndChar

StartChar: o
Encoding: 111 111 88
Width: 522
VWidth: 0
UnlinkRmOvrlpSave: 1
Flags: W
HStem: 200 86<52.6424 87 92 126.448 137.784 212.216 223.784 298.216 309.784 384.216 395.552 430 435 469.358> 286 85<52.5796 87 92 126.42 395.58 430 435 469.42> 457 86<52.5796 87 92 126.42 395.58 430 435 469.42> 629 85<52.5796 87 92 126.42 395.58 430 435 469.42> 714 86<52.6424 87 92 126.448 137.784 212.216 223.784 298.216 309.784 384.216 395.552 430 435 469.358>
VStem: 47 85<205.642 241 245 280.479 291.284 365.928 376.284 451.716 462.284 537.716 548.284 623.716 634.072 708.716 719.521 755 759 794.358> 218 86<205.853 241 245 280.147 719.853 755 759 794.147> 390 85<205.642 241 245 280.479 291.284 365.928 376.284 451.716 462.284 537.716 548.284 623.716 634.072 708.716 719.521 755 759 794.358>
CounterMasks: 1 07
LayerCount: 2
Back
Fore
SplineSet
390 245 m 1xa7
 391 267 408 285 430 286 c 1xa7
 407 287 390 306 390 329 c 0
 390 352 407 370 430 371 c 1
 407 372 390 391 390 414 c 0
 390 437 407 456 430 457 c 1
 407 458 390 477 390 500 c 0
 390 523 407 542 430 543 c 1
 407 544 390 563 390 586 c 0
 390 609 407 628 430 629 c 1
 407 630 390 648 390 671 c 0
 390 694 407 713 430 714 c 1x77
 408 715 391 733 390 755 c 1
 389 732 370 714 347 714 c 0
 324 714 305 732 304 755 c 1
 303 732 284 714 261 714 c 0
 238 714 219 732 218 755 c 1
 217 732 198 714 175 714 c 0x2f
 152 714 133 732 132 755 c 1
 131 733 114 715 92 714 c 1
 115 713 132 694 132 671 c 0
 132 648 115 630 92 629 c 1
 115 628 132 609 132 586 c 0
 132 563 115 544 92 543 c 1
 115 542 132 523 132 500 c 0
 132 477 115 458 92 457 c 1
 115 456 132 437 132 414 c 0
 132 391 115 372 92 371 c 1x77
 115 370 132 352 132 329 c 0
 132 306 115 287 92 286 c 1
 114 285 131 267 132 245 c 1
 133 268 152 286 175 286 c 0
 198 286 217 268 218 245 c 1
 219 268 238 286 261 286 c 0
 284 286 303 268 304 245 c 1
 305 268 324 286 347 286 c 0
 370 286 389 268 390 245 c 1xa7
475 243 m 0
 475 219 456 200 432 200 c 0
 409 200 391 218 390 241 c 1
 389 218 370 200 347 200 c 0
 324 200 305 218 304 241 c 1
 303 218 284 200 261 200 c 0
 238 200 219 218 218 241 c 1
 217 218 198 200 175 200 c 0
 152 200 133 218 132 241 c 1
 131 218 113 200 90 200 c 0
 66 200 47 219 47 243 c 0
 47 266 64 285 87 286 c 1xa7
 64 287 47 306 47 329 c 0
 47 352 64 370 87 371 c 1
 64 372 47 391 47 414 c 0
 47 437 64 456 87 457 c 1
 64 458 47 477 47 500 c 0
 47 523 64 542 87 543 c 1
 64 544 47 563 47 586 c 0
 47 609 64 628 87 629 c 1
 64 630 47 648 47 671 c 0
 47 694 64 713 87 714 c 1x77
 64 715 47 734 47 757 c 0
 47 781 66 800 90 800 c 0
 113 800 131 782 132 759 c 1
 133 782 152 800 175 800 c 0
 198 800 217 782 218 759 c 1
 219 782 238 800 261 800 c 0
 284 800 303 782 304 759 c 1
 305 782 324 800 347 800 c 0
 370 800 389 782 390 759 c 1
 391 782 409 800 432 800 c 0x2f
 456 800 475 781 475 757 c 0
 475 734 458 715 435 714 c 1
 458 713 475 694 475 671 c 0
 475 648 458 630 435 629 c 1
 458 628 475 609 475 586 c 0
 475 563 458 544 435 543 c 1
 458 542 475 523 475 500 c 0
 475 477 458 458 435 457 c 1
 458 456 475 437 475 414 c 0
 475 391 458 372 435 371 c 1x77
 458 370 475 352 475 329 c 0
 475 306 458 287 435 286 c 1
 458 285 475 266 475 243 c 0
EndSplineSet
EndChar

StartChar: p
Encoding: 112 112 89
Width: 522
VWidth: 0
UnlinkRmOvrlpSave: 1
Flags: W
HStem: 200 86<52.6424 87 92 126.42> 286 85<52.5796 87 92 126.42> 371 86<52.5796 87 92 126.42> 457 86<52.5796 87 92 126.711 137.784 212.216 223.784 298.216 309.784 384.358> 629 85<52.5796 87 92 126.42 395.58 430 435 469.358> 714 86<52.6424 87 92 126.448 137.784 212.216 223.784 298.216 309.784 384.358>
VStem: 47 85<205.642 280.716 291.284 365.928 376.284 451.716 462.521 498 502 537.479 548.284 623.716 634.072 708.716 719.521 755 759 794.358> 218 86<462.853 498 502 537.147 719.853 755 759 794.147> 304 86<462.853 498 502 537.147 719.853 755 759 794.147> 390 85<548.642 623.716 634.072 708.358>
LayerCount: 2
Back
Fore
SplineSet
475 586 m 0x0a40
 475 562 456 543 432 543 c 0
 408 543 390 562 390 586 c 0
 390 609 407 628 430 629 c 1x1a40
 407 630 390 648 390 671 c 0
 390 695 408 714 432 714 c 0x0640
 456 714 475 695 475 671 c 0
 475 648 458 630 435 629 c 1
 458 628 475 609 475 586 c 0x0a40
132 243 m 0
 132 219 114 200 90 200 c 0
 66 200 47 219 47 243 c 0
 47 266 64 285 87 286 c 1x8340
 64 287 47 306 47 329 c 0
 47 352 64 370 87 371 c 1x4340
 64 372 47 391 47 414 c 0
 47 437 64 456 87 457 c 1x2340
 64 458 47 477 47 500 c 0
 47 523 64 542 87 543 c 1
 64 544 47 563 47 586 c 0
 47 609 64 628 87 629 c 1
 64 630 47 648 47 671 c 0
 47 694 64 713 87 714 c 1x1b40
 64 715 47 734 47 757 c 0
 47 781 66 800 90 800 c 0
 113 800 131 782 132 759 c 1
 133 782 152 800 175 800 c 0
 198 800 217 782 218 759 c 1
 219 782 238 800 261 800 c 0
 284 800 303 782 304 759 c 1
 305 782 324 800 347 800 c 0
 371 800 390 781 390 757 c 0
 390 733 371 714 347 714 c 0
 324 714 305 732 304 755 c 1
 303 732 284 714 261 714 c 0
 238 714 219 732 218 755 c 1
 217 732 198 714 175 714 c 0x0740
 152 714 133 732 132 755 c 1
 131 733 114 715 92 714 c 1
 115 713 132 694 132 671 c 0
 132 648 115 630 92 629 c 1
 115 628 132 609 132 586 c 0
 132 563 115 544 92 543 c 1
 114 542 131 524 132 502 c 1
 133 525 152 543 175 543 c 0
 198 543 217 525 218 502 c 1
 219 525 238 543 261 543 c 0
 284 543 303 525 304 502 c 1
 305 525 324 543 347 543 c 0
 371 543 390 524 390 500 c 0
 390 476 371 457 347 457 c 0
 324 457 305 475 304 498 c 1
 303 475 284 457 261 457 c 0
 238 457 219 475 218 498 c 1
 217 475 198 457 175 457 c 0x1b40
 152 457 133 475 132 498 c 1
 131 476 114 458 92 457 c 1x2340
 115 456 132 437 132 414 c 0
 132 391 115 372 92 371 c 1x4340
 115 370 132 352 132 329 c 0
 132 306 115 287 92 286 c 1x8340
 115 285 132 266 132 243 c 0
EndSplineSet
EndChar

StartChar: q
Encoding: 113 113 90
Width: 522
VWidth: 0
UnlinkRmOvrlpSave: 1
Flags: W
HStem: 200 86<137.642 212.216 223.784 298.358 395.39 469.358> 286 85<52.6424 87 92 126.42 309.642 384.358> 371 86<52.5796 87 92 126.42 223.642 298.358 395.58 430 435 469.358> 629 85<52.6424 87 92 126.42 395.58 430 435 469.358> 714 86<137.642 212.216 223.784 298.216 309.784 384.358>
VStem: 47 85<291.642 365.928 376.284 451.716 462.284 537.716 548.284 623.716 634.072 708.358> 132 86<205.853 241 245 280.147 719.853 755 759 794.147> 218 86<205.853 241 245 280.147 376.642 451.358 719.853 755 759 794.147> 304 86<291.642 365.61 719.853 755 759 794.147> 390 85<205.642 280.358 376.642 451.716 462.284 537.716 548.284 623.716 634.072 708.358>
LayerCount: 2
Back
Fore
SplineSet
390 757 m 0x0940
 390 733 371 714 347 714 c 0
 324 714 305 732 304 755 c 1x0940
 303 732 284 714 261 714 c 0
 238 714 219 732 218 755 c 1
 217 732 198 714 175 714 c 0
 151 714 132 733 132 757 c 0
 132 781 151 800 175 800 c 0
 198 800 217 782 218 759 c 1x0a
 219 782 238 800 261 800 c 0
 284 800 303 782 304 759 c 1
 305 782 324 800 347 800 c 0
 371 800 390 781 390 757 c 0x0940
304 414 m 0
 304 390 285 371 261 371 c 0
 237 371 218 390 218 414 c 0
 218 438 237 457 261 457 c 0x21
 285 457 304 438 304 414 c 0
475 414 m 0x3040
 475 390 456 371 432 371 c 0
 408 371 390 390 390 414 c 0
 390 437 407 456 430 457 c 1
 407 458 390 477 390 500 c 0
 390 523 407 542 430 543 c 1
 407 544 390 563 390 586 c 0
 390 609 407 628 430 629 c 1x3040
 407 630 390 648 390 671 c 0
 390 695 408 714 432 714 c 0x0840
 456 714 475 695 475 671 c 0
 475 648 458 630 435 629 c 1
 458 628 475 609 475 586 c 0
 475 563 458 544 435 543 c 1
 458 542 475 523 475 500 c 0
 475 477 458 458 435 457 c 1
 458 456 475 437 475 414 c 0x3040
132 329 m 0x44
 132 305 114 286 90 286 c 0
 66 286 47 305 47 329 c 0
 47 352 64 370 87 371 c 1x44
 64 372 47 391 47 414 c 0
 47 437 64 456 87 457 c 1
 64 458 47 477 47 500 c 0
 47 523 64 542 87 543 c 1
 64 544 47 563 47 586 c 0
 47 609 64 628 87 629 c 1x34
 64 630 47 648 47 671 c 0
 47 695 66 714 90 714 c 0x0c
 114 714 132 695 132 671 c 0
 132 648 115 630 92 629 c 1
 115 628 132 609 132 586 c 0
 132 563 115 544 92 543 c 1
 115 542 132 523 132 500 c 0
 132 477 115 458 92 457 c 1x34
 115 456 132 437 132 414 c 0
 132 391 115 372 92 371 c 1
 115 370 132 352 132 329 c 0x44
390 329 m 0x4080
 390 305 371 286 347 286 c 0
 323 286 304 305 304 329 c 0
 304 353 323 371 347 371 c 0
 371 371 390 353 390 329 c 0x4080
304 243 m 0
 304 219 285 200 261 200 c 0
 238 200 219 218 218 241 c 1
 217 218 198 200 175 200 c 0
 151 200 132 219 132 243 c 0
 132 267 151 286 175 286 c 0
 198 286 217 268 218 245 c 1
 219 268 238 286 261 286 c 0x8280
 285 286 304 267 304 243 c 0
475 243 m 0x8040
 475 219 456 200 432 200 c 0
 408 200 390 219 390 243 c 0
 390 267 408 286 432 286 c 0
 456 286 475 267 475 243 c 0x8040
EndSplineSet
EndChar

